<?xml version='1.0' encoding='UTF-8'?>
<svg xmlns="http://www.w3.org/2000/svg" xmlns:inkscape="http://www.inkscape.org/namespaces/inkscape" xmlns:inkstitch="http://inkstitch.org/namespace" version="1.1" width="165.0mm" height="123.51mm" viewBox="0 0 867 649">
  <metadata>
    <inkstitch:inkstitch_svg_version>3</inkstitch:inkstitch_svg_version>
  </metadata>
  <g id="color0_1915" inkscape:label="1915 Emily Pink">
    <path id="c0_0" d="M0,0 L9,0 L14,5 L16,10 L13,16 L9,19 L13,24 L13,26 L15,26 L22,35 L25,39 L35,36 L42,32 L40,27 L41,19 L47,14 L52,13 L56,14 L56,16 L60,18 L61,22 L60,29 L58,29 L56,33 L53,35 L57,43 L61,48 L72,47 L79,46 L81,44 L84,35 L89,31 L98,32 L102,36 L103,42 L102,47 L96,51 L89,52 L86,53 L84,57 L78,65 L72,75 L66,87 L60,110 L69,109 L74,108 L83,108 L93,111 L101,118 L105,126 L106,134 L106,143 L102,153 L102,157 L110,150 L114,146 L125,139 L141,133 L163,127 L182,123 L198,122 L213,125 L227,131 L236,137 L247,146 L247,148 L250,149 L256,157 L256,159 L271,155 L288,155 L301,158 L317,166 L326,174 L333,184 L338,197 L339,202 L339,216 L334,231 L327,240 L320,246 L312,250 L305,252 L293,252 L285,249 L280,245 L276,247 L272,251 L268,253 L267,266 L261,278 L256,280 L255,283 L250,285 L240,288 L228,288 L217,284 L207,276 L201,267 L197,258 L196,243 L198,230 L204,215 L193,210 L189,206 L189,204 L187,204 L184,195 L180,197 L178,201 L173,205 L162,209 L159,210 L147,210 L134,206 L126,202 L116,194 L107,183 L101,193 L97,196 L88,198 L75,199 L90,205 L99,210 L109,216 L118,221 L126,226 L126,228 L130,229 L141,236 L141,238 L145,239 L147,244 L143,245 L131,247 L118,249 L114,250 L96,253 L96,285 L96,288 L96,296 L97,302 L92,301 L85,296 L76,285 L73,280 L62,268 L55,259 L48,251 L48,249 L45,248 L42,242 L42,240 L39,239 L34,230 L26,217 L21,207 L16,194 L12,185 L12,182 L9,183 L5,187 L0,185 L-6,198 L-14,216 L-26,237 L-33,247 L-39,255 L-41,258 L-43,258 L-45,263 L-57,277 L-62,282 L-72,295 L-77,301 L-81,303 L-82,305 L-87,305 L-86,289 L-86,275 L-85,264 L-85,255 L-91,255 L-97,253 L-113,251 L-128,248 L-137,248 L-137,244 L-133,243 L-133,241 L-131,241 L-131,239 L-126,236 L-115,229 L-107,223 L-93,216 L-83,209 L-71,204 L-66,202 L-81,201 L-89,197 L-94,192 L-97,186 L-103,194 L-108,199 L-119,207 L-128,211 L-137,213 L-146,213 L-156,211 L-167,205 L-173,198 L-178,207 L-184,214 L-192,217 L-194,217 L-188,232 L-186,244 L-186,254 L-188,264 L-192,273 L-199,281 L-209,288 L-218,291 L-228,291 L-236,290 L-245,285 L-252,279 L-257,269 L-257,257 L-266,250 L-270,247 L-271,250 L-279,254 L-284,255 L-295,255 L-308,250 L-317,243 L-317,241 L-319,241 L-324,234 L-328,222 L-328,201 L-323,187 L-316,177 L-308,170 L-294,162 L-282,158 L-270,157 L-254,159 L-247,161 L-238,150 L-231,143 L-225,139 L-215,133 L-199,127 L-183,125 L-168,127 L-154,130 L-148,132 L-138,134 L-124,138 L-110,145 L-99,153 L-99,155 L-96,156 L-93,159 L-92,157 L-96,147 L-96,133 L-93,125 L-87,116 L-78,112 L-73,111 L-53,112 L-55,104 L-61,90 L-70,74 L-74,67 L-82,57 L-82,55 L-89,54 L-94,48 L-93,39 L-89,36 L-83,35 L-77,37 L-74,42 L-73,47 L-60,50 L-55,49 L-47,33 L-52,31 L-55,25 L-54,19 L-49,14 L-42,13 L-37,16 L-34,20 L-34,27 L-36,30 L-31,34 L-16,41 L-15,37 L-4,24 L0,19 L-5,14 L-6,7 Z " fill="#FDAFB7" transform="translate(404,42)" inkstitch:fill_underlay="True" inkstitch:row_spacing_mm="0.4" inkstitch:pull_compensation_mm="0.2" inkstitch:trim_after="True" inkstitch:fill_method="contour_fill"/>
    <path id="c0_1" d="M0,0 L14,0 L25,4 L30,8 L30,10 L32,10 L36,15 L40,23 L43,34 L43,46 L38,63 L31,77 L25,85 L20,90 L34,91 L48,96 L58,103 L62,108 L62,110 L64,110 L70,120 L72,125 L75,138 L75,155 L74,165 L79,166 L90,174 L96,182 L99,188 L99,191 L95,192 L95,190 L86,187 L78,184 L59,181 L51,181 L43,185 L38,191 L34,200 L33,202 L33,211 L39,229 L48,243 L49,241 L49,234 L54,221 L62,212 L72,206 L77,204 L83,203 L93,203 L102,206 L111,213 L116,219 L119,227 L119,240 L116,246 L111,250 L109,251 L98,251 L89,244 L86,235 L90,234 L91,236 L100,239 L103,237 L102,227 L100,222 L93,220 L84,221 L75,224 L71,226 L69,230 L67,235 L67,250 L69,260 L73,261 L80,265 L94,270 L103,272 L122,273 L139,271 L159,265 L179,257 L198,249 L216,243 L228,240 L243,239 L265,242 L275,246 L281,250 L293,261 L298,272 L307,257 L320,247 L334,242 L348,240 L364,240 L380,244 L402,251 L436,265 L451,270 L467,273 L479,274 L501,271 L516,266 L526,260 L528,257 L530,245 L530,238 L528,232 L524,226 L514,221 L501,221 L496,225 L493,234 L493,238 L499,239 L506,237 L506,235 L509,234 L510,235 L509,242 L503,249 L495,252 L489,252 L483,249 L478,243 L477,240 L477,227 L482,217 L487,211 L496,206 L504,204 L517,204 L530,209 L534,212 L534,214 L537,215 L537,217 L539,217 L545,226 L547,233 L547,244 L549,244 L551,240 L557,231 L562,216 L563,206 L560,194 L557,189 L557,187 L554,186 L554,184 L547,182 L533,182 L512,187 L498,193 L497,189 L502,180 L509,172 L516,167 L522,164 L524,164 L522,158 L522,136 L524,127 L532,111 L537,105 L547,98 L555,94 L566,91 L578,91 L575,89 L575,87 L573,87 L564,76 L558,62 L554,48 L553,36 L556,25 L562,13 L571,5 L581,1 L585,0 L593,0 L604,4 L612,12 L614,15 L615,25 L611,35 L604,41 L599,43 L592,43 L591,40 L596,34 L599,26 L598,21 L593,18 L584,19 L578,23 L573,34 L573,46 L578,62 L583,72 L592,83 L599,91 L599,93 L602,94 L608,105 L613,115 L617,120 L622,134 L624,142 L624,158 L620,176 L614,187 L604,198 L595,204 L586,208 L583,208 L582,219 L578,231 L569,248 L562,257 L557,262 L544,272 L528,281 L518,285 L498,289 L490,290 L476,290 L456,287 L440,283 L422,276 L412,272 L392,264 L375,258 L362,256 L348,256 L333,259 L325,264 L319,269 L316,274 L315,278 L315,292 L320,297 L321,298 L339,298 L341,293 L342,292 L342,286 L340,284 L331,285 L325,289 L322,288 L325,278 L332,272 L338,270 L345,270 L351,273 L358,281 L359,285 L359,294 L357,304 L240,304 L239,299 L237,292 L238,283 L242,275 L250,270 L258,269 L266,272 L273,280 L274,288 L269,287 L265,284 L260,283 L255,285 L254,290 L257,295 L260,298 L277,298 L279,294 L282,288 L282,281 L279,272 L275,267 L275,265 L271,263 L261,258 L252,256 L229,256 L217,259 L196,267 L186,270 L177,275 L160,281 L147,285 L133,288 L125,289 L106,289 L89,287 L71,282 L63,278 L63,276 L58,275 L47,267 L37,258 L32,253 L25,243 L22,238 L19,231 L15,221 L12,208 L0,203 L-7,198 L-7,196 L-11,194 L-19,184 L-24,174 L-27,162 L-28,145 L-25,130 L-20,119 L-13,108 L-9,99 L-2,89 L7,80 L18,63 L22,51 L23,44 L23,35 L21,27 L18,22 L16,21 L16,19 L12,18 L3,18 L-2,21 L-2,29 L3,37 L5,41 L1,42 L-7,41 L-13,37 L-16,32 L-18,27 L-18,16 L-12,7 L-5,2 Z " fill="#FDAFB7" transform="translate(119,345)" inkstitch:fill_underlay="True" inkstitch:row_spacing_mm="0.4" inkstitch:pull_compensation_mm="0.2" inkstitch:trim_after="True" inkstitch:fill_method="contour_fill"/>
  </g>
</svg>