<svg xmlns="http://www.w3.org/2000/svg" xmlns:inkscape="http://www.inkscape.org/namespaces/inkscape" xmlns:inkstitch="http://inkstitch.org/namespace" version="1.1" width="200.0mm" height="72.91mm" viewBox="0 0 1015 370">
  <metadata>
    <inkstitch:inkstitch_svg_version>3</inkstitch:inkstitch_svg_version>
  </metadata>
  <g id="color0_1220" inkscape:label="1220 Apricot">
    <path id="c0_0" d="M0,0 L5,0 L15,8 L15,10 L18,11 L25,21 L26,23 L32,21 L40,17 L54,14 L71,14 L72,18 L66,26 L64,34 L63,50 L70,47 L82,46 L91,47 L103,52 L103,54 L107,55 L110,57 L109,61 L98,64 L90,70 L81,85 L78,94 L94,94 L104,97 L113,103 L117,107 L117,109 L119,109 L123,118 L124,127 L120,128 L115,125 L103,125 L90,129 L72,137 L62,140 L61,141 L66,145 L70,152 L72,162 L71,172 L68,179 L64,179 L60,173 L53,169 L43,167 L32,166 L18,159 L15,156 L16,162 L23,175 L32,186 L39,192 L47,194 L56,194 L67,190 L75,184 L81,177 L86,166 L88,157 L93,158 L98,166 L99,171 L100,171 L99,163 L95,154 L96,151 L102,150 L111,154 L114,159 L116,163 L126,165 L129,168 L130,177 L126,185 L121,190 L114,196 L97,204 L80,208 L62,208 L74,211 L94,211 L108,208 L121,201 L132,192 L136,181 L137,170 L135,160 L130,150 L122,144 L125,139 L128,138 L135,138 L134,136 L134,125 L138,124 L141,125 L141,127 L145,128 L149,133 L152,134 L152,132 L157,133 L159,134 L164,104 L168,92 L170,87 L162,87 L150,82 L143,79 L136,79 L129,80 L129,72 L134,64 L144,59 L152,58 L151,55 L150,36 L145,30 L146,27 L151,26 L160,26 L166,29 L169,32 L172,27 L172,19 L171,13 L176,12 L185,15 L185,17 L190,19 L190,21 L195,22 L197,18 L202,11 L206,12 L210,18 L213,27 L213,30 L216,29 L223,29 L231,32 L231,34 L235,35 L236,39 L228,43 L227,44 L240,48 L240,50 L242,50 L242,52 L244,52 L244,54 L246,54 L248,58 L247,60 L237,62 L231,67 L224,75 L231,78 L234,80 L234,82 L236,82 L240,90 L241,96 L240,102 L236,101 L230,98 L223,98 L218,99 L211,99 L202,96 L202,103 L198,111 L195,112 L193,116 L184,120 L180,121 L178,120 L180,116 L181,114 L181,107 L177,98 L173,112 L166,150 L163,163 L173,156 L189,148 L203,144 L216,142 L228,136 L236,129 L241,119 L243,108 L246,104 L249,104 L249,102 L256,101 L261,103 L261,105 L263,105 L265,109 L265,114 L269,112 L273,115 L274,124 L269,134 L272,134 L278,129 L284,118 L286,111 L286,100 L281,90 L276,86 L272,84 L259,83 L259,78 L261,74 L263,74 L265,70 L269,68 L278,68 L286,71 L287,67 L292,66 L298,69 L303,74 L307,80 L306,67 L302,56 L296,48 L289,43 L286,42 L273,42 L270,55 L264,57 L261,56 L261,54 L257,53 L257,43 L260,37 L265,32 L273,28 L276,27 L284,27 L294,30 L302,35 L305,37 L305,39 L307,39 L314,50 L318,60 L320,78 L318,92 L313,105 L313,107 L321,100 L323,100 L323,98 L325,98 L327,94 L334,86 L343,73 L345,68 L340,63 L336,53 L338,41 L342,33 L344,33 L346,29 L350,26 L354,19 L359,16 L364,17 L367,22 L370,21 L370,19 L373,20 L374,22 L374,28 L377,29 L378,31 L379,40 L381,43 L382,53 L378,63 L370,70 L363,72 L355,73 L346,87 L338,97 L352,93 L372,91 L380,86 L388,78 L392,73 L399,72 L402,73 L404,79 L409,80 L408,87 L404,93 L399,96 L411,101 L428,109 L447,109 L468,112 L473,117 L472,122 L470,124 L475,131 L475,135 L472,136 L472,141 L467,143 L460,140 L455,138 L455,140 L450,141 L440,136 L437,133 L433,140 L425,141 L422,137 L422,120 L418,116 L406,110 L402,110 L409,118 L414,129 L415,133 L415,148 L411,159 L405,168 L398,175 L388,180 L380,182 L372,182 L363,180 L353,174 L346,165 L343,154 L345,141 L350,134 L356,131 L364,131 L367,134 L369,140 L367,144 L363,145 L361,151 L362,159 L367,165 L372,167 L380,167 L390,162 L397,153 L393,155 L385,154 L384,151 L385,145 L392,139 L395,131 L395,121 L391,115 L389,114 L389,122 L386,127 L379,128 L376,117 L372,112 L361,107 L352,106 L336,111 L315,121 L307,128 L291,138 L274,146 L259,150 L248,152 L262,157 L275,164 L280,165 L287,165 L286,151 L288,148 L292,148 L293,145 L302,147 L305,149 L307,145 L311,142 L317,140 L320,140 L325,135 L330,130 L333,126 L335,126 L336,130 L334,144 L329,156 L323,164 L314,172 L302,178 L299,179 L285,179 L272,175 L282,189 L282,191 L288,190 L296,190 L303,193 L309,201 L310,207 L305,210 L304,211 L308,218 L308,221 L303,222 L295,220 L290,218 L291,220 L291,228 L288,229 L279,226 L272,218 L270,209 L264,210 L263,208 L263,202 L267,195 L265,184 L258,176 L256,172 L252,170 L241,162 L240,163 L244,168 L247,179 L245,186 L244,188 L240,187 L238,185 L232,194 L224,196 L221,194 L220,191 L220,174 L217,168 L217,166 L213,164 L206,160 L199,159 L182,165 L171,172 L160,182 L171,177 L182,174 L192,174 L202,177 L210,183 L214,188 L218,198 L218,208 L215,218 L207,225 L201,227 L195,225 L191,221 L190,216 L194,215 L201,215 L203,212 L203,204 L199,198 L189,194 L171,194 L155,198 L139,205 L123,215 L108,221 L99,223 L93,224 L74,224 L58,220 L42,212 L31,203 L23,195 L23,193 L21,193 L13,182 L8,174 L3,161 L-2,173 L-9,185 L-15,193 L-17,193 L-19,197 L-28,206 L-41,215 L-49,219 L-62,223 L-68,224 L-87,224 L-98,222 L-116,216 L-127,209 L-137,203 L-156,196 L-165,194 L-183,194 L-193,198 L-197,204 L-198,209 L-196,214 L-195,215 L-185,215 L-184,218 L-187,224 L-196,227 L-206,222 L-210,216 L-212,210 L-212,197 L-208,187 L-201,180 L-191,175 L-186,174 L-176,174 L-161,179 L-155,182 L-160,177 L-168,170 L-184,162 L-193,159 L-202,161 L-211,167 L-214,173 L-214,191 L-216,195 L-219,196 L-226,194 L-230,189 L-232,185 L-235,188 L-238,188 L-238,186 L-240,186 L-241,183 L-241,176 L-237,166 L-233,162 L-238,164 L-250,173 L-257,181 L-260,186 L-261,199 L-259,199 L-257,205 L-259,210 L-262,211 L-262,209 L-264,210 L-267,220 L-275,227 L-284,229 L-286,224 L-285,218 L-292,221 L-302,221 L-301,216 L-297,209 L-303,209 L-304,205 L-301,198 L-297,193 L-289,190 L-280,190 L-276,191 L-274,186 L-266,175 L-280,179 L-293,179 L-305,174 L-314,167 L-323,157 L-328,145 L-330,131 L-329,126 L-326,126 L-322,133 L-313,141 L-309,140 L-301,145 L-297,149 L-297,147 L-288,145 L-282,148 L-280,152 L-281,165 L-274,165 L-263,161 L-252,155 L-243,152 L-262,148 L-277,142 L-294,133 L-306,124 L-316,118 L-333,110 L-346,106 L-355,107 L-367,113 L-371,119 L-373,128 L-380,127 L-383,124 L-383,113 L-388,118 L-389,121 L-389,132 L-385,141 L-380,144 L-378,152 L-379,154 L-387,155 L-391,154 L-384,162 L-374,167 L-366,167 L-359,163 L-356,159 L-355,152 L-357,147 L-362,143 L-363,138 L-362,134 L-357,131 L-350,131 L-342,136 L-338,145 L-338,159 L-343,169 L-348,175 L-358,180 L-365,182 L-374,182 L-387,178 L-393,174 L-401,166 L-408,152 L-410,139 L-408,128 L-401,115 L-395,109 L-405,112 L-415,118 L-416,119 L-416,136 L-417,139 L-419,139 L-419,141 L-427,140 L-427,138 L-429,138 L-431,133 L-439,139 L-445,141 L-452,139 L-457,142 L-465,142 L-467,135 L-469,134 L-468,129 L-467,126 L-464,124 L-468,120 L-468,117 L-466,117 L-464,113 L-451,110 L-442,109 L-421,109 L-405,101 L-394,97 L-399,92 L-402,87 L-403,80 L-397,78 L-397,73 L-390,71 L-384,75 L-377,84 L-368,90 L-366,91 L-348,93 L-336,96 L-332,98 L-344,82 L-349,74 L-349,72 L-357,72 L-366,69 L-373,62 L-376,52 L-375,44 L-373,40 L-372,30 L-369,27 L-368,20 L-364,19 L-364,21 L-361,21 L-360,18 L-355,15 L-347,20 L-344,26 L-338,31 L-332,41 L-331,44 L-331,57 L-334,63 L-336,63 L-338,67 L-339,70 L-328,86 L-319,96 L-314,102 L-306,108 L-308,103 L-312,92 L-314,81 L-314,71 L-312,60 L-308,50 L-302,40 L-299,37 L-297,37 L-297,35 L-286,29 L-276,27 L-267,28 L-259,32 L-252,40 L-251,43 L-251,53 L-255,54 L-255,56 L-264,55 L-266,50 L-268,43 L-270,42 L-281,42 L-289,47 L-295,54 L-299,62 L-301,71 L-301,80 L-295,71 L-289,67 L-285,66 L-280,68 L-280,70 L-272,68 L-263,68 L-259,70 L-259,72 L-257,72 L-257,74 L-255,74 L-253,80 L-253,83 L-265,84 L-273,88 L-278,94 L-280,100 L-280,112 L-276,123 L-270,131 L-270,133 L-262,135 L-267,128 L-268,118 L-266,113 L-262,112 L-262,114 L-259,114 L-258,107 L-257,105 L-255,105 L-255,103 L-251,103 L-251,101 L-244,102 L-238,106 L-234,122 L-229,130 L-222,136 L-211,142 L-189,146 L-172,153 L-157,163 L-163,136 L-169,105 L-170,97 L-172,97 L-173,103 L-175,107 L-175,114 L-172,120 L-179,120 L-187,116 L-189,112 L-193,110 L-196,103 L-196,96 L-205,99 L-212,99 L-217,98 L-224,98 L-232,102 L-235,101 L-235,93 L-232,84 L-230,84 L-228,80 L-224,77 L-218,76 L-227,65 L-233,61 L-241,60 L-242,58 L-240,54 L-238,54 L-236,50 L-227,45 L-221,44 L-225,41 L-230,39 L-229,35 L-222,31 L-217,29 L-210,29 L-207,30 L-206,23 L-200,11 L-198,10 L-194,14 L-192,19 L-189,20 L-186,23 L-186,21 L-184,21 L-184,19 L-182,19 L-182,17 L-174,13 L-166,12 L-164,15 L-166,19 L-166,27 L-164,32 L-157,27 L-151,26 L-143,26 L-139,28 L-141,32 L-144,36 L-145,53 L-146,58 L-135,60 L-126,66 L-123,74 L-123,80 L-138,79 L-153,86 L-162,87 L-165,86 L-159,101 L-155,122 L-153,134 L-150,132 L-143,133 L-138,127 L-135,127 L-135,125 L-130,124 L-128,128 L-128,135 L-129,138 L-126,137 L-119,139 L-117,142 L-118,146 L-125,151 L-130,162 L-131,168 L-131,176 L-128,188 L-125,193 L-114,202 L-99,209 L-89,211 L-68,211 L-56,208 L-74,208 L-91,204 L-110,195 L-114,192 L-114,190 L-117,189 L-123,180 L-125,173 L-122,167 L-119,164 L-110,163 L-106,155 L-102,152 L-95,150 L-89,152 L-91,158 L-94,165 L-94,172 L-91,164 L-90,161 L-88,161 L-87,157 L-84,156 L-82,157 L-79,169 L-73,180 L-65,188 L-57,192 L-50,194 L-41,194 L-31,191 L-20,179 L-12,166 L-9,159 L-9,156 L-19,163 L-27,166 L-44,168 L-54,173 L-57,174 L-59,179 L-63,179 L-65,175 L-66,169 L-66,157 L-62,147 L-56,141 L-66,137 L-78,132 L-90,127 L-98,125 L-109,125 L-115,128 L-118,127 L-118,120 L-114,110 L-109,104 L-107,104 L-107,102 L-103,101 L-103,99 L-93,95 L-89,94 L-73,94 L-76,84 L-85,70 L-92,64 L-104,61 L-103,56 L-96,51 L-86,47 L-81,46 L-70,46 L-59,49 L-59,30 L-64,20 L-67,17 L-66,14 L-47,14 L-30,19 L-20,24 L-18,19 L-10,9 L-7,6 L-5,6 L-4,3 L-2,3 L-2,1 Z " fill="#FFBE66" transform="translate(498, 105)"/>
    <g id="centerline_group_9073" inkscape:label="c0_0 center line"><path id="c0_0_7516" d="M 36.192 171.007 L 34.6366 169.781 L 32.2525 168.234 L 29.9782 167.162 L 28.8518 166.798" style="fill:none;stroke:black;stroke-width:3.779527559055118" transform="scale(1.34276, 1.34276)"/><path id="c0_0_7546" d="M 710.627 170.733 L 713.577 168.453 L 716.803 166.813" style="fill:none;stroke:black;stroke-width:3.779527559055118" transform="scale(1.34276, 1.34276)"/><path id="c0_0_5372" d="M 720.211 182.972 L 717.531 178.908 L 716.294 176.093 L 713.999 174.253 L 710.627 170.733" style="fill:none;stroke:black;stroke-width:3.779527559055118" transform="scale(1.34276, 1.34276)"/><path id="c0_0_1178" d="M 705.68 170.75 L 708.291 170.591 L 710.627 170.733" style="fill:none;stroke:black;stroke-width:3.779527559055118" transform="scale(1.34276, 1.34276)"/><path id="c0_0_3334" d="M 707.685 181.9 L 706.508 179.505 L 706.031 177.779 L 705.65 174.273 L 705.68 170.75" style="fill:none;stroke:black;stroke-width:3.779527559055118" transform="scale(1.34276, 1.34276)"/><path id="c0_0_5862" d="M 694.219 168.431 L 697.01 168.316 L 699.969 168.674 L 702.927 169.522 L 705.68 170.75" style="fill:none;stroke:black;stroke-width:3.779527559055118" transform="scale(1.34276, 1.34276)"/><path id="c0_0_757" d="M 690.205 177.746 L 691.589 172.866 L 692.512 170.938 L 694.219 168.431" style="fill:none;stroke:black;stroke-width:3.779527559055118" transform="scale(1.34276, 1.34276)"/><path id="c0_0_1117" d="M 665.457 141.933 L 665.654 139.524 L 666.509 133.657" style="fill:none;stroke:black;stroke-width:3.779527559055118" transform="scale(1.34276, 1.34276)"/><path id="c0_0_7464" d="M 665.457 141.933 L 666.644 142.12" style="fill:none;stroke:black;stroke-width:3.779527559055118" transform="scale(1.34276, 1.34276)"/><path id="c0_0_8989" d="M 694.219 168.431 L 691.094 165.607 L 688.16 163.888 L 684.778 161.543 L 674.292 156.444 L 670.383 155.571 L 668.336 155.357 L 666.118 155.553 L 663.715 156.068" style="fill:none;stroke:black;stroke-width:3.779527559055118" transform="scale(1.34276, 1.34276)"/><path id="c0_0_4827" d="M 671.137 184.622 L 672.23 178.603 L 672.29 177.485 L 672.114 175.804 L 670.687 169.167 L 669.569 166.656 L 666.201 162.013 L 664.923 159.415 L 663.715 156.068" style="fill:none;stroke:black;stroke-width:3.779527559055118" transform="scale(1.34276, 1.34276)"/><path id="c0_0_4742" d="M 661.99 188.656 L 662.679 188.447 L 664.427 187.281 L 666.465 186.266 L 671.137 184.622" style="fill:none;stroke:black;stroke-width:3.779527559055118" transform="scale(1.34276, 1.34276)"/><path id="c0_0_4772" d="M 657.611 152.677 L 658.608 150.401 L 660.07 147.647 L 661.186 145.943 L 663.205 143.733 L 665.457 141.933" style="fill:none;stroke:black;stroke-width:3.779527559055118" transform="scale(1.34276, 1.34276)"/><path id="c0_0_9623" d="M 663.715 156.068 L 657.611 152.677" style="fill:none;stroke:black;stroke-width:3.779527559055118" transform="scale(1.34276, 1.34276)"/><path id="c0_0_8764" d="M 655.199 153.94 L 657.611 152.677" style="fill:none;stroke:black;stroke-width:3.779527559055118" transform="scale(1.34276, 1.34276)"/><path id="c0_0_7346" d="M 656.157 167.849 L 654.869 159.638 L 654.886 157.074 L 655.199 153.94" style="fill:none;stroke:black;stroke-width:3.779527559055118" transform="scale(1.34276, 1.34276)"/><path id="c0_0_3824" d="M 639.891 104.878 L 645.291 98.578 L 647.342 95.7484 L 647.773 94.5746 L 647.709 94.11 L 647.235 93.3568" style="fill:none;stroke:black;stroke-width:3.779527559055118" transform="scale(1.34276, 1.34276)"/><path id="c0_0_9909" d="M 639.637 108.29 L 644.099 106.038 L 646.126 104.811 L 649.244 102.462 L 650.926 100.701" style="fill:none;stroke:black;stroke-width:3.779527559055118" transform="scale(1.34276, 1.34276)"/><path id="c0_0_602" d="M 639.637 108.29 L 639.891 104.878" style="fill:none;stroke:black;stroke-width:3.779527559055118" transform="scale(1.34276, 1.34276)"/><path id="c0_0_2534" d="M 639.6 181.094 L 637.419 181.654 L 636.35 182.431 L 635.709 183.03 L 634.235 185.799 L 633.422 189.359 L 633.179 192.515 L 634.346 198.163 L 635.718 200.406 L 637.923 203.126 L 640.384 205.168 L 642.054 206.247 L 643.364 206.886 L 647.862 208.089 L 653.258 208.151 L 656.143 207.549 L 657.872 206.899 L 663.903 203.883 L 665.582 202.366 L 668.038 199.612 L 671.032 195.466 L 671.897 193.994 L 672.17 193.124 L 672.52 191.137 L 672.431 187.935 L 672.08 186.544 L 671.137 184.622" style="fill:none;stroke:black;stroke-width:3.779527559055118" transform="scale(1.34276, 1.34276)"/><path id="c0_0_9955" d="M 639.471 115.419 L 646.775 113.051 L 651.737 111.166" style="fill:none;stroke:black;stroke-width:3.779527559055118" transform="scale(1.34276, 1.34276)"/><path id="c0_0_5338" d="M 653.107 117.305 L 639.471 115.419" style="fill:none;stroke:black;stroke-width:3.779527559055118" transform="scale(1.34276, 1.34276)"/><path id="c0_0_6747" d="M 639.399 108.839 L 639.637 108.29" style="fill:none;stroke:black;stroke-width:3.779527559055118" transform="scale(1.34276, 1.34276)"/><path id="c0_0_6586" d="M 638.741 115.453 L 639.471 115.419" style="fill:none;stroke:black;stroke-width:3.779527559055118" transform="scale(1.34276, 1.34276)"/><path id="c0_0_1997" d="M 649.881 123.238 L 648.595 122.479 L 638.741 115.453" style="fill:none;stroke:black;stroke-width:3.779527559055118" transform="scale(1.34276, 1.34276)"/><path id="c0_0_3876" d="M 639.891 104.878 L 638.924 100.357 L 638.707 96.454" style="fill:none;stroke:black;stroke-width:3.779527559055118" transform="scale(1.34276, 1.34276)"/><path id="c0_0_7835" d="M 638.322 115.367 L 638.741 115.453" style="fill:none;stroke:black;stroke-width:3.779527559055118" transform="scale(1.34276, 1.34276)"/><path id="c0_0_1068" d="M 638.304 115.4 L 638.322 115.367" style="fill:none;stroke:black;stroke-width:3.779527559055118" transform="scale(1.34276, 1.34276)"/><path id="c0_0_3818" d="M 644.399 126.64 L 638.304 115.4" style="fill:none;stroke:black;stroke-width:3.779527559055118" transform="scale(1.34276, 1.34276)"/><path id="c0_0_4937" d="M 638.251 114.835 L 639.399 108.839" style="fill:none;stroke:black;stroke-width:3.779527559055118" transform="scale(1.34276, 1.34276)"/><path id="c0_0_6655" d="M 638.322 115.367 L 638.251 114.835" style="fill:none;stroke:black;stroke-width:3.779527559055118" transform="scale(1.34276, 1.34276)"/><path id="c0_0_5167" d="M 637.948 115.792 L 638.304 115.4" style="fill:none;stroke:black;stroke-width:3.779527559055118" transform="scale(1.34276, 1.34276)"/><path id="c0_0_8617" d="M 639.896 125.38 L 637.948 115.792" style="fill:none;stroke:black;stroke-width:3.779527559055118" transform="scale(1.34276, 1.34276)"/><path id="c0_0_4895" d="M 637.898 115.842 L 637.948 115.792" style="fill:none;stroke:black;stroke-width:3.779527559055118" transform="scale(1.34276, 1.34276)"/><path id="c0_0_7661" d="M 637.744 116.109 L 637.898 115.842" style="fill:none;stroke:black;stroke-width:3.779527559055118" transform="scale(1.34276, 1.34276)"/><path id="c0_0_1040" d="M 638.251 114.835 L 634.219 112.517" style="fill:none;stroke:black;stroke-width:3.779527559055118" transform="scale(1.34276, 1.34276)"/><path id="c0_0_5235" d="M 631.111 102.024 L 639.399 108.839" style="fill:none;stroke:black;stroke-width:3.779527559055118" transform="scale(1.34276, 1.34276)"/><path id="c0_0_2782" d="M 627.912 122.624 L 637.744 116.109" style="fill:none;stroke:black;stroke-width:3.779527559055118" transform="scale(1.34276, 1.34276)"/><path id="c0_0_819" d="M 626.085 109.916 L 634.219 112.517" style="fill:none;stroke:black;stroke-width:3.779527559055118" transform="scale(1.34276, 1.34276)"/><path id="c0_0_2213" d="M 634.219 112.517 L 630.088 108.813 L 628.204 106.79 L 625.949 103.5" style="fill:none;stroke:black;stroke-width:3.779527559055118" transform="scale(1.34276, 1.34276)"/><path id="c0_0_4155" d="M 623.508 117.327 L 625.472 117.246 L 637.898 115.842" style="fill:none;stroke:black;stroke-width:3.779527559055118" transform="scale(1.34276, 1.34276)"/><path id="c0_0_5380" d="M 618.088 155.109 L 617.951 152.084 L 618.139 150.718 L 618.718 149.348 L 619.235 148.517 L 622.49 144.605 L 625.375 140.752 L 629.67 134.303 L 634.73 124.31 L 636.26 120.446 L 637.744 116.109" style="fill:none;stroke:black;stroke-width:3.779527559055118" transform="scale(1.34276, 1.34276)"/><path id="c0_0_7196" d="M 618.088 155.109 L 620.571 155.419 L 622.626 155.309 L 632.021 152.592 L 633.903 152.299 L 641.147 152.393 L 649.153 153.623 L 655.199 153.94" style="fill:none;stroke:black;stroke-width:3.779527559055118" transform="scale(1.34276, 1.34276)"/><path id="c0_0_6159" d="M 595.082 199.311 L 597.125 199.029 L 599.431 198.444 L 602.217 196.837 L 603.777 195.599 L 604.976 194.412 L 606.672 191.891 L 609.86 189.783 L 612.288 187.565 L 614.683 184.138 L 618.265 177.023 L 619.142 174.893 L 619.619 172.772" style="fill:none;stroke:black;stroke-width:3.779527559055118" transform="scale(1.34276, 1.34276)"/><path id="c0_0_659" d="M 594.514 163.363 L 593.982 159.47 L 593.923 156.507 L 594.615 148.334" style="fill:none;stroke:black;stroke-width:3.779527559055118" transform="scale(1.34276, 1.34276)"/><path id="c0_0_2925" d="M 594.514 163.363 L 596.745 163.66 L 599.473 163.75 L 603.581 163.263 L 605.542 162.697 L 607.313 161.779 L 612.225 158.541 L 613.32 158.161 L 615.095 157.25 L 618.088 155.109" style="fill:none;stroke:black;stroke-width:3.779527559055118" transform="scale(1.34276, 1.34276)"/><path id="c0_0_1926" d="M 595.082 199.311 L 593.522 197.158 L 592.612 195.612" style="fill:none;stroke:black;stroke-width:3.779527559055118" transform="scale(1.34276, 1.34276)"/><path id="c0_0_6584" d="M 592.612 195.612 L 592.567 194.691 L 592.079 192.493 L 591.506 190.674 L 589.454 186.72" style="fill:none;stroke:black;stroke-width:3.779527559055118" transform="scale(1.34276, 1.34276)"/><path id="c0_0_8823" d="M 588.777 139.946 L 589.022 138.102 L 589.031 134.831" style="fill:none;stroke:black;stroke-width:3.779527559055118" transform="scale(1.34276, 1.34276)"/><path id="c0_0_9864" d="M 594.615 148.334 L 592.015 145.275 L 588.777 139.946" style="fill:none;stroke:black;stroke-width:3.779527559055118" transform="scale(1.34276, 1.34276)"/><path id="c0_0_4910" d="M 599.591 230.496 L 594.298 229.49 L 590.834 229.182 L 589.287 229.553 L 588.172 230.159" style="fill:none;stroke:black;stroke-width:3.779527559055118" transform="scale(1.34276, 1.34276)"/><path id="c0_0_3217" d="M 598.093 241.521 L 592.087 236.847 L 590.045 233.905 L 588.172 230.159" style="fill:none;stroke:black;stroke-width:3.779527559055118" transform="scale(1.34276, 1.34276)"/><path id="c0_0_5670" d="M 585.706 190.236 L 589.48 193.694 L 592.612 195.612" style="fill:none;stroke:black;stroke-width:3.779527559055118" transform="scale(1.34276, 1.34276)"/><path id="c0_0_3398" d="M 588.172 230.159 L 585.986 230.155 L 582.196 230.992" style="fill:none;stroke:black;stroke-width:3.779527559055118" transform="scale(1.34276, 1.34276)"/><path id="c0_0_682" d="M 582.981 243.096 L 581.578 241.685 L 580.821 239.776 L 580.282 237.085 L 580.876 234.343 L 582.196 230.992" style="fill:none;stroke:black;stroke-width:3.779527559055118" transform="scale(1.34276, 1.34276)"/><path id="c0_0_4124" d="M 582.196 230.992 L 576.753 227.363" style="fill:none;stroke:black;stroke-width:3.779527559055118" transform="scale(1.34276, 1.34276)"/><path id="c0_0_1015" d="M 568.536 116.069 L 567.699 113.569 L 567.926 111.557 L 568.894 108.86 L 569.901 107.195 L 571.038 105.927 L 572.501 105.104 L 574.394 104.494 L 577.316 103.891 L 581.997 103.943 L 584.929 104.44 L 587.644 105.276 L 592.98 108.687 L 594.239 110.221 L 596.525 112.235 L 600.238 117.713 L 602.743 124.165 L 603.497 127.97 L 604.277 136.2 L 604.244 137.629 L 603.926 139.589 L 603.192 141.489 L 601.31 144.228 L 600.696 144.877 L 599.154 146.013 L 596.938 147.287 L 594.615 148.334" style="fill:none;stroke:black;stroke-width:3.779527559055118" transform="scale(1.34276, 1.34276)"/><path id="c0_0_3783" d="M 568.427 231.594 L 572.081 229.004 L 574.347 228.006 L 576.753 227.363" style="fill:none;stroke:black;stroke-width:3.779527559055118" transform="scale(1.34276, 1.34276)"/><path id="c0_0_9033" d="M 568.147 204.107 L 570.228 203.835 L 572.392 203.911 L 580.032 205.718 L 583.871 206.289 L 586.43 206.145 L 589.413 205.2 L 592.235 203.513 L 593.862 201.394 L 595.082 199.311" style="fill:none;stroke:black;stroke-width:3.779527559055118" transform="scale(1.34276, 1.34276)"/><path id="c0_0_6903" d="M 576.753 227.363 L 575.548 223.048 L 575.122 220.805 L 572.872 215.472 L 571.541 212.857 L 569.653 210.442 L 568.719 208.644 L 568.04 205.855 L 568.147 204.107" style="fill:none;stroke:black;stroke-width:3.779527559055118" transform="scale(1.34276, 1.34276)"/><path id="c0_0_6564" d="M 567.459 136.775 L 569.478 136.365 L 572.637 134.763 L 574.894 134.892 L 576.74 135.242 L 583.563 138.481 L 588.777 139.946" style="fill:none;stroke:black;stroke-width:3.779527559055118" transform="scale(1.34276, 1.34276)"/><path id="c0_0_6851" d="M 560.821 172.324 L 564.901 171.151 L 567.144 170.166 L 568.474 169.389" style="fill:none;stroke:black;stroke-width:3.779527559055118" transform="scale(1.34276, 1.34276)"/><path id="c0_0_686" d="M 560.821 172.324 L 559.917 167.924 L 559.628 164.848 L 559.668 163.543 L 560.234 162.636 L 560.538 158.984" style="fill:none;stroke:black;stroke-width:3.779527559055118" transform="scale(1.34276, 1.34276)"/><path id="c0_0_1217" d="M 558.695 178.116 L 559.568 175.167 L 560.821 172.324" style="fill:none;stroke:black;stroke-width:3.779527559055118" transform="scale(1.34276, 1.34276)"/><path id="c0_0_7056" d="M 558.695 178.116 L 561.087 179.929 L 562.521 180.801 L 564.883 181.918 L 567.138 182.635 L 570.32 182.96 L 573.277 182.612 L 574.456 182.272 L 576.248 181.397 L 581.345 178.18 L 583.71 176.18 L 590.275 169.231 L 593.336 165.228 L 594.514 163.363" style="fill:none;stroke:black;stroke-width:3.779527559055118" transform="scale(1.34276, 1.34276)"/><path id="c0_0_97" d="M 544.907 189.479 L 547.692 186.009 L 549.837 183.944 L 551.439 182.764 L 556.041 180.045 L 558.695 178.116" style="fill:none;stroke:black;stroke-width:3.779527559055118" transform="scale(1.34276, 1.34276)"/><path id="c0_0_8934" d="M 568.147 204.107 L 566.522 202.528 L 564.925 201.4 L 553.435 195.449 L 544.907 189.479" style="fill:none;stroke:black;stroke-width:3.779527559055118" transform="scale(1.34276, 1.34276)"/><path id="c0_0_2090" d="M 552.239 214.542 L 549.831 211.472 L 548.479 210.186 L 546.356 208.728 L 544.045 207.573" style="fill:none;stroke:black;stroke-width:3.779527559055118" transform="scale(1.34276, 1.34276)"/><path id="c0_0_1422" d="M 540.029 192.883 L 542.931 190.681 L 544.907 189.479" style="fill:none;stroke:black;stroke-width:3.779527559055118" transform="scale(1.34276, 1.34276)"/><path id="c0_0_1660" d="M 544.045 207.573 L 541.119 201.242 L 540.029 192.883" style="fill:none;stroke:black;stroke-width:3.779527559055118" transform="scale(1.34276, 1.34276)"/><path id="c0_0_55" d="M 538.647 219.874 L 540.241 217.84 L 542.184 211.424 L 542.983 209.486 L 544.045 207.573" style="fill:none;stroke:black;stroke-width:3.779527559055118" transform="scale(1.34276, 1.34276)"/><path id="c0_0_9718" d="M 544.339 138.148 L 540.878 140.149 L 537.893 143.022" style="fill:none;stroke:black;stroke-width:3.779527559055118" transform="scale(1.34276, 1.34276)"/><path id="c0_0_2089" d="M 549.251 153.601 L 547.44 150.844 L 546.685 149.405 L 544.367 146.426 L 542.441 144.959 L 539.969 144.109 L 537.893 143.022" style="fill:none;stroke:black;stroke-width:3.779527559055118" transform="scale(1.34276, 1.34276)"/><path id="c0_0_485" d="M 519.802 120.669 L 533.014 107.517 L 535.775 106.145 L 538.344 105.74" style="fill:none;stroke:black;stroke-width:3.779527559055118" transform="scale(1.34276, 1.34276)"/><path id="c0_0_79" d="M 552.582 120.849 L 550.953 120.77 L 547.021 119.516 L 544.383 118.897 L 536.575 120.389 L 531.045 121.146 L 526.707 121.215 L 519.802 120.669" style="fill:none;stroke:black;stroke-width:3.779527559055118" transform="scale(1.34276, 1.34276)"/><path id="c0_0_4723" d="M 537.893 143.022 L 532.27 142.17 L 529.73 141.213 L 528.957 140.685 L 525.748 137.935 L 514.945 126.618" style="fill:none;stroke:black;stroke-width:3.779527559055118" transform="scale(1.34276, 1.34276)"/><path id="c0_0_5127" d="M 514.067 122.071 L 519.802 120.669" style="fill:none;stroke:black;stroke-width:3.779527559055118" transform="scale(1.34276, 1.34276)"/><path id="c0_0_9462" d="M 513.964 122.202 L 514.067 122.071" style="fill:none;stroke:black;stroke-width:3.779527559055118" transform="scale(1.34276, 1.34276)"/><path id="c0_0_6624" d="M 514.945 126.618 L 513.964 122.202" style="fill:none;stroke:black;stroke-width:3.779527559055118" transform="scale(1.34276, 1.34276)"/><path id="c0_0_9855" d="M 513.866 117.668 L 521.902 99.4983 L 522.442 94.001 L 522.461 87.8149" style="fill:none;stroke:black;stroke-width:3.779527559055118" transform="scale(1.34276, 1.34276)"/><path id="c0_0_8937" d="M 514.067 122.071 L 513.866 117.668" style="fill:none;stroke:black;stroke-width:3.779527559055118" transform="scale(1.34276, 1.34276)"/><path id="c0_0_7702" d="M 511.172 140.032 L 514.945 126.618" style="fill:none;stroke:black;stroke-width:3.779527559055118" transform="scale(1.34276, 1.34276)"/><path id="c0_0_7093" d="M 506.657 122.335 L 513.964 122.202" style="fill:none;stroke:black;stroke-width:3.779527559055118" transform="scale(1.34276, 1.34276)"/><path id="c0_0_8916" d="M 504.105 93.2846 L 504.789 95.2347 L 506.232 97.7015 L 508.626 104.892 L 511.98 112.764 L 513.866 117.668" style="fill:none;stroke:black;stroke-width:3.779527559055118" transform="scale(1.34276, 1.34276)"/><path id="c0_0_347" d="M 504.099 167.351 L 505.083 167.015 L 507.462 165.09 L 508.224 164.357 L 509.595 162.547 L 510.823 160.64 L 511.262 158.826 L 512.744 154.594 L 512.789 152.896 L 511.784 147.675 L 511.172 140.032" style="fill:none;stroke:black;stroke-width:3.779527559055118" transform="scale(1.34276, 1.34276)"/><path id="c0_0_1119" d="M 506.657 122.335 L 497.647 116.444" style="fill:none;stroke:black;stroke-width:3.779527559055118" transform="scale(1.34276, 1.34276)"/><path id="c0_0_2466" d="M 494.154 129.842 L 496.986 128.338 L 506.657 122.335" style="fill:none;stroke:black;stroke-width:3.779527559055118" transform="scale(1.34276, 1.34276)"/><path id="c0_0_7996" d="M 492.021 140.506 L 494.154 129.842" style="fill:none;stroke:black;stroke-width:3.779527559055118" transform="scale(1.34276, 1.34276)"/><path id="c0_0_2506" d="M 489.594 118.024 L 497.647 116.444" style="fill:none;stroke:black;stroke-width:3.779527559055118" transform="scale(1.34276, 1.34276)"/><path id="c0_0_7109" d="M 486.684 185.991 L 487.935 185.195 L 489.99 183.558 L 491.515 181.824 L 492.51 179.991 L 492.808 179.038 L 495.987 160.82 L 496.846 157.009 L 498.931 150.146 L 499.718 148.381 L 500.838 146.957 L 502.528 145.533 L 511.172 140.032" style="fill:none;stroke:black;stroke-width:3.779527559055118" transform="scale(1.34276, 1.34276)"/><path id="c0_0_9816" d="M 486.684 185.991 L 486.684 182.187 L 486.508 180.577 L 485.913 178.912 L 484.466 176.874" style="fill:none;stroke:black;stroke-width:3.779527559055118" transform="scale(1.34276, 1.34276)"/><path id="c0_0_9757" d="M 483.446 205.432 L 486.044 205.647 L 488.667 205.57 L 492.042 204.841 L 493.921 203.945 L 501.808 198.535 L 504.67 196.922 L 513.481 193.187 L 517.643 191.862 L 520.606 191.411 L 525.893 191.234 L 533.707 192.538 L 540.029 192.883" style="fill:none;stroke:black;stroke-width:3.779527559055118" transform="scale(1.34276, 1.34276)"/><path id="c0_0_4053" d="M 481.704 190.175 L 484.506 188.134 L 486.684 185.991" style="fill:none;stroke:black;stroke-width:3.779527559055118" transform="scale(1.34276, 1.34276)"/><path id="c0_0_8055" d="M 483.446 205.432 L 482.507 201.815 L 482.187 199.844 L 482.07 193.675 L 481.704 190.175" style="fill:none;stroke:black;stroke-width:3.779527559055118" transform="scale(1.34276, 1.34276)"/><path id="c0_0_9566" d="M 480.965 217.346 L 481.043 214.031 L 481.508 210.555 L 482.429 207.633 L 483.446 205.432" style="fill:none;stroke:black;stroke-width:3.779527559055118" transform="scale(1.34276, 1.34276)"/><path id="c0_0_8146" d="M 518.253 242.277 L 520.564 242.67 L 522.872 241.956 L 523.717 241.244 L 526.356 238.218 L 526.674 237.766 L 527.036 236.446 L 527.653 232.085 L 527.569 229.091 L 527.229 227.095 L 524.407 221.612 L 522.355 219.515 L 517.793 216.926 L 514.112 215.634 L 512.368 215.249 L 507.418 215.224 L 500.431 216.159 L 496.507 217.137 L 491.122 218.969 L 489.13 219.233 L 485.971 218.948 L 480.965 217.346" style="fill:none;stroke:black;stroke-width:3.779527559055118" transform="scale(1.34276, 1.34276)"/><path id="c0_0_8661" d="M 497.647 116.444 L 495.661 114.545 L 493.27 111.754 L 491.473 108.931 L 490.068 105.867 L 488.582 103.694 L 486.878 102.508 L 483.941 101.084 L 479.996 99.6753" style="fill:none;stroke:black;stroke-width:3.779527559055118" transform="scale(1.34276, 1.34276)"/><path id="c0_0_3636" d="M 481.704 190.175 L 479.904 188.684" style="fill:none;stroke:black;stroke-width:3.779527559055118" transform="scale(1.34276, 1.34276)"/><path id="c0_0_8462" d="M 479.904 188.684 L 478.314 183.611 L 476.993 180.17 L 475.883 178.138 L 474.088 175.725 L 473.624 174.739 L 473.308 173.341" style="fill:none;stroke:black;stroke-width:3.779527559055118" transform="scale(1.34276, 1.34276)"/><path id="c0_0_42" d="M 468.111 134.846 L 475.061 130.722 L 477.392 130.173 L 480.405 129.783 L 485.533 130.503 L 488.604 130.635 L 490.828 130.462 L 494.154 129.842" style="fill:none;stroke:black;stroke-width:3.779527559055118" transform="scale(1.34276, 1.34276)"/><path id="c0_0_4589" d="M 463.648 184.167 L 466.95 184.682 L 470.92 186.034 L 474.55 187.488 L 477.447 188.271 L 479.904 188.684" style="fill:none;stroke:black;stroke-width:3.779527559055118" transform="scale(1.34276, 1.34276)"/><path id="c0_0_4796" d="M 455.135 210.219 L 456.29 209.869 L 459.116 208.479" style="fill:none;stroke:black;stroke-width:3.779527559055118" transform="scale(1.34276, 1.34276)"/><path id="c0_0_5016" d="M 449.233 162.102 L 451.727 160.637 L 456.933 158.256" style="fill:none;stroke:black;stroke-width:3.779527559055118" transform="scale(1.34276, 1.34276)"/><path id="c0_0_6062" d="M 458.21 167.282 L 455.094 164.976 L 452.39 164.015 L 449.233 162.102" style="fill:none;stroke:black;stroke-width:3.779527559055118" transform="scale(1.34276, 1.34276)"/><path id="c0_0_6801" d="M 455.135 210.219 L 452.138 204.227 L 450.558 199.421 L 449.655 197.255 L 446.334 193.927" style="fill:none;stroke:black;stroke-width:3.779527559055118" transform="scale(1.34276, 1.34276)"/><path id="c0_0_6954" d="M 441.106 217.405 L 445.586 216.673 L 447.529 216.124 L 449.942 215.149 L 452.709 213.008 L 453.802 211.919 L 455.135 210.219" style="fill:none;stroke:black;stroke-width:3.779527559055118" transform="scale(1.34276, 1.34276)"/><path id="c0_0_6960" d="M 441.106 217.405 L 439.446 212.212 L 439.008 209.824 L 438.919 207.594 L 439.349 203.597" style="fill:none;stroke:black;stroke-width:3.779527559055118" transform="scale(1.34276, 1.34276)"/><path id="c0_0_3950" d="M 449.233 162.102 L 446.776 161.376 L 443.583 160.764 L 439.042 160.772" style="fill:none;stroke:black;stroke-width:3.779527559055118" transform="scale(1.34276, 1.34276)"/><path id="c0_0_1466" d="M 439.042 160.772 L 440.378 151.835" style="fill:none;stroke:black;stroke-width:3.779527559055118" transform="scale(1.34276, 1.34276)"/><path id="c0_0_7108" d="M 426.082 125.576 L 428.455 124.121 L 431.258 122.693 L 436.601 121.148 L 440.23 120.694 L 442.783 120.67 L 444.913 121.428 L 445.968 121.608 L 449.506 121.594 L 451.738 121.964" style="fill:none;stroke:black;stroke-width:3.779527559055118" transform="scale(1.34276, 1.34276)"/><path id="c0_0_503" d="M 426.082 125.576 L 423.938 116.679" style="fill:none;stroke:black;stroke-width:3.779527559055118" transform="scale(1.34276, 1.34276)"/><path id="c0_0_7607" d="M 421.298 171.403 L 418.082 162.987" style="fill:none;stroke:black;stroke-width:3.779527559055118" transform="scale(1.34276, 1.34276)"/><path id="c0_0_7972" d="M 418.082 162.987 L 422.031 163.224 L 426.295 162.991 L 433.457 161.623 L 439.042 160.772" style="fill:none;stroke:black;stroke-width:3.779527559055118" transform="scale(1.34276, 1.34276)"/><path id="c0_0_7407" d="M 411.674 193.322 L 417.705 188.253" style="fill:none;stroke:black;stroke-width:3.779527559055118" transform="scale(1.34276, 1.34276)"/><path id="c0_0_7260" d="M 419.517 205.117 L 418.406 202.044 L 416.926 199.176 L 413.704 194.892 L 411.674 193.322" style="fill:none;stroke:black;stroke-width:3.779527559055118" transform="scale(1.34276, 1.34276)"/><path id="c0_0_6919" d="M 409.38 230.708 L 412.122 229.04 L 415.941 227.504 L 424.521 225.868 L 429.442 224.261 L 433.129 222.51 L 434.933 221.481 L 439.195 218.879 L 441.106 217.405" style="fill:none;stroke:black;stroke-width:3.779527559055118" transform="scale(1.34276, 1.34276)"/><path id="c0_0_7156" d="M 480.965 217.346 L 475.666 223.003 L 474.119 224.449 L 462.796 232.426 L 460.092 233.978 L 452.824 237.316 L 450.009 238.225 L 442.175 239.902 L 439.707 240.174 L 426.58 240.177 L 424.232 239.748 L 415.702 237.608 L 413.793 236.591 L 412.232 235.247 L 410.862 233.521 L 409.38 230.708" style="fill:none;stroke:black;stroke-width:3.779527559055118" transform="scale(1.34276, 1.34276)"/><path id="c0_0_4978" d="M 399.449 185.213 L 402.222 187.676 L 406.232 190.537 L 408.014 191.581 L 411.674 193.322" style="fill:none;stroke:black;stroke-width:3.779527559055118" transform="scale(1.34276, 1.34276)"/><path id="c0_0_718" d="M 399.449 185.213 L 397.966 182.951 L 396.297 179.958" style="fill:none;stroke:black;stroke-width:3.779527559055118" transform="scale(1.34276, 1.34276)"/><path id="c0_0_8654" d="M 395.508 198.787 L 399.449 185.213" style="fill:none;stroke:black;stroke-width:3.779527559055118" transform="scale(1.34276, 1.34276)"/><path id="c0_0_5989" d="M 396.297 179.958 L 387.484 152.974" style="fill:none;stroke:black;stroke-width:3.779527559055118" transform="scale(1.34276, 1.34276)"/><path id="c0_0_6712" d="M 387.484 152.974 L 410.463 160.984 L 414.577 162.229 L 418.082 162.987" style="fill:none;stroke:black;stroke-width:3.779527559055118" transform="scale(1.34276, 1.34276)"/><path id="c0_0_6503" d="M 386.55 193.328 L 388.692 190.578 L 396.297 179.958" style="fill:none;stroke:black;stroke-width:3.779527559055118" transform="scale(1.34276, 1.34276)"/><path id="c0_0_835" d="M 380.912 146.296 L 402.604 138.901 L 409.572 136.091 L 415.667 133.039 L 419.554 130.822 L 422.146 128.97 L 426.082 125.576" style="fill:none;stroke:black;stroke-width:3.779527559055118" transform="scale(1.34276, 1.34276)"/><path id="c0_0_5427" d="M 387.484 152.974 L 380.912 146.296" style="fill:none;stroke:black;stroke-width:3.779527559055118" transform="scale(1.34276, 1.34276)"/><path id="c0_0_6754" d="M 375.837 143.998 L 397.219 114.697 L 400.846 109.948 L 405.129 103.587 L 406.197 102.349 L 411.917 96.7048 L 413.345 95.6001 L 416.319 93.8171 L 423.374 90.3007" style="fill:none;stroke:black;stroke-width:3.779527559055118" transform="scale(1.34276, 1.34276)"/><path id="c0_0_4975" d="M 380.912 146.296 L 375.837 143.998" style="fill:none;stroke:black;stroke-width:3.779527559055118" transform="scale(1.34276, 1.34276)"/><path id="c0_0_9661" d="M 375.837 143.998 L 374.159 143.859" style="fill:none;stroke:black;stroke-width:3.779527559055118" transform="scale(1.34276, 1.34276)"/><path id="c0_0_1061" d="M 381.113 84.5273 L 376.671 86.894 L 373.627 89.0247" style="fill:none;stroke:black;stroke-width:3.779527559055118" transform="scale(1.34276, 1.34276)"/><path id="c0_0_428" d="M 373.281 103.498 L 382.402 97.9748" style="fill:none;stroke:black;stroke-width:3.779527559055118" transform="scale(1.34276, 1.34276)"/><path id="c0_0_332" d="M 374.159 143.859 L 373.281 103.498" style="fill:none;stroke:black;stroke-width:3.779527559055118" transform="scale(1.34276, 1.34276)"/><path id="c0_0_7842" d="M 409.38 230.708 L 406.163 229.946 L 404.634 229.342 L 397.489 225.663 L 392.79 221.406 L 391.976 220.077 L 390.969 218.85 L 388.907 217.154 L 384.272 211.078 L 381.089 205.654 L 378.808 200.649 L 377.341 195.663 L 373.112 185.513" style="fill:none;stroke:black;stroke-width:3.779527559055118" transform="scale(1.34276, 1.34276)"/><path id="c0_0_743" d="M 373.112 144.137 L 374.159 143.859" style="fill:none;stroke:black;stroke-width:3.779527559055118" transform="scale(1.34276, 1.34276)"/><path id="c0_0_8379" d="M 373.112 185.513 L 373.112 144.137" style="fill:none;stroke:black;stroke-width:3.779527559055118" transform="scale(1.34276, 1.34276)"/><path id="c0_0_7683" d="M 373.083 100.206 L 378.964 93.5236 L 382.684 88.6343 L 383.202 87.7387" style="fill:none;stroke:black;stroke-width:3.779527559055118" transform="scale(1.34276, 1.34276)"/><path id="c0_0_3367" d="M 373.043 101.434 L 373.083 100.206" style="fill:none;stroke:black;stroke-width:3.779527559055118" transform="scale(1.34276, 1.34276)"/><path id="c0_0_5417" d="M 373.281 103.498 L 373.043 101.434" style="fill:none;stroke:black;stroke-width:3.779527559055118" transform="scale(1.34276, 1.34276)"/><path id="c0_0_6498" d="M 373.627 89.0247 L 372.473 94.7944" style="fill:none;stroke:black;stroke-width:3.779527559055118" transform="scale(1.34276, 1.34276)"/><path id="c0_0_9075" d="M 373.083 100.206 L 372.473 94.7944" style="fill:none;stroke:black;stroke-width:3.779527559055118" transform="scale(1.34276, 1.34276)"/><path id="c0_0_6504" d="M 368.271 80.9691 L 369.885 83.162 L 373.362 86.6393 L 373.627 89.0247" style="fill:none;stroke:black;stroke-width:3.779527559055118" transform="scale(1.34276, 1.34276)"/><path id="c0_0_1837" d="M 366.65 144.676 L 373.112 144.137" style="fill:none;stroke:black;stroke-width:3.779527559055118" transform="scale(1.34276, 1.34276)"/><path id="c0_0_1913" d="M 372.473 94.7944 L 368.615 89.3052 L 367.229 86.5444 L 366.675 84.9763 L 366.123 84.0634" style="fill:none;stroke:black;stroke-width:3.779527559055118" transform="scale(1.34276, 1.34276)"/><path id="c0_0_6857" d="M 365.691 145.124 L 366.65 144.676" style="fill:none;stroke:black;stroke-width:3.779527559055118" transform="scale(1.34276, 1.34276)"/><path id="c0_0_484" d="M 360.742 94.3136 L 373.043 101.434" style="fill:none;stroke:black;stroke-width:3.779527559055118" transform="scale(1.34276, 1.34276)"/><path id="c0_0_5669" d="M 358.113 152.946 L 365.691 145.124" style="fill:none;stroke:black;stroke-width:3.779527559055118" transform="scale(1.34276, 1.34276)"/><path id="c0_0_9849" d="M 347.911 182.886 L 349.481 179.461 L 350.74 176.05 L 358.113 152.946" style="fill:none;stroke:black;stroke-width:3.779527559055118" transform="scale(1.34276, 1.34276)"/><path id="c0_0_7665" d="M 354.649 195.524 L 347.911 182.886" style="fill:none;stroke:black;stroke-width:3.779527559055118" transform="scale(1.34276, 1.34276)"/><path id="c0_0_8662" d="M 346.616 184.688 L 347.911 182.886" style="fill:none;stroke:black;stroke-width:3.779527559055118" transform="scale(1.34276, 1.34276)"/><path id="c0_0_5550" d="M 348.848 193.948 L 346.616 184.688" style="fill:none;stroke:black;stroke-width:3.779527559055118" transform="scale(1.34276, 1.34276)"/><path id="c0_0_3514" d="M 336.953 230.792 L 340.582 229.648 L 342.477 228.88 L 346.215 227.081 L 349.583 225.046 L 351.143 223.785 L 352.532 222.352 L 354.974 219.016 L 355.687 218.315 L 357.242 217.224 L 359.233 214.829 L 360.621 212.864 L 365.798 204.086 L 368.098 198.667 L 369.211 194.875 L 373.112 185.513" style="fill:none;stroke:black;stroke-width:3.779527559055118" transform="scale(1.34276, 1.34276)"/><path id="c0_0_5043" d="M 325.449 210.795 L 325.317 207.593 L 325.775 204.951 L 326.374 203.59 L 328.191 201.042 L 330.75 196.889 L 333.77 193.653 L 336.12 192.216 L 339.413 190.506 L 341.278 189.301 L 344.034 187.143 L 346.616 184.688" style="fill:none;stroke:black;stroke-width:3.779527559055118" transform="scale(1.34276, 1.34276)"/><path id="c0_0_9165" d="M 366.65 144.676 L 347.112 114.196 L 342.726 107.097 L 337.019 99.5456 L 334.687 97.1399 L 334.102 96.7307 L 325.191 91.2768 L 322.017 89.9618" style="fill:none;stroke:black;stroke-width:3.779527559055118" transform="scale(1.34276, 1.34276)"/><path id="c0_0_2997" d="M 305.487 217.669 L 306.586 213.907 L 306.984 211.449 L 307.069 209.162 L 306.893 205.963 L 307.021 202.907 L 307.078 202.079 L 307.795 200.182 L 307.958 199.129 L 307.941 196.828" style="fill:none;stroke:black;stroke-width:3.779527559055118" transform="scale(1.34276, 1.34276)"/><path id="c0_0_5944" d="M 336.953 230.792 L 334.466 229.221 L 330.989 227.762 L 325.691 226.838 L 319.723 225.428 L 316.762 224.551 L 307.695 219.482 L 305.487 217.669" style="fill:none;stroke:black;stroke-width:3.779527559055118" transform="scale(1.34276, 1.34276)"/><path id="c0_0_4930" d="M 358.113 152.946 L 336.564 160.712 L 332.93 161.773 L 328.556 162.678 L 324.093 163.106 L 319.829 163.008 L 316.775 162.587 L 306.446 160.619 L 302.984 160.748" style="fill:none;stroke:black;stroke-width:3.779527559055118" transform="scale(1.34276, 1.34276)"/><path id="c0_0_9069" d="M 298.21 161.905 L 302.984 160.748" style="fill:none;stroke:black;stroke-width:3.779527559055118" transform="scale(1.34276, 1.34276)"/><path id="c0_0_4062" d="M 302.984 160.748 L 299.556 156.365 L 297.786 154.518 L 294.835 152.298" style="fill:none;stroke:black;stroke-width:3.779527559055118" transform="scale(1.34276, 1.34276)"/><path id="c0_0_4422" d="M 365.691 145.124 L 345.746 138.919 L 338.062 136.096 L 334.6 134.537 L 325.976 130.21 L 323.273 128.442 L 317.199 123.993 L 314.824 122.879 L 311.442 121.602 L 309.005 120.975 L 306.721 120.605 L 303.457 120.458 L 301.583 120.613 L 294.804 121.993" style="fill:none;stroke:black;stroke-width:3.779527559055118" transform="scale(1.34276, 1.34276)"/><path id="c0_0_9059" d="M 293.831 163.247 L 296.138 162.695 L 298.21 161.905" style="fill:none;stroke:black;stroke-width:3.779527559055118" transform="scale(1.34276, 1.34276)"/><path id="c0_0_4125" d="M 298.21 161.905 L 294.74 157.279 L 293.652 156.092 L 291.68 154.532" style="fill:none;stroke:black;stroke-width:3.779527559055118" transform="scale(1.34276, 1.34276)"/><path id="c0_0_1808" d="M 290.862 210.145 L 293.772 204.829 L 295.577 199.098 L 296.346 197.355 L 297.289 196.166" style="fill:none;stroke:black;stroke-width:3.779527559055118" transform="scale(1.34276, 1.34276)"/><path id="c0_0_8015" d="M 290.862 210.145 L 295.15 214.911 L 295.85 215.293 L 297.662 216.118 L 300.535 217.029 L 302.553 217.42 L 305.487 217.669" style="fill:none;stroke:black;stroke-width:3.779527559055118" transform="scale(1.34276, 1.34276)"/><path id="c0_0_2176" d="M 290.862 210.145 L 290.677 210.118" style="fill:none;stroke:black;stroke-width:3.779527559055118" transform="scale(1.34276, 1.34276)"/><path id="c0_0_197" d="M 293.831 163.247 L 292.274 160.893 L 290.074 156.58" style="fill:none;stroke:black;stroke-width:3.779527559055118" transform="scale(1.34276, 1.34276)"/><path id="c0_0_3410" d="M 290.677 210.118 L 287.288 208.545 L 286.208 207.82" style="fill:none;stroke:black;stroke-width:3.779527559055118" transform="scale(1.34276, 1.34276)"/><path id="c0_0_7913" d="M 284.752 217.721 L 285.663 216.339 L 290.677 210.118" style="fill:none;stroke:black;stroke-width:3.779527559055118" transform="scale(1.34276, 1.34276)"/><path id="c0_0_7409" d="M 284.389 172.332 L 286.897 168.325 L 288.493 166.66 L 292.355 163.945 L 293.831 163.247" style="fill:none;stroke:black;stroke-width:3.779527559055118" transform="scale(1.34276, 1.34276)"/><path id="c0_0_5525" d="M 266.239 188.501 L 269.349 187.91 L 272.63 187.012 L 275.452 186.051 L 277.145 185.242 L 279.816 184.761" style="fill:none;stroke:black;stroke-width:3.779527559055118" transform="scale(1.34276, 1.34276)"/><path id="c0_0_8630" d="M 266.239 188.501 L 269.084 180.535 L 270.464 177.87" style="fill:none;stroke:black;stroke-width:3.779527559055118" transform="scale(1.34276, 1.34276)"/><path id="c0_0_1792" d="M 336.953 230.792 L 336.35 232.25 L 335.101 234.215 L 333.668 235.811 L 332.516 236.721 L 330.922 237.467 L 324.195 239.357 L 319.735 240.186 L 306.761 240.185 L 303.646 239.881 L 299.063 238.986 L 295.542 238.005 L 286.627 234.476 L 283.848 232.937 L 273.939 225.93 L 268.333 220.942 L 264.914 217.188" style="fill:none;stroke:black;stroke-width:3.779527559055118" transform="scale(1.34276, 1.34276)"/><path id="c0_0_4403" d="M 264.521 189.712 L 266.239 188.501" style="fill:none;stroke:black;stroke-width:3.779527559055118" transform="scale(1.34276, 1.34276)"/><path id="c0_0_74" d="M 262.635 205.827 L 263.216 203.664 L 263.829 200.157 L 264.01 194.837 L 264.521 189.712" style="fill:none;stroke:black;stroke-width:3.779527559055118" transform="scale(1.34276, 1.34276)"/><path id="c0_0_5794" d="M 264.914 217.188 L 264.912 214.946 L 264.485 211.908 L 263.69 208.746 L 262.635 205.827" style="fill:none;stroke:black;stroke-width:3.779527559055118" transform="scale(1.34276, 1.34276)"/><path id="c0_0_4078" d="M 264.521 189.712 L 261.451 186.975" style="fill:none;stroke:black;stroke-width:3.779527559055118" transform="scale(1.34276, 1.34276)"/><path id="c0_0_2585" d="M 259.548 178.279 L 261.451 186.975" style="fill:none;stroke:black;stroke-width:3.779527559055118" transform="scale(1.34276, 1.34276)"/><path id="c0_0_364" d="M 253.565 130.227 L 255.824 138.569" style="fill:none;stroke:black;stroke-width:3.779527559055118" transform="scale(1.34276, 1.34276)"/><path id="c0_0_395" d="M 278.811 137.29 L 275.677 133.931 L 272.092 131.278 L 267.906 129.879 L 265.03 129.871 L 258.375 130.602 L 256.168 130.547 L 253.565 130.227" style="fill:none;stroke:black;stroke-width:3.779527559055118" transform="scale(1.34276, 1.34276)"/><path id="c0_0_4319" d="M 253.565 130.227 L 251.639 129.489" style="fill:none;stroke:black;stroke-width:3.779527559055118" transform="scale(1.34276, 1.34276)"/><path id="c0_0_3402" d="M 250.55 139.272 L 251.639 129.489" style="fill:none;stroke:black;stroke-width:3.779527559055118" transform="scale(1.34276, 1.34276)"/><path id="c0_0_571" d="M 240.592 121.992 L 246.656 117.794 L 249.716 115.293 L 251.419 113.429 L 252.868 111.55 L 256.695 104.891 L 258.563 103.082 L 259.593 102.378 L 263.741 100.258 L 266.711 99.2704" style="fill:none;stroke:black;stroke-width:3.779527559055118" transform="scale(1.34276, 1.34276)"/><path id="c0_0_9336" d="M 251.639 129.489 L 240.592 121.992" style="fill:none;stroke:black;stroke-width:3.779527559055118" transform="scale(1.34276, 1.34276)"/><path id="c0_0_4265" d="M 239.821 98.3214 L 240.998 95.0195 L 242.675 92.333" style="fill:none;stroke:black;stroke-width:3.779527559055118" transform="scale(1.34276, 1.34276)"/><path id="c0_0_2882" d="M 239.072 100.552 L 239.821 98.3214" style="fill:none;stroke:black;stroke-width:3.779527559055118" transform="scale(1.34276, 1.34276)"/><path id="c0_0_2108" d="M 242.287 167.281 L 238.298 164.811 L 236.472 162.49 L 235.423 160.757 L 235.026 159.044 L 233.379 154.239 L 233.873 149.43 L 234.296 139.28" style="fill:none;stroke:black;stroke-width:3.779527559055118" transform="scale(1.34276, 1.34276)"/><path id="c0_0_7834" d="M 261.451 186.975 L 258.072 185.084 L 256.082 183.513 L 254.589 181.831 L 253.592 180.039 L 253.113 178.239 L 248.711 154.546 L 247.625 150.258 L 246.931 148.438 L 246.381 147.609 L 244.874 146.115 L 234.296 139.28" style="fill:none;stroke:black;stroke-width:3.779527559055118" transform="scale(1.34276, 1.34276)"/><path id="c0_0_7823" d="M 239.821 98.3214 L 234.219 92.7194" style="fill:none;stroke:black;stroke-width:3.779527559055118" transform="scale(1.34276, 1.34276)"/><path id="c0_0_1796" d="M 239.072 100.552 L 232.729 94.2089" style="fill:none;stroke:black;stroke-width:3.779527559055118" transform="scale(1.34276, 1.34276)"/><path id="c0_0_837" d="M 231.863 119.91 L 237.557 105.991 L 238.361 103.623 L 239.072 100.552" style="fill:none;stroke:black;stroke-width:3.779527559055118" transform="scale(1.34276, 1.34276)"/><path id="c0_0_3019" d="M 231.774 121.829 L 231.863 119.91" style="fill:none;stroke:black;stroke-width:3.779527559055118" transform="scale(1.34276, 1.34276)"/><path id="c0_0_5597" d="M 240.592 121.992 L 231.774 121.829" style="fill:none;stroke:black;stroke-width:3.779527559055118" transform="scale(1.34276, 1.34276)"/><path id="c0_0_495" d="M 231.35 122.147 L 231.774 121.829" style="fill:none;stroke:black;stroke-width:3.779527559055118" transform="scale(1.34276, 1.34276)"/><path id="c0_0_9726" d="M 230.398 127.196 L 231.35 122.147" style="fill:none;stroke:black;stroke-width:3.779527559055118" transform="scale(1.34276, 1.34276)"/><path id="c0_0_6215" d="M 234.296 139.28 L 230.398 127.196" style="fill:none;stroke:black;stroke-width:3.779527559055118" transform="scale(1.34276, 1.34276)"/><path id="c0_0_3358" d="M 229 241.996 L 225.24 242.602 L 223.182 241.715 L 221.702 240.678 L 220.712 239.813 L 219.07 236.731 L 218.231 233.88 L 218.696 228.584 L 219.3 226.085 L 221.843 221.312 L 224.796 218.822 L 225.547 218.333 L 231.136 215.823 L 234.117 215.252 L 238.693 215.241 L 248.661 216.875 L 253.582 218.605 L 255.681 219.014 L 258.388 219.062 L 260.647 218.708 L 263.042 217.98 L 264.914 217.188" style="fill:none;stroke:black;stroke-width:3.779527559055118" transform="scale(1.34276, 1.34276)"/><path id="c0_0_7590" d="M 231.35 122.147 L 226.814 121.062" style="fill:none;stroke:black;stroke-width:3.779527559055118" transform="scale(1.34276, 1.34276)"/><path id="c0_0_8209" d="M 231.863 119.91 L 225.444 100.651 L 223.713 97.3054 L 223.428 95.2595 L 223.59 90.5383 L 223.108 87.6477 L 223.264 86.444" style="fill:none;stroke:black;stroke-width:3.779527559055118" transform="scale(1.34276, 1.34276)"/><path id="c0_0_3762" d="M 262.635 205.827 L 259.758 205.923 L 257.17 205.711 L 255.665 205.426 L 253.475 204.726 L 251.7 203.747 L 247.734 200.815 L 240.428 196.563 L 235.354 194.269 L 229.733 192.177 L 227.881 191.647 L 225.879 191.491 L 217.712 191.736 L 211.363 192.936 L 207.261 193.331" style="fill:none;stroke:black;stroke-width:3.779527559055118" transform="scale(1.34276, 1.34276)"/><path id="c0_0_5572" d="M 202.158 207.544 L 202.615 206.204 L 204.836 202.133 L 205.572 200.282 L 207.261 193.331" style="fill:none;stroke:black;stroke-width:3.779527559055118" transform="scale(1.34276, 1.34276)"/><path id="c0_0_6116" d="M 207.121 219.413 L 205.847 217.719 L 205.005 215.286 L 204.096 211.595 L 203.301 209.61 L 202.158 207.544" style="fill:none;stroke:black;stroke-width:3.779527559055118" transform="scale(1.34276, 1.34276)"/><path id="c0_0_2017" d="M 226.814 121.062 L 213.725 107.973 L 212.432 107.057 L 210.538 106.179 L 207.831 105.801 L 205.048 105.639 L 200.729 105.944" style="fill:none;stroke:black;stroke-width:3.779527559055118" transform="scale(1.34276, 1.34276)"/><path id="c0_0_1911" d="M 207.261 193.331 L 205.343 191.623 L 203.707 190.452 L 200.145 188.607" style="fill:none;stroke:black;stroke-width:3.779527559055118" transform="scale(1.34276, 1.34276)"/><path id="c0_0_3379" d="M 197.254 152.972 L 200.236 148.21 L 202.505 145.729 L 204.88 144.637 L 207.386 143.134 L 211.548 142.865 L 213.643 142.575 L 215.792 141.827 L 217.271 140.968 L 220.511 138.072 L 230.398 127.196" style="fill:none;stroke:black;stroke-width:3.779527559055118" transform="scale(1.34276, 1.34276)"/><path id="c0_0_7359" d="M 195.334 213.158 L 196.282 211.411 L 197.055 210.393 L 199.871 208.561 L 202.158 207.544" style="fill:none;stroke:black;stroke-width:3.779527559055118" transform="scale(1.34276, 1.34276)"/><path id="c0_0_4604" d="M 193.592 120.775 L 195.196 120.65 L 196.248 120.284 L 198.796 118.97 L 200.449 118.91 L 204.414 119.084 L 210.817 120.685 L 214.769 121.315 L 220.846 121.496 L 226.814 121.062" style="fill:none;stroke:black;stroke-width:3.779527559055118" transform="scale(1.34276, 1.34276)"/><path id="c0_0_546" d="M 200.145 188.607 L 198.135 186.041 L 195.988 183.942 L 188.027 178.468" style="fill:none;stroke:black;stroke-width:3.779527559055118" transform="scale(1.34276, 1.34276)"/><path id="c0_0_6085" d="M 186.46 162.883 L 187.018 161.815" style="fill:none;stroke:black;stroke-width:3.779527559055118" transform="scale(1.34276, 1.34276)"/><path id="c0_0_8586" d="M 186.46 162.883 L 185.767 162.263" style="fill:none;stroke:black;stroke-width:3.779527559055118" transform="scale(1.34276, 1.34276)"/><path id="c0_0_3632" d="M 185.372 172.13 L 186.165 169.142 L 186.479 167.005 L 186.46 162.883" style="fill:none;stroke:black;stroke-width:3.779527559055118" transform="scale(1.34276, 1.34276)"/><path id="c0_0_2705" d="M 188.027 178.468 L 187.019 175.697 L 185.372 172.13" style="fill:none;stroke:black;stroke-width:3.779527559055118" transform="scale(1.34276, 1.34276)"/><path id="c0_0_3620" d="M 185.767 162.263 L 183.453 157.635 L 181.467 155.277" style="fill:none;stroke:black;stroke-width:3.779527559055118" transform="scale(1.34276, 1.34276)"/><path id="c0_0_3173" d="M 185.767 162.263 L 182.614 160.264 L 181.236 159.07 L 179.853 157.134" style="fill:none;stroke:black;stroke-width:3.779527559055118" transform="scale(1.34276, 1.34276)"/><path id="c0_0_9713" d="M 178.084 204.189 L 180.823 202.095 L 185.574 199.029 L 192.379 195.604 L 194.064 194.559 L 200.145 188.607" style="fill:none;stroke:black;stroke-width:3.779527559055118" transform="scale(1.34276, 1.34276)"/><path id="c0_0_2867" d="M 185.372 172.13 L 182.11 171.519 L 179.509 170.681 L 174.942 166.588" style="fill:none;stroke:black;stroke-width:3.779527559055118" transform="scale(1.34276, 1.34276)"/><path id="c0_0_7738" d="M 168.19 228.533 L 170.282 224.45 L 171.583 219.427 L 173.202 215.244 L 176.377 210.451 L 177.397 208.397 L 177.926 206.263 L 178.084 204.189" style="fill:none;stroke:black;stroke-width:3.779527559055118" transform="scale(1.34276, 1.34276)"/><path id="c0_0_726" d="M 168.19 228.533 L 172.259 229.643 L 175.133 230.023 L 176.164 230.749" style="fill:none;stroke:black;stroke-width:3.779527559055118" transform="scale(1.34276, 1.34276)"/><path id="c0_0_4990" d="M 164.011 231.172 L 168.19 228.533" style="fill:none;stroke:black;stroke-width:3.779527559055118" transform="scale(1.34276, 1.34276)"/><path id="c0_0_8065" d="M 163.635 242.43 L 164.684 240.449 L 165.544 237.856 L 165.049 234.382 L 164.011 231.172" style="fill:none;stroke:black;stroke-width:3.779527559055118" transform="scale(1.34276, 1.34276)"/><path id="c0_0_573" d="M 164.011 231.172 L 161.019 230.255 L 159.454 230.139" style="fill:none;stroke:black;stroke-width:3.779527559055118" transform="scale(1.34276, 1.34276)"/><path id="c0_0_2096" d="M 157.838 139.475 L 160.676 138.695 L 169.069 135.517 L 170.304 135.223 L 172.816 134.821 L 175.463 135.835" style="fill:none;stroke:black;stroke-width:3.779527559055118" transform="scale(1.34276, 1.34276)"/><path id="c0_0_3847" d="M 157.814 132.945 L 157.476 134.833 L 157.331 137.27 L 157.838 139.475" style="fill:none;stroke:black;stroke-width:3.779527559055118" transform="scale(1.34276, 1.34276)"/><path id="c0_0_2434" d="M 188.027 178.468 L 184.438 181.072 L 182.141 182.305 L 179.93 183.127 L 177.805 183.538 L 176.633 183.538 L 174.649 183.127 L 168.006 180.934 L 167.116 180.474 L 165.869 179.522 L 164.31 177.584 L 159.87 173.799 L 158.398 172.316 L 156.441 170.079 L 152.072 164.104" style="fill:none;stroke:black;stroke-width:3.779527559055118" transform="scale(1.34276, 1.34276)"/><path id="c0_0_5459" d="M 151.512 148.381 L 153.18 146.324 L 155.327 142.934 L 157.838 139.475" style="fill:none;stroke:black;stroke-width:3.779527559055118" transform="scale(1.34276, 1.34276)"/><path id="c0_0_6681" d="M 178.187 113.352 L 177.839 111.065 L 176.261 108.178 L 175.076 106.609 L 174.402 106.038 L 172.667 105.125 L 170.858 104.361 L 169.832 104.152 L 165.54 103.919 L 160.782 104.444 L 159.686 104.698 L 154.66 107.581 L 153.321 108.978 L 150.217 111.302 L 146.868 116.037 L 145.837 117.957 L 143.484 123.422 L 141.904 131.204 L 141.872 138.053 L 142.106 139.354 L 142.808 141.241 L 143.91 143.055 L 145.403 144.787 L 148.166 146.731 L 151.512 148.381" style="fill:none;stroke:black;stroke-width:3.779527559055118" transform="scale(1.34276, 1.34276)"/><path id="c0_0_7114" d="M 152.072 164.104 L 152.6 160.348 L 152.675 158.387 L 152.415 155.445 L 151.694 151.411 L 151.512 148.381" style="fill:none;stroke:black;stroke-width:3.779527559055118" transform="scale(1.34276, 1.34276)"/><path id="c0_0_4363" d="M 151.209 199.541 L 153.326 196.944 L 154.485 195.036 L 155.096 193.703 L 155.511 193.219" style="fill:none;stroke:black;stroke-width:3.779527559055118" transform="scale(1.34276, 1.34276)"/><path id="c0_0_4437" d="M 151.209 199.541 L 152.576 201.675 L 154.23 203.681 L 156.783 205.187 L 159.767 206.141 L 161.596 206.297 L 167.255 205.482 L 173.187 203.792 L 175.246 203.73 L 178.084 204.189" style="fill:none;stroke:black;stroke-width:3.779527559055118" transform="scale(1.34276, 1.34276)"/><path id="c0_0_896" d="M 149.689 241.366 L 152.473 238.192 L 154.362 236.536 L 155.765 235.057 L 159.454 230.139" style="fill:none;stroke:black;stroke-width:3.779527559055118" transform="scale(1.34276, 1.34276)"/><path id="c0_0_4961" d="M 159.454 230.139 L 157.282 228.805 L 154.129 228.054 L 153.065 228.207 L 151.48 228.587 L 150.372 229.137 L 147.551 230.967 L 146.008 232.176" style="fill:none;stroke:black;stroke-width:3.779527559055118" transform="scale(1.34276, 1.34276)"/><path id="c0_0_1826" d="M 140.63 183.543 L 139.231 191.877" style="fill:none;stroke:black;stroke-width:3.779527559055118" transform="scale(1.34276, 1.34276)"/><path id="c0_0_5267" d="M 151.209 199.541 L 148.782 199.087 L 145.343 197.329 L 143.305 195.789 L 141.005 193.357 L 139.231 191.877" style="fill:none;stroke:black;stroke-width:3.779527559055118" transform="scale(1.34276, 1.34276)"/><path id="c0_0_2672" d="M 152.072 164.104 L 149.552 164.487 L 146.213 164.597 L 143.931 164.36 L 141.943 163.796 L 140.155 162.897 L 133.766 158.901 L 129.09 155.409" style="fill:none;stroke:black;stroke-width:3.779527559055118" transform="scale(1.34276, 1.34276)"/><path id="c0_0_3249" d="M 126.977 172.719 L 127.501 175.762 L 128.593 178.981 L 131.671 184.747 L 134.361 188.49 L 135.859 190.023 L 137 190.936 L 139.231 191.877" style="fill:none;stroke:black;stroke-width:3.779527559055118" transform="scale(1.34276, 1.34276)"/><path id="c0_0_2625" d="M 119.572 111.33 L 108.029 114.497" style="fill:none;stroke:black;stroke-width:3.779527559055118" transform="scale(1.34276, 1.34276)"/><path id="c0_0_2653" d="M 107.986 114.716 L 108.029 114.497" style="fill:none;stroke:black;stroke-width:3.779527559055118" transform="scale(1.34276, 1.34276)"/><path id="c0_0_2853" d="M 121.963 122.262 L 117.596 119.057 L 116.146 118.214 L 111.951 116.234 L 107.986 114.716" style="fill:none;stroke:black;stroke-width:3.779527559055118" transform="scale(1.34276, 1.34276)"/><path id="c0_0_180" d="M 116.823 103.263 L 107.652 111.132" style="fill:none;stroke:black;stroke-width:3.779527559055118" transform="scale(1.34276, 1.34276)"/><path id="c0_0_1596" d="M 108.029 114.497 L 107.652 111.132" style="fill:none;stroke:black;stroke-width:3.779527559055118" transform="scale(1.34276, 1.34276)"/><path id="c0_0_2084" d="M 129.09 155.409 L 128.699 152.301 L 127.953 150.3 L 126.849 148.622 L 122.896 143.737 L 117.909 136.781 L 114.906 132.156 L 114.156 128.41 L 113.101 125.553 L 112.072 123.474 L 107.623 115.83" style="fill:none;stroke:black;stroke-width:3.779527559055118" transform="scale(1.34276, 1.34276)"/><path id="c0_0_1275" d="M 107.518 115.505 L 107.986 114.716" style="fill:none;stroke:black;stroke-width:3.779527559055118" transform="scale(1.34276, 1.34276)"/><path id="c0_0_1448" d="M 107.623 115.83 L 107.518 115.505" style="fill:none;stroke:black;stroke-width:3.779527559055118" transform="scale(1.34276, 1.34276)"/><path id="c0_0_3209" d="M 107.258 115.618 L 107.518 115.505" style="fill:none;stroke:black;stroke-width:3.779527559055118" transform="scale(1.34276, 1.34276)"/><path id="c0_0_4945" d="M 107.258 115.618 L 106.796 115.578" style="fill:none;stroke:black;stroke-width:3.779527559055118" transform="scale(1.34276, 1.34276)"/><path id="c0_0_5615" d="M 106.443 116.398 L 107.258 115.618" style="fill:none;stroke:black;stroke-width:3.779527559055118" transform="scale(1.34276, 1.34276)"/><path id="c0_0_5546" d="M 105.724 127.901 L 106.114 124.7 L 107.623 115.83" style="fill:none;stroke:black;stroke-width:3.779527559055118" transform="scale(1.34276, 1.34276)"/><path id="c0_0_2877" d="M 107.652 111.132 L 105.706 105.969" style="fill:none;stroke:black;stroke-width:3.779527559055118" transform="scale(1.34276, 1.34276)"/><path id="c0_0_8264" d="M 105.651 105.024 L 106.87 100.736 L 107.38 97.696" style="fill:none;stroke:black;stroke-width:3.779527559055118" transform="scale(1.34276, 1.34276)"/><path id="c0_0_7783" d="M 105.706 105.969 L 105.651 105.024" style="fill:none;stroke:black;stroke-width:3.779527559055118" transform="scale(1.34276, 1.34276)"/><path id="c0_0_8826" d="M 99.9307 126.804 L 100.749 125.699 L 106.443 116.398" style="fill:none;stroke:black;stroke-width:3.779527559055118" transform="scale(1.34276, 1.34276)"/><path id="c0_0_5054" d="M 98.4235 93.1939 L 98.2988 94.8025 L 98.6918 95.8579 L 99.4021 96.9586 L 101.656 99.5923 L 105.651 105.024" style="fill:none;stroke:black;stroke-width:3.779527559055118" transform="scale(1.34276, 1.34276)"/><path id="c0_0_6419" d="M 106.796 115.578 L 97.9817 112.854 L 95.8763 112.346" style="fill:none;stroke:black;stroke-width:3.779527559055118" transform="scale(1.34276, 1.34276)"/><path id="c0_0_4749" d="M 95.8398 122.797 L 106.443 116.398" style="fill:none;stroke:black;stroke-width:3.779527559055118" transform="scale(1.34276, 1.34276)"/><path id="c0_0_2624" d="M 105.706 105.969 L 95.4501 101.378" style="fill:none;stroke:black;stroke-width:3.779527559055118" transform="scale(1.34276, 1.34276)"/><path id="c0_0_1534" d="M 94.4455 116.708 L 96.3619 116.418 L 106.796 115.578" style="fill:none;stroke:black;stroke-width:3.779527559055118" transform="scale(1.34276, 1.34276)"/><path id="c0_0_7735" d="M 129.09 155.409 L 126.395 155.823 L 123.575 155.667 L 121.65 155.14 L 119.028 154.078 L 114.598 152.825 L 113.63 152.605 L 110.869 152.383 L 104.297 152.494 L 96.927 153.788 L 91.6822 154.078" style="fill:none;stroke:black;stroke-width:3.779527559055118" transform="scale(1.34276, 1.34276)"/><path id="c0_0_8855" d="M 89.8328 168.798 L 90.3392 164.796 L 91.4841 160.405 L 91.6822 154.078" style="fill:none;stroke:black;stroke-width:3.779527559055118" transform="scale(1.34276, 1.34276)"/><path id="c0_0_5696" d="M 91.6822 154.078 L 89.7806 152.909 L 87.9237 152.011" style="fill:none;stroke:black;stroke-width:3.779527559055118" transform="scale(1.34276, 1.34276)"/><path id="c0_0_8767" d="M 82.9976 155.398 L 87.9237 152.011" style="fill:none;stroke:black;stroke-width:3.779527559055118" transform="scale(1.34276, 1.34276)"/><path id="c0_0_1365" d="M 87.9237 152.011 L 86.9347 150.027 L 85.7714 148.197 L 83.5671 145.308 L 80.8766 142.249" style="fill:none;stroke:black;stroke-width:3.779527559055118" transform="scale(1.34276, 1.34276)"/><path id="c0_0_5743" d="M 80.8766 142.249 L 80.7799 138.466" style="fill:none;stroke:black;stroke-width:3.779527559055118" transform="scale(1.34276, 1.34276)"/><path id="c0_0_4037" d="M 79.5658 142.192 L 80.8766 142.249" style="fill:none;stroke:black;stroke-width:3.779527559055118" transform="scale(1.34276, 1.34276)"/><path id="c0_0_6169" d="M 75.1561 185.107 L 74.1956 181.827 L 73.8728 179.033 L 73.8621 177 L 73.9331 175.989 L 75.8669 168.279 L 76.3903 166.826 L 77.4467 165.06 L 78.6404 163.427 L 80.204 161.808 L 81.314 160.12 L 82.9976 155.398" style="fill:none;stroke:black;stroke-width:3.779527559055118" transform="scale(1.34276, 1.34276)"/><path id="c0_0_4430" d="M 75.1561 185.107 L 74.2484 187.333 L 73.7319 189.288 L 73.8034 191.463 L 74.2099 193.494 L 74.9517 195.358 L 76.9418 198.427 L 80.697 202.453 L 82.1231 203.699 L 85.1972 205.475 L 90.5747 207.593 L 93.1861 208.153 L 98.3323 208.149 L 100.218 207.664 L 102.095 206.958 L 106.455 204.637 L 107.873 203.674 L 110.244 200.779 L 111.063 199.412 L 112.432 195.628 L 112.622 194.819 L 112.815 191.904 L 112.704 189.96 L 112.331 187.631 L 111.346 185.263 L 110.797 184.163 L 108.979 182.592 L 108.39 182.17 L 106.468 181.533" style="fill:none;stroke:black;stroke-width:3.779527559055118" transform="scale(1.34276, 1.34276)"/><path id="c0_0_591" d="M 83.6291 188.587 L 82.9922 188.455 L 76.7181 185.662 L 75.1561 185.107" style="fill:none;stroke:black;stroke-width:3.779527559055118" transform="scale(1.34276, 1.34276)"/><path id="c0_0_5557" d="M 52.0079 168.432 L 54.1599 166.284 L 56.1351 164.714 L 67.6373 158.304 L 70.976 156.97 L 76.5513 155.189 L 78.5974 155.031 L 82.9976 155.398" style="fill:none;stroke:black;stroke-width:3.779527559055118" transform="scale(1.34276, 1.34276)"/><path id="c0_0_3320" d="M 56.3149 177.664 L 55.4448 175.963 L 54.9767 173.852 L 54.2495 171.977 L 53.2076 170.102 L 52.0079 168.432" style="fill:none;stroke:black;stroke-width:3.779527559055118" transform="scale(1.34276, 1.34276)"/><path id="c0_0_3075" d="M 38.948 171.176 L 42.33 169.837 L 46.259 168.673 L 49.2218 168.316 L 52.0079 168.432" style="fill:none;stroke:black;stroke-width:3.779527559055118" transform="scale(1.34276, 1.34276)"/><path id="c0_0_2779" d="M 39.5219 181.001 L 39.3577 179.863 L 39.2339 172.736 L 38.948 171.176" style="fill:none;stroke:black;stroke-width:3.779527559055118" transform="scale(1.34276, 1.34276)"/><path id="c0_0_1056" d="M 36.192 171.007 L 36.8345 170.999 L 38.948 171.176" style="fill:none;stroke:black;stroke-width:3.779527559055118" transform="scale(1.34276, 1.34276)"/><path id="c0_0_8889" d="M 29.7137 176.143 L 36.192 171.007" style="fill:none;stroke:black;stroke-width:3.779527559055118" transform="scale(1.34276, 1.34276)"/></g><path id="c0_1" d="M0,0 L3,1 L9,16 L13,22 L21,27 L24,32 L24,41 L19,42 L20,45 L20,55 L17,60 L11,62 L7,69 L5,69 L4,72 L1,73 L-3,71 L-3,69 L-5,69 L-9,62 L-16,59 L-18,50 L-18,43 L-23,41 L-24,34 L-20,28 L-11,21 L-3,7 Z " fill="#FFBE66" transform="translate(500, 274)"/>
  <g id="centerline_group_4460" inkscape:label="c0_1 center line"><path id="c0_1_6104" d="M 361.262 247.341 L 370.078 240.061 L 372.908 238.418" style="fill:none;stroke:black;stroke-width:3.779527559055118" transform="scale(1.34276, 1.34276)"/><path id="c0_1_4638" d="M 372.623 231.414 L 370.071 230.723 L 367.177 230.169 L 364.521 229.921 L 362.862 229.936" style="fill:none;stroke:black;stroke-width:3.779527559055118" transform="scale(1.34276, 1.34276)"/><path id="c0_1_2323" d="M 372.908 238.418 L 372.623 231.414" style="fill:none;stroke:black;stroke-width:3.779527559055118" transform="scale(1.34276, 1.34276)"/><path id="c0_1_2409" d="M 373.082 255.091 L 373.041 238.601" style="fill:none;stroke:black;stroke-width:3.779527559055118" transform="scale(1.34276, 1.34276)"/><path id="c0_1_459" d="M 373.041 238.601 L 375.607 239.693 L 384.533 245.905" style="fill:none;stroke:black;stroke-width:3.779527559055118" transform="scale(1.34276, 1.34276)"/><path id="c0_1_6636" d="M 373.041 238.601 L 372.908 238.418" style="fill:none;stroke:black;stroke-width:3.779527559055118" transform="scale(1.34276, 1.34276)"/><path id="c0_1_5328" d="M 382.829 229.285 L 380.89 229.37 L 378.315 229.777 L 372.686 231.32" style="fill:none;stroke:black;stroke-width:3.779527559055118" transform="scale(1.34276, 1.34276)"/><path id="c0_1_6620" d="M 372.686 231.32 L 372.857 225.142 L 372.697 219.141 L 373.252 211.161 L 373.25 205.133" style="fill:none;stroke:black;stroke-width:3.779527559055118" transform="scale(1.34276, 1.34276)"/><path id="c0_1_6973" d="M 372.623 231.414 L 372.686 231.32" style="fill:none;stroke:black;stroke-width:3.779527559055118" transform="scale(1.34276, 1.34276)"/></g></g>
</svg>