<?xml version='1.0' encoding='UTF-8'?>
<svg xmlns="http://www.w3.org/2000/svg" xmlns:inkscape="http://www.inkscape.org/namespaces/inkscape" xmlns:inkstitch="http://inkstitch.org/namespace" version="1.1" width="150.0mm" height="116.3mm" viewBox="0 0 828 642">
  <metadata>
    <inkstitch:inkstitch_svg_version>3</inkstitch:inkstitch_svg_version>
  </metadata>
  <g id="color0_1321" inkscape:label="1321 Dark Orange">
    <path id="c0_0" d="M0,0 L3,0 L8,10 L17,20 L24,29 L32,21 L51,10 L57,5 L59,5 L61,25 L65,39 L78,36 L93,33 L107,28 L111,29 L106,55 L102,64 L111,64 L124,66 L143,66 L143,69 L137,79 L133,89 L127,99 L125,102 L138,109 L143,113 L158,118 L157,122 L146,130 L133,140 L144,149 L154,160 L160,164 L160,167 L143,176 L132,180 L121,181 L126,198 L132,208 L139,214 L139,217 L116,222 L102,222 L97,221 L97,232 L95,258 L91,257 L79,251 L69,247 L60,239 L54,251 L52,264 L51,266 L46,264 L37,258 L27,252 L20,246 L18,243 L-1,262 L-8,272 L-11,271 L-19,254 L-22,244 L-24,226 L-36,232 L-44,234 L-59,236 L-67,239 L-70,239 L-69,229 L-68,219 L-77,235 L-86,256 L-93,283 L-96,302 L-97,326 L-96,350 L-94,361 L-91,346 L-83,325 L-77,316 L-69,307 L-61,301 L-66,296 L-66,289 L-61,284 L-59,284 L-60,278 L-57,272 L-53,270 L-47,270 L-43,272 L-41,268 L-38,266 L-32,266 L-27,269 L-25,273 L-26,279 L-30,285 L-29,287 L-29,295 L-34,300 L-38,300 L-37,305 L-40,312 L-44,314 L-50,314 L-55,311 L-57,307 L-57,303 L-68,310 L-77,321 L-85,338 L-90,358 L-91,365 L-91,378 L-85,401 L-75,426 L-67,442 L-55,462 L-44,477 L-33,490 L-22,502 L-13,511 L-7,516 L-15,497 L-18,492 L-33,479 L-44,469 L-51,459 L-54,451 L-55,445 L-55,435 L-52,423 L-42,403 L-37,395 L-30,375 L-28,368 L-26,368 L-17,388 L-7,401 L2,412 L7,424 L8,430 L8,442 L4,458 L-3,472 L-9,482 L-12,491 L-10,500 L-5,512 L2,523 L18,533 L40,545 L67,556 L93,563 L99,564 L88,556 L79,548 L79,546 L77,546 L70,536 L65,528 L60,513 L59,503 L53,502 L48,497 L48,491 L49,487 L45,483 L45,474 L49,469 L46,464 L46,458 L50,453 L56,452 L56,446 L60,441 L62,440 L70,440 L75,445 L75,453 L74,455 L80,459 L82,463 L81,471 L78,474 L80,479 L80,487 L76,492 L74,493 L67,493 L66,498 L62,502 L63,512 L69,528 L75,538 L82,547 L90,554 L104,563 L110,566 L117,567 L161,567 L172,566 L182,566 L185,569 L185,576 L180,579 L168,582 L120,582 L95,578 L67,571 L43,562 L24,553 L14,548 L-22,544 L-51,543 L-66,541 L-69,548 L-76,551 L-83,548 L-84,545 L-90,548 L-97,546 L-100,543 L-100,534 L-105,532 L-107,529 L-107,521 L-104,517 L-95,516 L-90,518 L-87,516 L-80,516 L-76,519 L-76,521 L-73,519 L-64,519 L-59,524 L-58,528 L-61,535 L-64,537 L-63,538 L-55,539 L-15,541 L9,544 L-6,534 L-20,523 L-30,514 L-45,499 L-54,488 L-62,478 L-72,463 L-84,441 L-90,434 L-97,429 L-106,426 L-115,425 L-150,425 L-162,422 L-173,416 L-183,407 L-189,399 L-195,383 L-200,368 L-207,357 L-206,354 L-188,358 L-170,358 L-150,356 L-141,357 L-127,362 L-119,368 L-111,381 L-108,388 L-104,404 L-96,420 L-90,428 L-97,410 L-103,391 L-109,363 L-112,336 L-112,302 L-123,269 L-128,252 L-135,233 L-136,232 L-140,238 L-144,240 L-150,239 L-154,234 L-155,229 L-153,223 L-157,221 L-159,218 L-158,209 L-163,204 L-163,196 L-159,192 L-157,191 L-151,191 L-146,194 L-144,196 L-143,195 L-134,195 L-130,199 L-129,205 L-131,211 L-126,213 L-125,215 L-125,223 L-130,228 L-134,228 L-127,245 L-113,289 L-111,294 L-105,267 L-100,250 L-91,228 L-82,213 L-77,205 L-93,201 L-103,200 L-103,196 L-94,186 L-84,168 L-83,166 L-98,160 L-107,153 L-116,144 L-121,141 L-120,138 L-95,126 L-92,124 L-94,118 L-101,103 L-106,91 L-110,85 L-109,82 L-94,81 L-82,78 L-79,78 L-84,65 L-88,47 L-88,42 L-79,44 L-55,49 L-55,41 L-53,29 L-52,16 L-48,17 L-43,22 L-31,28 L-19,32 L-17,32 L-13,22 L-3,7 Z " fill="#D25E1E" transform="translate(263, 52)" inkstitch:fill_underlay="True" inkstitch:row_spacing_mm="0.4" inkstitch:pull_compensation_mm="0.2" inkstitch:trim_after="True" inkstitch:fill_method="contour_fill"/>
    <path id="c0_1" d="M0,0 L14,0 L26,5 L29,7 L30,10 L30,25 L32,37 L36,45 L39,52 L41,55 L41,59 L45,61 L56,73 L63,77 L65,82 L60,92 L57,102 L56,109 L54,106 L42,112 L34,114 L19,116 L11,119 L8,119 L9,109 L10,100 L11,99 L14,83 L7,84 L-2,84 L-15,81 L-25,80 L-25,76 L-16,66 L-6,48 L-5,46 L-20,40 L-29,33 L-38,24 L-43,21 L-42,18 L-17,6 L-13,2 L-4,1 Z " fill="#D25E1E" transform="translate(185, 172)" inkstitch:fill_underlay="True" inkstitch:row_spacing_mm="0.4" inkstitch:pull_compensation_mm="0.2" inkstitch:trim_after="True" inkstitch:fill_method="contour_fill"/>
    <path id="c0_2" d="M0,0 L4,1 L-1,27 L-5,36 L-14,45 L-27,53 L-42,60 L-47,59 L-55,52 L-61,50 L-66,46 L-64,36 L-59,27 L-54,22 L-43,12 L-35,9 L-14,5 Z " fill="#D25E1E" transform="translate(370, 80)" inkstitch:fill_underlay="True" inkstitch:row_spacing_mm="0.4" inkstitch:pull_compensation_mm="0.2" inkstitch:trim_after="True" inkstitch:fill_method="contour_fill"/>
    <path id="c0_3" d="M0,0 L5,1 L17,14 L24,18 L26,23 L21,33 L18,43 L17,50 L15,47 L3,53 L-5,55 L-20,57 L-28,60 L-31,60 L-30,50 L-29,41 L-28,40 L-25,23 L-19,13 L-12,6 Z " fill="#D25E1E" transform="translate(224, 231)" inkstitch:fill_underlay="True" inkstitch:row_spacing_mm="0.4" inkstitch:pull_compensation_mm="0.2" inkstitch:trim_after="True" inkstitch:fill_method="contour_fill"/>
    <path id="c0_4" d="M0,0 L13,1 L21,3 L32,9 L37,13 L52,18 L51,22 L40,30 L27,40 L20,39 L7,35 L1,34 L-11,34 L-20,36 L-23,30 L-24,21 L-26,17 L-26,10 L-18,5 L-7,1 Z " fill="#D25E1E" transform="translate(369, 152)" inkstitch:fill_underlay="True" inkstitch:row_spacing_mm="0.4" inkstitch:pull_compensation_mm="0.2" inkstitch:trim_after="True" inkstitch:fill_method="contour_fill"/>
    <path id="c0_5" d="M0,0 L7,0 L10,4 L13,13 L17,38 L11,51 L9,64 L8,66 L3,64 L-6,58 L-16,52 L-23,46 L-25,43 L-24,36 L-22,26 L-23,15 L-25,8 L-18,5 L-7,4 Z " fill="#D25E1E" transform="translate(306, 252)" inkstitch:fill_underlay="True" inkstitch:row_spacing_mm="0.4" inkstitch:pull_compensation_mm="0.2" inkstitch:trim_after="True" inkstitch:fill_method="contour_fill"/>
    <path id="c0_6" d="M0,0 L5,2 L19,10 L29,13 L39,15 L41,16 L46,33 L52,43 L59,49 L59,52 L36,57 L22,57 L17,56 L13,39 L7,27 L-2,19 L-7,16 L-7,10 L-1,1 Z " fill="#D25E1E" transform="translate(343, 217)" inkstitch:fill_underlay="True" inkstitch:row_spacing_mm="0.4" inkstitch:pull_compensation_mm="0.2" inkstitch:trim_after="True" inkstitch:fill_method="contour_fill"/>
    <path id="c0_7" d="M0,0 L9,2 L33,7 L47,16 L58,25 L64,35 L66,41 L62,46 L58,50 L55,54 L50,55 L45,47 L45,45 L41,43 L33,39 L23,37 L12,36 L8,34 L4,23 L0,5 Z " fill="#D25E1E" transform="translate(175, 94)" inkstitch:fill_underlay="True" inkstitch:row_spacing_mm="0.4" inkstitch:pull_compensation_mm="0.2" inkstitch:trim_after="True" inkstitch:fill_method="contour_fill"/>
    <path id="path6085" style="stroke:#D25E1E;stroke-width:1px;fill:none" d="M205.34806926066784,107.0930189787502 203.50438588713774,106.00172414596855 203.0617143264622,105.86968262894302 196.16751516754698,104.09145470795384 194.08771445730923,103.91122112303017 188.11157939623172,104.2333942809437 181.10826736011254,106.72895357642878 179.9527361738799,107.26253952356495 174.39322534181133,112.39126954554634 172.83618842280958,114.27471758698363 170.83488556390358,118.08485947974535 169.08348690842814,122.21697917374911 168.90697159173965,122.84145341912664 168.4472740285267,130.45084111322035 168.9209765697741,131.76363658565808  M209.02113073933214,100.88758102124982 206.41481411286225,99.34487585403144 204.9934856735378,98.92091737105699 197.38768483245303,96.95914529204616 194.20548554269078,96.68337887696984 186.67762060376828,97.0892057190563 178.38093263988745,100.04564642357121 175.8982638261201,101.19206047643505 169.14577465818866,107.42133045445367 166.80081157719042,110.25788241301638 164.3121144360964,114.99594052025466 162.26751309157186,119.81982082625089 161.75602840826036,121.62934658087336 161.15972597147334,131.49995888677967 162.13802343022593,134.21116341434194  M201.75144317313604,97.33999109110916 199.59024067277366,105.71898474224962  M191.0002303461673,96.1340247114637 191.4660489736117,104.77470430624965  M181.1415108394967,98.29642582372752 184.04610028498948,106.4476031010634  M172.58567352788612,103.26689454985363 178.45305368755498,109.62709744876723  M164.43906309308116,113.20353465434806 172.09980204264625,117.22738972132561  M160.8178921831315,125.20015533883812 169.45537149126176,125.72196186912181  " inkstitch:satin_column="true" transform="scale(1.46056, 1.46056)" inkstitch:pull_compensation_mm="0.2" inkstitch:trim_after="True"/><path id="path8860" style="stroke:#D25E1E;stroke-width:1px;fill:none" d="M178.2832726420145,171.85266425245106 175.05134533121787,171.44498545474065 174.10188825687237,169.28577628566777 172.3640184634114,168.06105416020486 169.4441763159153,166.3735330314203 165.9887731633392,163.69304652027432 161.01324422048097,158.48552578957762 158.4605398141061,155.15002164136098 155.96337775923553,150.90092390401568 152.41858663998232,143.14834244793335 151.14039010149745,135.99678904125633 151.05121090115958,134.92278223934946 149.7380957851867,133.01732760390854 149.7610438329811,127.75163325231948 150.014367373055,127.39896714751069 150.0108870508704,127.38845291101613 150.28254617461425,123.52978454110333 150.91868726612913,121.25107018343805 151.52453564535105,120.68042650733308 152.2983973707094,116.39533690967994 154.71929248394642,110.75733393869533 154.62908062752228,110.56222457480126 155.2236360306426,108.43131802496242  M179.8343769783708,164.84375768944244 179.17943036489257,164.04229058077888 176.2529815365886,161.97994583979514 173.47682368408468,160.37546696857973 170.83222683666082,158.32395347972567 166.499755779519,153.78947421042236 164.4544601858939,151.11697835863902 162.3676222407645,147.5660760959843 159.35641336001765,140.98045755206667 158.29860989850258,135.06201095874368 158.00007331451468,131.46666226077068 156.95960979449822,130.6255689960867 156.9619561670189,130.08716674768053 157.0216511182441,130.00406201166115 157.43520101947394,126.87037104886625 157.3041129491296,126.47434708898388 157.404518031924,125.04818509663892 158.19846435464896,124.30037349266689 159.24860262929062,118.48546309032005 161.16794179260077,114.01552969836877 161.7599553107458,113.1726324027172 162.27783610382912,109.9225674255634 162.26410110975542,109.89286150814816  M175.40903845391205,160.65931617491336 171.07905886596666,168.15128571712327  M169.3178159942539,155.69509284399072 163.06128580440193,161.67289853143956  M163.90424075000658,148.7575288536837 156.44395897967945,153.14187906332126  M159.5347583669927,137.87977767467058 151.01651719779161,139.40224220192655  M157.68329610673948,130.03419002468596 149.03015166323928,129.99647937173066  M159.69891867109965,120.04947312554174 151.18344073699143,118.51162839763822  " inkstitch:satin_column="true" transform="scale(1.46056, 1.46056)" inkstitch:pull_compensation_mm="0.2" inkstitch:trim_after="True"/><path id="c0_10" d="M0,0 L5,1 L0,7 L-16,17 L-25,23 L-28,25 L-31,25 L-32,27 L-33,23 L-23,15 Z " fill="#D25E1E" transform="translate(640, 257)" inkstitch:fill_underlay="True" inkstitch:row_spacing_mm="0.4" inkstitch:pull_compensation_mm="0.2" inkstitch:trim_after="True" inkstitch:fill_method="contour_fill"/>
    <path id="c0_11" d="M0,0 L1,2 L-8,8 L-25,20 L-27,19 L-25,13 L-8,2 Z " fill="#D25E1E" transform="translate(650, 275)" inkstitch:fill_underlay="True" inkstitch:row_spacing_mm="0.4" inkstitch:pull_compensation_mm="0.2" inkstitch:trim_after="True" inkstitch:fill_method="contour_fill"/>
    <path id="c0_12" d="M0,0 L5,1 L3,5 L-3,6 L-3,2 Z " fill="#D25E1E" transform="translate(605, 258)" inkstitch:fill_underlay="True" inkstitch:row_spacing_mm="0.4" inkstitch:pull_compensation_mm="0.2" inkstitch:trim_after="True" inkstitch:fill_method="contour_fill"/>
  </g>
  <g id="color1_5415" inkscape:label="5415 Irish Green">
    <path id="c1_0" d="M0,0 L6,0 L11,3 L13,5 L14,4 L23,4 L27,8 L28,14 L26,20 L31,22 L32,24 L32,32 L27,37 L23,37 L30,54 L44,98 L46,103 L52,76 L57,59 L66,37 L75,22 L81,13 L91,12 L93,12 L92,21 L91,28 L89,28 L80,44 L71,65 L64,92 L61,111 L60,135 L61,159 L63,170 L66,155 L74,134 L80,125 L88,116 L96,110 L91,105 L91,98 L96,93 L98,93 L97,87 L100,81 L104,79 L110,79 L114,81 L116,77 L119,75 L125,75 L130,78 L132,82 L131,88 L127,94 L128,96 L128,104 L123,109 L119,109 L120,114 L117,121 L113,123 L107,123 L102,120 L100,116 L100,112 L89,119 L80,130 L72,147 L67,167 L66,174 L66,187 L72,210 L82,235 L90,251 L102,271 L113,286 L124,299 L135,311 L144,320 L150,325 L142,306 L139,301 L124,288 L113,278 L106,268 L103,260 L102,254 L102,244 L105,232 L115,212 L120,204 L127,184 L129,177 L131,177 L140,197 L150,210 L159,221 L164,233 L165,239 L165,251 L161,267 L154,281 L148,291 L145,300 L147,309 L152,321 L159,332 L175,342 L197,354 L224,365 L250,372 L256,373 L245,365 L236,357 L236,355 L234,355 L227,345 L222,337 L217,322 L216,312 L210,311 L205,306 L205,300 L206,296 L202,292 L202,283 L206,278 L203,273 L203,267 L207,262 L213,261 L213,255 L217,250 L219,249 L227,249 L232,254 L232,262 L231,264 L237,268 L239,272 L238,280 L235,283 L237,288 L237,296 L233,301 L231,302 L224,302 L223,307 L219,311 L220,321 L226,337 L232,347 L239,356 L247,363 L261,372 L267,375 L274,376 L318,376 L329,375 L339,375 L342,378 L342,385 L337,388 L325,391 L277,391 L252,387 L224,380 L200,371 L181,362 L171,357 L135,353 L106,352 L91,350 L88,357 L81,360 L74,357 L73,354 L67,357 L60,355 L57,352 L57,343 L52,341 L50,338 L50,330 L53,326 L62,325 L67,327 L70,325 L77,325 L81,328 L81,330 L84,328 L93,328 L98,333 L99,337 L96,344 L93,346 L94,347 L102,348 L142,350 L166,353 L151,343 L137,332 L127,323 L112,308 L103,297 L95,287 L85,272 L73,250 L67,243 L60,238 L51,235 L42,234 L7,234 L-5,231 L-16,225 L-26,216 L-32,208 L-38,192 L-43,177 L-50,166 L-49,163 L-31,167 L-13,167 L7,165 L16,166 L30,171 L38,177 L46,190 L49,197 L53,213 L61,229 L67,237 L60,219 L54,200 L48,172 L45,145 L45,111 L34,78 L29,61 L22,42 L21,41 L17,47 L13,49 L7,48 L3,43 L2,38 L4,32 L0,30 L-2,27 L-1,18 L-6,13 L-6,5 L-2,1 Z " fill="#007A3D" transform="translate(106, 243)" inkstitch:fill_underlay="True" inkstitch:row_spacing_mm="0.4" inkstitch:pull_compensation_mm="0.2" inkstitch:trim_after="True" inkstitch:fill_method="contour_fill"/>
    <path id="c1_1" d="M0,0 L18,4 L36,4 L56,2 L65,3 L79,8 L87,14 L95,27 L98,34 L102,50 L110,66 L114,73 L109,75 L100,72 L91,71 L56,71 L44,68 L33,62 L23,53 L17,45 L11,29 L6,14 L-1,3 Z " fill="#007A3D" transform="translate(57, 406)" inkstitch:fill_underlay="True" inkstitch:row_spacing_mm="0.4" inkstitch:pull_compensation_mm="0.2" inkstitch:trim_after="True" inkstitch:fill_method="contour_fill"/>
    <path id="c1_2" d="M0,0 L2,0 L11,20 L21,33 L30,44 L35,56 L36,62 L36,74 L32,90 L25,104 L19,114 L14,121 L10,124 L-5,111 L-16,101 L-23,91 L-26,83 L-27,77 L-27,67 L-24,55 L-14,35 L-9,27 L-2,7 Z " fill="#007A3D" transform="translate(235, 420)" inkstitch:fill_underlay="True" inkstitch:row_spacing_mm="0.4" inkstitch:pull_compensation_mm="0.2" inkstitch:trim_after="True" inkstitch:fill_method="contour_fill"/>
    <path id="c1_3" d="M0,0 L5,2 L6,5 L6,22 L4,24 L-3,23 L-4,22 L-5,14 L-5,3 Z " fill="#007A3D" transform="translate(652, 335)" inkstitch:fill_underlay="True" inkstitch:row_spacing_mm="0.4" inkstitch:pull_compensation_mm="0.2" inkstitch:trim_after="True" inkstitch:fill_method="contour_fill"/>
    <path id="c1_4" d="M0,0 L5,0 L8,4 L7,9 L0,20 L-2,22 L-9,21 L-10,15 L-1,1 Z " fill="#007A3D" transform="translate(610, 505)" inkstitch:fill_underlay="True" inkstitch:row_spacing_mm="0.4" inkstitch:pull_compensation_mm="0.2" inkstitch:trim_after="True" inkstitch:fill_method="contour_fill"/>
    <path id="c1_5" d="M0,0 L4,1 L6,3 L6,8 L-2,13 L-12,17 L-16,15 L-17,9 L-14,6 Z " fill="#007A3D" transform="translate(500, 599)" inkstitch:fill_underlay="True" inkstitch:row_spacing_mm="0.4" inkstitch:pull_compensation_mm="0.2" inkstitch:trim_after="True" inkstitch:fill_method="contour_fill"/>
    <path id="c1_6" d="M0,0 L7,1 L8,3 L8,13 L7,21 L5,23 L-1,23 L-3,21 L-3,3 Z " fill="#007A3D" transform="translate(652, 365)" inkstitch:fill_underlay="True" inkstitch:row_spacing_mm="0.4" inkstitch:pull_compensation_mm="0.2" inkstitch:trim_after="True" inkstitch:fill_method="contour_fill"/>
    <path id="c1_7" d="M0,0 L11,0 L18,1 L21,6 L18,11 L2,11 L-2,10 L-3,3 Z " fill="#007A3D" transform="translate(417, 102)" inkstitch:fill_underlay="True" inkstitch:row_spacing_mm="0.4" inkstitch:pull_compensation_mm="0.2" inkstitch:trim_after="True" inkstitch:fill_method="contour_fill"/>
    <path id="c1_8" d="M0,0 L5,2 L6,7 L2,20 L0,23 L-4,24 L-7,23 L-9,18 L-4,3 L-3,1 Z " fill="#007A3D" transform="translate(647, 423)" inkstitch:fill_underlay="True" inkstitch:row_spacing_mm="0.4" inkstitch:pull_compensation_mm="0.2" inkstitch:trim_after="True" inkstitch:fill_method="contour_fill"/>
    <path id="c1_9" d="M0,0 L4,2 L5,7 L2,11 L-10,15 L-17,14 L-18,13 L-18,7 L-10,3 Z " fill="#007A3D" transform="translate(473, 609)" inkstitch:fill_underlay="True" inkstitch:row_spacing_mm="0.4" inkstitch:pull_compensation_mm="0.2" inkstitch:trim_after="True" inkstitch:fill_method="contour_fill"/>
    <path id="c1_10" d="M0,0 L6,1 L8,6 L7,9 L-8,18 L-13,17 L-15,13 L-14,9 Z " fill="#007A3D" transform="translate(525, 585)" inkstitch:fill_underlay="True" inkstitch:row_spacing_mm="0.4" inkstitch:pull_compensation_mm="0.2" inkstitch:trim_after="True" inkstitch:fill_method="contour_fill"/>
    <path id="c1_11" d="M0,0 L6,0 L9,3 L8,8 L2,19 L-2,22 L-6,21 L-8,19 L-7,12 Z " fill="#007A3D" transform="translate(625, 480)" inkstitch:fill_underlay="True" inkstitch:row_spacing_mm="0.4" inkstitch:pull_compensation_mm="0.2" inkstitch:trim_after="True" inkstitch:fill_method="contour_fill"/>
    <path id="c1_12" d="M0,0 L6,1 L7,8 L1,20 L-3,23 L-8,21 L-9,16 L-2,1 Z " fill="#007A3D" transform="translate(638, 452)" inkstitch:fill_underlay="True" inkstitch:row_spacing_mm="0.4" inkstitch:pull_compensation_mm="0.2" inkstitch:trim_after="True" inkstitch:fill_method="contour_fill"/>
    <path id="c1_13" d="M0,0 L6,2 L7,3 L7,8 L-1,17 L-5,21 L-10,20 L-12,19 L-12,13 L-4,4 Z " fill="#007A3D" transform="translate(594, 528)" inkstitch:fill_underlay="True" inkstitch:row_spacing_mm="0.4" inkstitch:pull_compensation_mm="0.2" inkstitch:trim_after="True" inkstitch:fill_method="contour_fill"/>
    <path id="c1_14" d="M0,0 L5,0 L8,4 L5,21 L0,24 L-4,22 L-5,17 L-3,3 Z " fill="#007A3D" transform="translate(650, 394)" inkstitch:fill_underlay="True" inkstitch:row_spacing_mm="0.4" inkstitch:pull_compensation_mm="0.2" inkstitch:trim_after="True" inkstitch:fill_method="contour_fill"/>
    <path id="c1_15" d="M0,0 L4,1 L15,10 L16,11 L16,17 L14,19 L9,19 L-4,8 L-5,6 L-3,1 Z " fill="#007A3D" transform="translate(557, 155)" inkstitch:fill_underlay="True" inkstitch:row_spacing_mm="0.4" inkstitch:pull_compensation_mm="0.2" inkstitch:trim_after="True" inkstitch:fill_method="contour_fill"/>
    <path id="c1_16" d="M0,0 L5,1 L7,4 L9,15 L9,22 L6,24 L0,23 L-3,11 L-4,4 Z " fill="#007A3D" transform="translate(646, 306)" inkstitch:fill_underlay="True" inkstitch:row_spacing_mm="0.4" inkstitch:pull_compensation_mm="0.2" inkstitch:trim_after="True" inkstitch:fill_method="contour_fill"/>
    <path id="c1_17" d="M0,0 L6,1 L18,7 L19,12 L18,15 L12,16 L-2,9 L-4,4 Z " fill="#007A3D" transform="translate(504, 124)" inkstitch:fill_underlay="True" inkstitch:row_spacing_mm="0.4" inkstitch:pull_compensation_mm="0.2" inkstitch:trim_after="True" inkstitch:fill_method="contour_fill"/>
    <path id="c1_18" d="M0,0 L9,1 L18,3 L21,8 L18,13 L8,12 L-1,10 L-3,8 L-3,2 Z " fill="#007A3D" transform="translate(447, 106)" inkstitch:fill_underlay="True" inkstitch:row_spacing_mm="0.4" inkstitch:pull_compensation_mm="0.2" inkstitch:trim_after="True" inkstitch:fill_method="contour_fill"/>
    <path id="c1_19" d="M0,0 L5,1 L7,3 L7,8 L-3,16 L-6,18 L-11,18 L-14,15 L-13,10 L-6,4 Z " fill="#007A3D" transform="translate(550, 569)" inkstitch:fill_underlay="True" inkstitch:row_spacing_mm="0.4" inkstitch:pull_compensation_mm="0.2" inkstitch:trim_after="True" inkstitch:fill_method="contour_fill"/>
    <path id="c1_20" d="M0,0 L6,0 L19,9 L18,16 L17,17 L11,17 L-2,8 L-2,2 Z " fill="#007A3D" transform="translate(530, 138)" inkstitch:fill_underlay="True" inkstitch:row_spacing_mm="0.4" inkstitch:pull_compensation_mm="0.2" inkstitch:trim_after="True" inkstitch:fill_method="contour_fill"/>
    <path id="c1_21" d="M0,0 L5,0 L8,5 L5,10 L-4,19 L-11,18 L-13,16 L-12,11 Z " fill="#007A3D" transform="translate(573, 551)" inkstitch:fill_underlay="True" inkstitch:row_spacing_mm="0.4" inkstitch:pull_compensation_mm="0.2" inkstitch:trim_after="True" inkstitch:fill_method="contour_fill"/>
    <path id="c1_22" d="M0,0 L6,0 L13,7 L17,12 L17,17 L14,20 L9,19 L0,10 L-2,7 L-1,2 Z " fill="#007A3D" transform="translate(577, 175)" inkstitch:fill_underlay="True" inkstitch:row_spacing_mm="0.4" inkstitch:pull_compensation_mm="0.2" inkstitch:trim_after="True" inkstitch:fill_method="contour_fill"/>
    <path id="c1_23" d="M0,0 L7,1 L19,6 L20,9 L18,14 L13,15 L-1,10 L-3,8 L-3,3 Z " fill="#007A3D" transform="translate(476, 113)" inkstitch:fill_underlay="True" inkstitch:row_spacing_mm="0.4" inkstitch:pull_compensation_mm="0.2" inkstitch:trim_after="True" inkstitch:fill_method="contour_fill"/>
  </g>
  <g id="color2_0576" inkscape:label="0576 Very Dark Brown">
    <path id="c2_0" d="M0,0 L8,1 L12,6 L12,18 L8,28 L2,37 L-6,43 L-19,48 L-13,56 L-7,67 L-5,78 L-5,89 L-8,95 L-15,100 L-22,101 L-32,99 L-42,93 L-50,84 L-55,72 L-55,66 L-57,66 L-59,70 L-63,75 L-74,83 L-84,87 L-89,88 L-99,88 L-108,85 L-112,80 L-112,74 L-106,66 L-97,60 L-81,55 L-65,53 L-67,47 L-67,38 L-65,34 L-70,32 L-80,32 L-85,34 L-88,34 L-87,31 L-81,29 L-69,29 L-62,30 L-57,26 L-55,26 L-56,22 L-54,12 L-49,4 L-47,4 L-48,8 L-52,16 L-53,25 L-45,25 L-37,29 L-32,34 L-25,20 L-17,10 L-6,2 Z " fill="#3C302E" transform="translate(656, 197)" inkstitch:fill_underlay="True" inkstitch:row_spacing_mm="0.4" inkstitch:pull_compensation_mm="0.2" inkstitch:trim_after="True" inkstitch:fill_method="contour_fill"/>
    <path id="c2_1" d="M0,0 L10,1 L20,4 L29,10 L36,19 L41,31 L42,36 L42,47 L38,60 L32,68 L25,75 L15,80 L11,81 L-6,81 L-17,77 L-26,70 L-33,62 L-37,54 L-38,51 L-38,35 L-35,25 L-29,15 L-19,6 L-10,2 Z " fill="#3C302E" transform="translate(280, 149)" inkstitch:fill_underlay="True" inkstitch:row_spacing_mm="0.4" inkstitch:pull_compensation_mm="0.2" inkstitch:trim_after="True" inkstitch:fill_method="contour_fill"/>
    <path id="path4782" style="stroke:#3C302E;stroke-width:1px;fill:none" d="M 153.938 124.999 L 153.836 126.211 L 153.847 134.308 L 155.072 141 L 156 143.651 L 160.585 153.352 L 161.414 154.104 L 166.803 160.039 L 167.973 161.148 L 174.507 166.159 L 177.841 167.087 L 180.921 168.193 L 185.425 169.257 L 191.956 170.399 L 195.532 170.203 L 202.577 168.959 L 203.723 168.514 L 205.303 167.641 L 210.126 165.918 L 210.928 165.214 L 214.545 163.037 L 217.062 161.111 L 220.384 157.644 L 222.014 156.248 L 223.184 155.02 L 224.807 151.744 L 227.623 147.364 L 228.613 145.561 L 229.96 140.796 L 230.455 137.505 L 230.619 135.772 L 231.224 129.373 L 230.657 123.002 L 229.378 119.258 L 228.381 115.08 L 227.053 113.715 L 226.006 111.962 L 225.655 110.752 L 224.481 108.944 L 219.175 101.766 L 212.708 96.6858 L 208.773 94.9979 L 205.086 92.6635 L 204.015 92.3954 L 199.789 91.7985 L 196.575 90.8026 L 190.749 90.8521 L 188.406 91.0483 L 177.972 93.2857 L 175.757 94.8371 L 168.651 98.7176 L 167.002 100.188 L 163.513 104.329 L 161.468 106.216 L 159.242 110.612 L 158.256 112.049 L 157.306 113.809 L 154.014 124.088 Z M 145.482 124.291 L 145.351 125.862 L 145.362 135.084 L 146.845 143.179 L 148.139 146.874 L 153.634 158.503 L 155.409 160.113 L 160.734 165.976 L 162.456 167.611 L 169.808 173.248 L 171.067 174.009 L 175.266 175.178 L 178.504 176.34 L 183.718 177.572 L 191.451 178.924 L 196.505 178.648 L 204.872 177.17 L 207.327 176.217 L 208.804 175.4 L 214.511 173.363 L 215.958 172.089 L 219.325 170.064 L 222.737 167.452 L 226.221 163.817 L 227.861 162.413 L 230.216 159.941 L 232.2 155.935 L 234.919 151.705 L 236.515 148.8 L 238.271 142.589 L 238.88 138.536 L 239.066 136.571 L 239.745 129.396 L 239.018 121.229 L 237.538 116.896 L 236.092 110.838 L 233.845 108.529 L 233.454 107.182 L 231.457 104.107 L 225.317 95.8009 L 217.075 89.3264 L 212.74 87.4669 L 208.471 84.7641 L 205.644 84.0562 L 201.65 83.4921 L 197.824 82.3066 L 190.358 82.3701 L 187.157 82.6381 L 174.511 85.3497 L 171.276 87.6165 L 163.73 91.737 L 160.903 94.2579 L 157.368 98.4538 L 154.589 101.017 L 151.925 106.278 L 151.005 107.621 L 149.465 110.47 L 145.639 122.419 Z M 144.504 127.385 L 154.686 127.372 M 145.252 139.19 L 155.267 137.356 M 149.638 152.032 L 158.843 147.681 M 158.152 164.395 L 165.689 157.55 M 177.093 176.735 L 180.533 167.152 M 195.219 179.568 L 194.662 169.401 M 208.09 176.764 L 203.165 167.853 M 220.743 170.047 L 214.555 161.961 M 234.217 154.366 L 225.652 148.861 M 238.668 144.305 L 228.87 141.534 M 229.774 135.692 L 239.911 136.651 M 240.31 126.177 L 230.168 127.079 M 229.609 100.179 L 221.421 106.232 M 221.102 91.4104 L 214.812 99.4172 M 212.477 86.2957 L 207.03 94.8985 M 202.882 82.8092 L 201.458 92.8912 M 189.604 81.5818 L 190.454 91.7283 M 168.309 88.27 L 173.189 97.2064 M 159.162 95.0075 L 166.949 101.568 M 151.854 104.541 L 160.938 109.14 M 147.058 115.207 L 156.755 118.312" inkstitch:satin_column="true" transform="scale(1.46056, 1.46056)" inkstitch:pull_compensation_mm="0.2" inkstitch:trim_after="True"/><path id="c2_3" d="M0,0 L8,0 L13,5 L13,13 L12,15 L18,19 L20,23 L19,31 L16,34 L18,39 L18,47 L14,52 L12,53 L5,53 L4,58 L-1,64 L-11,61 L-14,57 L-14,51 L-13,47 L-17,43 L-17,34 L-13,29 L-16,24 L-16,18 L-12,13 L-6,12 L-6,6 L-2,1 Z " fill="#3C302E" transform="translate(325, 492)" inkstitch:fill_underlay="True" inkstitch:row_spacing_mm="0.4" inkstitch:pull_compensation_mm="0.2" inkstitch:trim_after="True" inkstitch:fill_method="contour_fill"/>
    <path id="c2_4" d="M0,0 L6,0 L11,3 L13,7 L12,13 L8,19 L9,21 L9,29 L4,34 L0,34 L1,39 L-2,46 L-6,48 L-12,48 L-17,45 L-19,41 L-19,37 L-22,38 L-23,35 L-28,30 L-28,23 L-23,18 L-21,18 L-22,12 L-19,6 L-15,4 L-9,4 L-5,6 L-3,2 Z " fill="#3C302E" transform="translate(225, 318)" inkstitch:fill_underlay="True" inkstitch:row_spacing_mm="0.4" inkstitch:pull_compensation_mm="0.2" inkstitch:trim_after="True" inkstitch:fill_method="contour_fill"/>
    <path id="c2_5" d="M0,0 L6,0 L11,3 L13,5 L14,4 L23,4 L27,8 L28,14 L26,20 L31,22 L32,24 L32,32 L27,37 L23,37 L23,40 L20,43 L15,48 L9,49 L4,45 L2,38 L4,32 L0,30 L-2,27 L-1,18 L-6,13 L-6,5 L-2,1 Z " fill="#3C302E" transform="translate(106, 243)" inkstitch:fill_underlay="True" inkstitch:row_spacing_mm="0.4" inkstitch:pull_compensation_mm="0.2" inkstitch:trim_after="True" inkstitch:fill_method="contour_fill"/>
    <path id="c2_6" d="M0,0 L6,0 L11,2 L14,0 L21,0 L25,3 L25,5 L28,3 L37,3 L42,8 L43,12 L40,19 L35,22 L33,31 L29,34 L25,35 L18,32 L17,29 L11,32 L4,30 L1,27 L1,18 L-4,16 L-6,13 L-6,5 L-3,1 Z " fill="#3C302E" transform="translate(162, 568)" inkstitch:fill_underlay="True" inkstitch:row_spacing_mm="0.4" inkstitch:pull_compensation_mm="0.2" inkstitch:trim_after="True" inkstitch:fill_method="contour_fill"/>
    <path id="c2_7" d="M0,0 L6,1 L10,11 L11,18 L11,29 L8,35 L1,40 L-6,41 L-16,39 L-26,33 L-33,25 L-31,21 L-17,11 Z " fill="#3C302E" transform="translate(640, 257)" inkstitch:fill_underlay="True" inkstitch:row_spacing_mm="0.4" inkstitch:pull_compensation_mm="0.2" inkstitch:trim_after="True" inkstitch:fill_method="contour_fill"/>
    <path id="c2_8" d="M0,0 L2,0 L2,9 L-1,15 L-8,20 L-15,21 L-25,19 L-20,14 L-3,2 Z " fill="#3C302E" transform="translate(649, 277)" inkstitch:fill_underlay="True" inkstitch:row_spacing_mm="0.4" inkstitch:pull_compensation_mm="0.2" inkstitch:trim_after="True" inkstitch:fill_method="contour_fill"/>
    <path id="c2_9" d="M0,0 L2,3 L3,7 L7,9 L10,10 L24,10 L28,9 L37,9 L36,12 L26,16 L21,17 L11,17 L2,14 L-2,9 L-2,3 Z " fill="#3C302E" transform="translate(546, 268)" inkstitch:fill_underlay="True" inkstitch:row_spacing_mm="0.4" inkstitch:pull_compensation_mm="0.2" inkstitch:trim_after="True" inkstitch:fill_method="contour_fill"/>
    <path id="c2_10" d="M0,0 L2,0 L5,7 L4,10 L-2,10 Z " fill="#3C302E" transform="translate(235, 420)" inkstitch:fill_underlay="True" inkstitch:row_spacing_mm="0.4" inkstitch:pull_compensation_mm="0.2" inkstitch:trim_after="True" inkstitch:fill_method="contour_fill"/>
    <path id="c2_11" d="M0,0 L6,2 L7,5 L5,11 L1,6 L-1,1 Z " fill="#3C302E" transform="translate(57, 406)" inkstitch:fill_underlay="True" inkstitch:row_spacing_mm="0.4" inkstitch:pull_compensation_mm="0.2" inkstitch:trim_after="True" inkstitch:fill_method="contour_fill"/>
    <path id="c2_12" d="M0,0 L3,1 L-2,6 L-8,10 L-7,5 L-4,5 L-2,1 Z " fill="#3C302E" transform="translate(591, 269)" inkstitch:fill_underlay="True" inkstitch:row_spacing_mm="0.4" inkstitch:pull_compensation_mm="0.2" inkstitch:trim_after="True" inkstitch:fill_method="contour_fill"/>
    <path id="c2_13" d="M0,0 L2,1 L-6,5 L-9,4 L-5,1 Z " fill="#3C302E" transform="translate(649, 238)" inkstitch:fill_underlay="True" inkstitch:row_spacing_mm="0.4" inkstitch:pull_compensation_mm="0.2" inkstitch:trim_after="True" inkstitch:fill_method="contour_fill"/>
    <path id="c2_14" d="M0,0 L4,2 L5,4 L-3,3 L-3,1 Z " fill="#3C302E" transform="translate(274, 596)" inkstitch:fill_underlay="True" inkstitch:row_spacing_mm="0.4" inkstitch:pull_compensation_mm="0.2" inkstitch:trim_after="True" inkstitch:fill_method="contour_fill"/>
    <path id="c2_15" d="M0,0 L4,1 L3,6 L-1,4 Z " fill="#3C302E" transform="translate(168, 478)" inkstitch:fill_underlay="True" inkstitch:row_spacing_mm="0.4" inkstitch:pull_compensation_mm="0.2" inkstitch:trim_after="True" inkstitch:fill_method="contour_fill"/>
  </g>
  <g id="color3_0442" inkscape:label="0442 Tarnished Gold">
    <path id="c3_0" d="M0,0 L15,2 L34,2 L34,5 L28,15 L24,25 L18,35 L16,38 L29,45 L34,49 L49,54 L48,58 L37,66 L24,76 L35,85 L45,96 L51,100 L51,103 L34,112 L23,116 L12,117 L17,134 L23,144 L30,150 L30,153 L7,158 L-7,158 L-12,157 L-12,168 L-14,194 L-18,193 L-30,187 L-40,183 L-49,175 L-55,187 L-57,200 L-58,202 L-63,200 L-72,194 L-82,188 L-89,182 L-91,179 L-110,198 L-117,208 L-120,207 L-128,190 L-131,180 L-132,165 L-130,155 L-125,141 L-120,136 L-115,137 L-102,141 L-90,143 L-84,141 L-73,140 L-66,136 L-59,136 L-57,132 L-47,125 L-41,118 L-37,116 L-35,109 L-29,101 L-27,91 L-26,82 L-24,70 L-26,66 L-27,57 L-29,53 L-30,46 L-34,42 L-41,32 L-45,25 L-42,22 L-25,14 L-14,6 L-9,1 Z " fill="#CCCC33" transform="translate(372,116)" inkstitch:fill_underlay="True" inkstitch:row_spacing_mm="0.4" inkstitch:pull_compensation_mm="0.2" inkstitch:trim_after="True" inkstitch:fill_method="contour_fill"/>
    <path id="c3_1" d="M0,0 L10,6 L17,14 L22,24 L25,37 L25,52 L23,78 L19,77 L7,71 L-3,67 L-12,59 L-18,71 L-20,84 L-21,86 L-26,84 L-35,78 L-45,72 L-52,66 L-54,63 L-73,82 L-80,92 L-83,91 L-91,74 L-94,64 L-95,49 L-93,39 L-88,25 L-83,20 L-78,21 L-65,25 L-53,27 L-47,25 L-36,24 L-29,20 L-22,20 L-20,16 L-10,9 L-4,2 Z " fill="#CCCC33" transform="translate(335,232)" inkstitch:fill_underlay="True" inkstitch:row_spacing_mm="0.4" inkstitch:pull_compensation_mm="0.2" inkstitch:trim_after="True" inkstitch:fill_method="contour_fill"/>
    <path id="c3_2" d="M0,0 L21,2 L30,6 L36,10 L42,20 L40,29 L36,35 L33,47 L31,50 L27,49 L15,44 L1,44 L-6,46 L-13,45 L-22,26 L-27,14 L-31,8 L-30,5 L-15,4 Z " fill="#CCCC33" transform="translate(184,129)" inkstitch:fill_underlay="True" inkstitch:row_spacing_mm="0.4" inkstitch:pull_compensation_mm="0.2" inkstitch:trim_after="True" inkstitch:fill_method="contour_fill"/>
    <path id="c3_3" d="M0,0 L5,1 L18,5 L28,7 L31,12 L33,22 L32,33 L28,44 L10,62 L3,72 L0,71 L-8,54 L-11,44 L-12,29 L-10,19 L-5,5 Z " fill="#CCCC33" transform="translate(252,252)" inkstitch:fill_underlay="True" inkstitch:row_spacing_mm="0.4" inkstitch:pull_compensation_mm="0.2" inkstitch:trim_after="True" inkstitch:fill_method="contour_fill"/>
    <path id="c3_4" d="M0,0 L15,2 L34,2 L34,5 L28,15 L24,25 L18,35 L15,38 L-3,37 L-13,39 L-23,43 L-27,46 L-31,45 L-34,42 L-41,32 L-45,25 L-42,22 L-25,14 L-14,6 L-9,1 Z " fill="#CCCC33" transform="translate(372,116)" inkstitch:fill_underlay="True" inkstitch:row_spacing_mm="0.4" inkstitch:pull_compensation_mm="0.2" inkstitch:trim_after="True" inkstitch:fill_method="contour_fill"/>
    <path id="c3_5" d="M0,0 L4,2 L9,15 L12,19 L12,23 L-2,30 L-9,37 L-14,46 L-18,48 L-31,48 L-44,45 L-54,44 L-54,40 L-45,30 L-35,12 L-32,9 L-19,8 L-7,4 Z " fill="#CCCC33" transform="translate(214,208)" inkstitch:fill_underlay="True" inkstitch:row_spacing_mm="0.4" inkstitch:pull_compensation_mm="0.2" inkstitch:trim_after="True" inkstitch:fill_method="contour_fill"/>
    <path id="c3_6" d="M0,0 L2,0 L4,20 L8,35 L-4,46 L-9,51 L-14,62 L-16,68 L-22,69 L-30,66 L-31,62 L-29,56 L-29,40 L-33,28 L-32,23 L-25,16 L-6,5 Z " fill="#CCCC33" transform="translate(320,57)" inkstitch:fill_underlay="True" inkstitch:row_spacing_mm="0.4" inkstitch:pull_compensation_mm="0.2" inkstitch:trim_after="True" inkstitch:fill_method="contour_fill"/>
    <path id="c3_7" d="M0,0 L4,1 L9,6 L21,12 L33,16 L35,18 L36,34 L40,49 L44,56 L43,60 L34,66 L29,66 L22,52 L10,42 L-3,34 L-3,25 L-1,13 Z " fill="#CCCC33" transform="translate(211,68)" inkstitch:fill_underlay="True" inkstitch:row_spacing_mm="0.4" inkstitch:pull_compensation_mm="0.2" inkstitch:trim_after="True" inkstitch:fill_method="contour_fill"/>
  </g>
  <g id="color5_5500" inkscape:label="5500 Limedrop">
    <path id="c5_0" d="M0,0 L3,3 L8,11 L16,21 L24,31 L29,43 L30,49 L30,61 L26,77 L19,91 L13,101 L11,104 L6,102 L4,97 L0,73 L-3,15 L-3,3 Z " fill="#1CCE28" transform="translate(241,433)" inkstitch:fill_underlay="True" inkstitch:row_spacing_mm="0.4" inkstitch:pull_compensation_mm="0.2" inkstitch:trim_after="True" inkstitch:fill_method="contour_fill"/>
    <path id="c5_1" d="M0,0 L12,2 L30,2 L50,0 L59,1 L73,6 L81,12 L89,25 L92,32 L96,48 L98,54 L94,55 L84,47 L71,38 L59,33 L48,28 L39,25 L27,20 L7,9 L2,6 Z " fill="#1CCE28" transform="translate(63,408)" inkstitch:fill_underlay="True" inkstitch:row_spacing_mm="0.4" inkstitch:pull_compensation_mm="0.2" inkstitch:trim_after="True" inkstitch:fill_method="contour_fill"/>
  </g>
  <g id="color6_4073" inkscape:label="4073 Metal">
    <path id="c6_0" d="M0,0 L8,1 L12,6 L12,18 L8,28 L2,37 L-6,43 L-13,46 L-18,46 L-21,44 L-28,43 L-30,37 L-31,31 L-25,20 L-17,10 L-6,2 Z " fill="#9B9993" transform="translate(656, 197)" inkstitch:fill_underlay="True" inkstitch:row_spacing_mm="0.4" inkstitch:pull_compensation_mm="0.2" inkstitch:trim_after="True" inkstitch:fill_method="contour_fill"/>
    <path id="c6_1" d="M0,0 L11,0 L18,6 L17,11 L13,14 L10,19 L6,23 L3,25 L0,27 L-7,27 L-11,28 L-25,28 L-32,24 L-34,21 L-35,19 L-33,14 L-24,7 L-10,2 Z " fill="#9B9993" transform="translate(581, 251)" inkstitch:fill_underlay="True" inkstitch:row_spacing_mm="0.4" inkstitch:pull_compensation_mm="0.2" inkstitch:trim_after="True" inkstitch:fill_method="contour_fill"/>
    <path id="c6_2" d="M0,0 L11,1 L51,3 L74,6 L74,8 L65,8 L44,6 L15,5 L0,3 Z " fill="#9B9993" transform="translate(197, 590)" inkstitch:fill_underlay="True" inkstitch:row_spacing_mm="0.4" inkstitch:pull_compensation_mm="0.2" inkstitch:trim_after="True" inkstitch:fill_method="contour_fill"/>
    <path id="c6_3" d="M0,0 L2,2 L-8,10 L-15,19 L-23,36 L-28,56 L-30,66 L-33,65 L-32,59 L-29,44 L-21,23 L-15,14 L-7,5 Z " fill="#9B9993" transform="translate(201, 354)" inkstitch:fill_underlay="True" inkstitch:row_spacing_mm="0.4" inkstitch:pull_compensation_mm="0.2" inkstitch:trim_after="True" inkstitch:fill_method="contour_fill"/>
    <path id="path8679" style="stroke:#9B9993;stroke-width:1px;fill:none" d="M223.33156538695732,379.5019011231476 224.15187139831963,380.56076551536523 224.1175034366917,381.26904437674006 224.36595240052517,381.71781930690776 224.31491912844976,382.3174602537939 224.56204889662445,382.873502232187 224.48502531863664,383.5300365397973 225.05958020305866,386.21784030111064 226.76312707404975,391.3254261378657 226.80035569886334,391.58768111710805 227.0916084757906,392.0255442445832 227.16463279952032,392.51898003207094 227.3198157074374,392.75966180326725 228.1716447678111,395.06721323130853 232.4704900781624,402.518243429229 232.6038643206848,402.6042072964798 235.16780391590936,406.1631765508041 236.97337984853345,407.0977528257891 237.5716195733438,408.79525804493846 237.7989129210718,408.9348326379996 238.0380300708687,409.34578289111374 238.29456021138745,409.50722850078387 239.3067942528633,410.6094389015021 242.80670713918565,413.4433726583551 247.41636495128094,416.71625761251806 249.2252132095271,417.7528332269408 250.03401192968323,417.9396040157319 250.3870150740398,418.2631902313921 250.96966407366392,418.38708685774895 252.08176258272061,419.49502798920173  M218.55009180607118,382.1119406202347 218.5278965633084,382.56935562326004 218.72344759947484,382.92258069309224 218.69448087155027,383.26293974620614 218.90335110337554,383.73289776781303 218.89637468136334,383.7923634602027 219.72581979694132,387.67255969888936 221.36827292595024,392.59697386213435 221.51104430113665,393.60271888289185 221.81179152420938,394.0548557554168 221.8787672004797,394.50741996792897 222.3515842925626,395.24073819673276 223.1557552321889,397.4191867686915 228.35690992183763,406.434156570771 228.73553567931518,406.67819270352027 231.45959608409066,410.4594234491959 232.49402015146654,410.99484717421086 233.0157804266562,412.4753419550615 233.7264870789282,412.9117673620004 233.94936992913128,413.2948171088862 234.72883978861253,413.7853714992161 235.51660574713668,414.64316109849796 239.46869286081434,417.84322734164493 244.43923504871904,421.372342387482 247.18838679047286,422.9477667730592 247.37558807031684,422.9909959842681 247.76658492596022,423.3494097686079 248.23362711959518,423.4487233385188  M218.9874255380407,386.85894356336723 225.46510062250306,385.4742517517692  M222.45612463193208,397.1179017389323 228.67026096578275,394.82396286937006  M229.3856287779879,408.5249338978203 234.7601875409497,404.6530139585083  M237.33186883140706,416.82327743988884 241.5002868779162,411.6752742442305  " inkstitch:satin_column="true" transform="scale(1.46056, 1.46056)" inkstitch:pull_compensation_mm="0.2" inkstitch:trim_after="True"/><path id="c6_5" d="M0,0 L2,2 L9,21 L21,59 L24,68 L21,69 L11,39 L6,22 L-1,3 Z " fill="#9B9993" transform="translate(129, 282)" inkstitch:fill_underlay="True" inkstitch:row_spacing_mm="0.4" inkstitch:pull_compensation_mm="0.2" inkstitch:trim_after="True" inkstitch:fill_method="contour_fill"/>
    <path id="c6_6" d="M0,0 L1,3 L0,9 L6,25 L11,35 L6,34 L2,24 L-4,9 L-5,5 Z " fill="#9B9993" transform="translate(251, 537)" inkstitch:fill_underlay="True" inkstitch:row_spacing_mm="0.4" inkstitch:pull_compensation_mm="0.2" inkstitch:trim_after="True" inkstitch:fill_method="contour_fill"/>
    <path id="c6_7" d="M0,0 L12,0 L17,2 L16,4 L11,3 L1,3 L-4,5 L-7,5 L-6,2 Z " fill="#9B9993" transform="translate(575, 226)" inkstitch:fill_underlay="True" inkstitch:row_spacing_mm="0.4" inkstitch:pull_compensation_mm="0.2" inkstitch:trim_after="True" inkstitch:fill_method="contour_fill"/>
    <path id="c6_8" d="M0,0 L2,0 L1,4 L-3,12 L-4,21 L-7,20 L-5,8 Z " fill="#9B9993" transform="translate(607, 201)" inkstitch:fill_underlay="True" inkstitch:row_spacing_mm="0.4" inkstitch:pull_compensation_mm="0.2" inkstitch:trim_after="True" inkstitch:fill_method="contour_fill"/>
    <path id="c6_9" d="M0,0 L3,0 L4,5 L-1,5 L-1,1 Z " fill="#9B9993" transform="translate(161, 247)" inkstitch:fill_underlay="True" inkstitch:row_spacing_mm="0.4" inkstitch:pull_compensation_mm="0.2" inkstitch:trim_after="True" inkstitch:fill_method="contour_fill"/>
    <path id="c6_10" d="M0,0 L4,2 L4,5 L-1,6 Z " fill="#9B9993" transform="translate(398, 264)" inkstitch:fill_underlay="True" inkstitch:row_spacing_mm="0.4" inkstitch:pull_compensation_mm="0.2" inkstitch:trim_after="True" inkstitch:fill_method="contour_fill"/>
  </g>
  <g id="color4_1346" inkscape:label="1346 Cinnamon">
    <path id="c4_0" d="M0,0 L6,3 L16,4 L22,9 L28,11 L35,17 L40,20 L44,27 L51,37 L51,39 L55,41 L57,51 L59,55 L60,64 L61,68 L59,77 L58,86 L56,96 L52,101 L49,106 L47,112 L41,116 L36,122 L27,128 L25,131 L16,133 L11,136 L-4,138 L-8,139 L-18,137 L-31,133 L-38,132 L-43,127 L-49,123 L-60,111 L-62,110 L-65,103 L-69,94 L-72,88 L-74,76 L-74,58 L-70,49 L-68,41 L-64,35 L-61,27 L-57,25 L-53,19 L-48,14 L-36,8 L-33,5 L-17,2 L-10,1 L-2,1 Z " fill="#875A2D" transform="translate(288, 121)" inkstitch:fill_underlay="True" inkstitch:row_spacing_mm="0.4" inkstitch:pull_compensation_mm="0.2" inkstitch:trim_after="True" inkstitch:fill_method="contour_fill"/>
    <path id="c4_1" d="M0,0 L2,4 L-2,5 L-3,7 L-4,3 Z " fill="#875A2D" transform="translate(611, 277)" inkstitch:fill_underlay="True" inkstitch:row_spacing_mm="0.4" inkstitch:pull_compensation_mm="0.2" inkstitch:trim_after="True" inkstitch:fill_method="contour_fill"/>
  </g>
</svg>