<?xml version='1.0' encoding='UTF-8'?>
<svg xmlns="http://www.w3.org/2000/svg" xmlns:inkscape="http://www.inkscape.org/namespaces/inkscape" xmlns:inkstitch="http://inkstitch.org/namespace" version="1.1" width="130.0mm" height="130.0mm" viewBox="0 0 1200 1200">
  <metadata>
    <inkstitch:inkstitch_svg_version>3</inkstitch:inkstitch_svg_version>
  </metadata>
  <g id="color0_5643" inkscape:label="5643 Green Dust">
    <path id="c0_0" d="M0,0 L3,1 L2,46 L0,65 L-1,68 L-3,85 L-5,94 L-8,106 L-10,113 L-12,118 L-12,120 L-14,120 L-14,125 L-24,144 L-26,144 L-26,148 L-28,148 L-30,154 L-37,164 L-39,164 L-41,169 L-47,176 L-50,176 L-50,179 L-57,185 L-62,191 L-66,192 L-66,194 L-70,196 L-74,200 L-78,201 L-79,204 L-83,208 L-89,211 L-95,216 L-101,219 L-111,226 L-125,234 L-130,237 L-134,240 L-137,239 L-137,212 L-135,196 L-134,175 L-131,158 L-129,146 L-124,128 L-123,125 L-122,120 L-120,120 L-119,115 L-116,108 L-111,98 L-108,92 L-106,92 L-104,87 L-101,81 L-99,80 L-97,76 L-95,75 L-94,72 L-89,67 L-86,66 L-86,64 L-84,64 L-82,60 L-80,60 L-78,56 L-75,55 L-74,52 L-68,47 L-65,44 L-62,44 L-61,41 L-56,38 L-54,38 L-52,34 L-46,31 L-42,27 L-34,23 L-31,20 L-26,17 L-18,11 L-7,5 L-3,3 Z " fill="#215B33" transform="translate(504,762)"/>
    <path id="c0_1" d="M0,0 L45,1 L64,3 L67,4 L84,6 L93,8 L105,11 L112,13 L117,15 L119,15 L119,17 L124,17 L143,27 L143,29 L147,29 L147,31 L153,33 L163,40 L163,42 L168,44 L175,50 L175,53 L178,53 L184,60 L190,65 L191,69 L193,69 L195,73 L199,77 L200,81 L203,82 L207,86 L210,92 L215,98 L218,104 L225,114 L233,128 L236,133 L239,137 L238,140 L211,140 L195,138 L174,137 L157,134 L145,132 L127,127 L124,126 L119,125 L119,123 L114,122 L107,119 L97,114 L91,111 L91,109 L86,107 L80,104 L79,102 L75,100 L74,98 L71,97 L66,92 L65,89 L63,89 L63,87 L59,85 L59,83 L55,81 L54,78 L51,77 L46,71 L43,68 L43,65 L40,64 L37,59 L37,57 L33,55 L30,49 L26,45 L22,37 L19,34 L16,29 L10,21 L4,10 L2,6 L-1,3 Z " fill="#215B33" transform="translate(763,693)"/>
    <path id="c0_2" d="M0,0 L28,0 L44,2 L65,3 L82,6 L94,8 L112,13 L115,14 L120,15 L120,17 L125,18 L132,21 L142,26 L148,29 L148,31 L153,33 L159,36 L160,38 L164,40 L165,42 L168,43 L173,48 L174,51 L176,51 L176,53 L180,55 L180,57 L184,59 L185,62 L188,63 L193,69 L196,72 L196,75 L199,76 L202,81 L202,83 L206,85 L209,91 L213,95 L217,103 L220,106 L223,111 L229,119 L235,130 L237,134 L240,137 L239,140 L194,139 L175,137 L172,136 L155,134 L146,132 L134,129 L127,127 L122,125 L120,125 L120,123 L115,123 L96,113 L96,111 L92,111 L92,109 L86,107 L76,100 L76,98 L71,96 L64,90 L64,87 L61,87 L55,80 L49,75 L48,71 L46,71 L44,67 L40,63 L39,59 L36,58 L32,54 L29,48 L24,42 L21,36 L14,26 L6,12 L3,7 L0,3 Z " fill="#215B33" transform="translate(198,367)"/>
    <path id="c0_3" d="M0,0 L3,1 L3,28 L1,44 L0,65 L-3,82 L-5,94 L-10,112 L-11,115 L-12,120 L-14,120 L-15,125 L-18,132 L-23,142 L-26,148 L-28,148 L-30,153 L-33,159 L-35,160 L-37,164 L-39,165 L-40,168 L-45,173 L-48,174 L-48,176 L-50,176 L-52,180 L-54,180 L-56,184 L-59,185 L-60,188 L-66,193 L-69,196 L-72,196 L-73,199 L-78,202 L-80,202 L-82,206 L-88,209 L-92,213 L-100,217 L-103,220 L-108,223 L-116,229 L-127,235 L-131,237 L-134,240 L-137,239 L-136,194 L-134,175 L-133,172 L-131,155 L-129,146 L-126,134 L-124,127 L-122,122 L-122,120 L-120,120 L-120,115 L-110,96 L-108,96 L-108,92 L-106,92 L-104,86 L-97,76 L-95,76 L-93,71 L-87,64 L-84,64 L-84,61 L-77,55 L-72,49 L-68,48 L-68,46 L-64,44 L-60,40 L-56,39 L-55,36 L-51,32 L-45,29 L-39,24 L-33,21 L-23,14 L-9,6 L-4,3 Z " fill="#215B33" transform="translate(830,198)"/>
    <path id="c0_4" d="M0,0 L5,2 L5,4 L10,5 L24,13 L31,19 L36,21 L37,23 L48,29 L49,31 L56,35 L57,38 L62,40 L65,42 L65,44 L68,44 L71,47 L78,53 L78,55 L82,57 L83,60 L87,62 L87,64 L89,64 L89,66 L93,68 L97,72 L98,75 L101,77 L102,80 L105,83 L111,94 L111,96 L113,96 L115,101 L121,111 L123,118 L123,120 L125,120 L126,127 L129,134 L132,146 L134,159 L137,177 L138,198 L140,215 L140,239 L136,239 L122,231 L117,228 L107,221 L101,217 L94,213 L89,209 L86,208 L81,203 L81,201 L76,199 L71,195 L69,194 L69,192 L65,191 L60,185 L53,179 L53,176 L50,176 L43,168 L42,164 L39,163 L32,152 L31,148 L29,148 L25,141 L17,125 L17,120 L15,120 L14,116 L12,107 L9,100 L7,89 L5,80 L4,68 L2,56 L1,38 Z " fill="#215B33" transform="translate(693,762)"/>
    <path id="c0_5" d="M0,0 L7,0 L5,5 L3,5 L2,10 L-6,24 L-12,31 L-14,36 L-16,37 L-22,48 L-24,49 L-28,56 L-31,57 L-33,62 L-35,65 L-37,65 L-37,68 L-40,71 L-46,78 L-48,78 L-50,82 L-53,83 L-55,87 L-57,87 L-57,89 L-59,89 L-61,93 L-65,97 L-68,98 L-70,101 L-73,102 L-76,105 L-87,111 L-89,111 L-89,113 L-94,115 L-104,121 L-111,123 L-113,123 L-113,125 L-120,126 L-127,129 L-139,132 L-152,134 L-170,137 L-191,138 L-208,140 L-232,140 L-232,136 L-224,122 L-221,117 L-214,107 L-210,101 L-206,94 L-202,89 L-201,86 L-196,81 L-194,81 L-192,76 L-188,71 L-187,69 L-185,69 L-184,65 L-178,60 L-172,53 L-169,53 L-169,50 L-161,43 L-157,42 L-156,39 L-145,32 L-141,31 L-141,29 L-134,25 L-118,17 L-113,17 L-113,15 L-109,14 L-100,12 L-93,9 L-82,7 L-73,5 L-61,4 L-49,2 L-31,1 Z " fill="#215B33" transform="translate(431,693)"/>
    <path id="c0_6" d="M0,0 L27,0 L27,4 L19,18 L16,23 L9,33 L5,39 L1,46 L-3,51 L-4,54 L-9,59 L-11,59 L-13,64 L-17,69 L-18,71 L-20,71 L-21,75 L-27,80 L-33,87 L-36,87 L-36,90 L-44,97 L-48,98 L-49,101 L-60,108 L-64,109 L-64,111 L-71,115 L-87,123 L-92,123 L-92,125 L-96,126 L-105,128 L-112,131 L-123,133 L-132,135 L-144,136 L-156,138 L-174,139 L-212,140 L-210,135 L-208,135 L-207,130 L-199,116 L-193,109 L-191,104 L-189,103 L-183,92 L-181,91 L-177,84 L-174,83 L-172,78 L-170,75 L-168,75 L-168,72 L-165,69 L-159,62 L-157,62 L-155,58 L-152,57 L-150,53 L-148,53 L-148,51 L-146,51 L-144,47 L-140,43 L-137,42 L-135,39 L-132,38 L-129,35 L-118,29 L-116,29 L-116,27 L-111,25 L-101,19 L-94,17 L-92,17 L-92,15 L-85,14 L-78,11 L-66,8 L-53,6 L-35,3 L-14,2 Z " fill="#215B33" transform="translate(974,367)"/>
    <path id="c0_7" d="M0,0 L4,2 L10,5 L19,11 L25,14 L36,22 L42,25 L50,31 L53,32 L58,37 L58,39 L63,41 L68,45 L70,46 L70,48 L74,49 L79,55 L86,61 L86,64 L89,64 L96,72 L97,76 L100,77 L107,88 L108,92 L110,92 L114,99 L122,115 L122,120 L124,120 L125,124 L127,133 L130,140 L132,151 L134,160 L135,172 L137,184 L138,202 L139,240 L134,238 L134,236 L129,235 L115,227 L108,221 L103,219 L102,217 L91,211 L90,209 L83,205 L82,202 L77,200 L74,198 L74,196 L71,196 L68,193 L61,187 L61,185 L57,183 L56,180 L52,178 L52,176 L50,176 L50,174 L46,172 L42,168 L41,165 L38,163 L37,160 L34,157 L28,146 L28,144 L26,144 L24,139 L18,129 L16,122 L16,120 L14,120 L13,113 L10,106 L7,94 L5,81 L2,63 L1,42 L-1,25 L-1,1 Z " fill="#215B33" transform="translate(368,198)"/>
    <path id="c0_8" d="M0,0 L3,3 L8,13 L8,15 L10,15 L16,27 L22,39 L27,48 L30,55 L34,66 L39,78 L42,87 L47,107 L49,122 L49,156 L46,175 L42,191 L39,200 L34,212 L29,224 L25,233 L22,239 L16,251 L10,263 L8,263 L6,270 L1,277 L-1,275 L-6,265 L-6,263 L-8,263 L-14,251 L-20,239 L-25,230 L-31,214 L-34,207 L-37,200 L-40,191 L-45,171 L-47,156 L-48,135 L-46,115 L-43,99 L-40,87 L-37,78 L-32,66 L-28,55 L-22,43 L-16,31 L-8,15 L-6,15 L-4,8 Z " fill="#215B33" transform="translate(599,787)"/>
    <path id="c0_9" d="M0,0 L34,0 L53,3 L69,7 L78,10 L90,15 L102,20 L111,24 L117,27 L129,33 L141,39 L141,41 L148,43 L155,48 L153,50 L143,55 L141,55 L141,57 L129,63 L117,69 L108,74 L92,80 L85,83 L78,86 L69,89 L49,94 L34,96 L13,97 L-7,95 L-23,92 L-35,89 L-44,86 L-56,81 L-67,77 L-79,71 L-91,65 L-107,57 L-107,55 L-114,53 L-122,49 L-119,46 L-109,41 L-107,41 L-107,39 L-95,33 L-83,27 L-74,22 L-67,19 L-56,15 L-44,10 L-35,7 L-15,2 Z " fill="#215B33" transform="translate(909,552)"/>
    <path id="c0_10" d="M0,0 L21,1 L40,4 L56,8 L65,11 L77,16 L88,20 L100,26 L112,32 L128,40 L128,42 L135,44 L143,48 L140,51 L130,56 L128,56 L128,58 L116,64 L104,70 L95,75 L88,78 L77,82 L65,87 L56,90 L36,95 L21,97 L-13,97 L-32,94 L-48,90 L-57,87 L-69,82 L-81,77 L-90,73 L-96,70 L-108,64 L-120,58 L-120,56 L-127,54 L-134,49 L-132,47 L-122,42 L-120,42 L-120,40 L-108,34 L-96,28 L-87,23 L-71,17 L-64,14 L-57,11 L-48,8 L-28,3 L-13,1 Z " fill="#215B33" transform="translate(270,551)"/>
    <path id="c0_11" d="M0,0 L2,2 L7,12 L7,14 L9,14 L15,26 L21,38 L26,47 L32,63 L35,70 L38,77 L41,86 L46,106 L48,121 L49,142 L47,162 L44,178 L41,190 L38,199 L33,211 L29,222 L23,234 L17,246 L9,262 L7,262 L5,269 L1,277 L-2,274 L-7,264 L-7,262 L-9,262 L-15,250 L-21,238 L-26,229 L-29,222 L-33,211 L-38,199 L-41,190 L-46,170 L-48,155 L-48,121 L-45,102 L-41,86 L-38,77 L-33,65 L-28,53 L-24,44 L-21,38 L-15,26 L-9,14 L-7,14 L-5,7 Z " fill="#215B33" transform="translate(600,136)"/>
    <path id="c0_12" d="M0,0 L2,1 L4,7 L6,7 L6,10 L8,10 L14,20 L18,27 L20,32 L23,37 L26,47 L26,61 L21,72 L19,73 L18,76 L16,76 L16,78 L14,78 L14,80 L11,80 L10,84 L6,84 L6,86 L-2,91 L-11,96 L-14,96 L-14,98 L-24,102 L-27,103 L-27,100 L-29,100 L-33,94 L-35,89 L-38,86 L-40,80 L-42,80 L-44,72 L-46,72 L-50,61 L-51,45 L-48,36 L-44,30 L-38,23 L-27,16 L-22,14 L-22,12 L-17,10 L-11,7 L-9,5 L-2,3 Z " fill="#215B33" transform="translate(568,714)"/>
    <path id="c0_13" d="M0,0 L14,0 L25,5 L26,7 L29,8 L29,10 L31,10 L31,12 L33,12 L33,15 L37,16 L37,20 L39,20 L44,28 L49,37 L49,40 L51,40 L55,50 L56,53 L53,53 L53,55 L47,59 L42,61 L39,64 L33,66 L33,68 L25,70 L25,72 L14,76 L-2,77 L-11,74 L-17,70 L-24,64 L-31,53 L-33,48 L-35,48 L-37,43 L-40,37 L-42,35 L-44,28 L-47,25 L-42,22 L-40,22 L-40,20 L-37,20 L-37,18 L-27,12 L-20,8 L-15,6 L-10,3 Z " fill="#215B33" transform="translate(761,606)"/>
    <path id="c0_14" d="M0,0 L7,0 L16,3 L22,7 L29,13 L36,24 L38,29 L40,29 L42,34 L45,40 L47,42 L49,49 L52,52 L47,55 L45,55 L45,57 L42,57 L42,59 L32,65 L25,69 L20,71 L15,74 L5,77 L-9,77 L-20,72 L-21,70 L-24,69 L-24,67 L-26,67 L-26,65 L-28,65 L-28,62 L-32,61 L-32,57 L-34,57 L-39,49 L-44,40 L-44,37 L-46,37 L-50,27 L-51,24 L-48,24 L-48,22 L-42,18 L-37,16 L-34,13 L-28,11 L-28,9 L-20,7 L-20,5 L-9,1 Z " fill="#215B33" transform="translate(434,517)"/>
    <path id="c0_15" d="M0,0 L1,3 L3,3 L7,9 L9,14 L12,17 L14,23 L16,23 L18,31 L20,31 L24,42 L25,58 L22,67 L18,73 L12,80 L1,87 L-4,89 L-4,91 L-9,93 L-15,96 L-17,98 L-24,100 L-27,103 L-30,98 L-30,96 L-32,96 L-32,93 L-34,93 L-40,83 L-44,76 L-46,71 L-49,66 L-52,56 L-52,42 L-47,31 L-45,30 L-44,27 L-42,27 L-42,25 L-40,25 L-40,23 L-37,23 L-36,19 L-32,19 L-32,17 L-24,12 L-15,7 L-12,7 L-12,5 L-2,1 Z " fill="#215B33" transform="translate(658,383)"/>
    <path id="c0_16" d="M0,0 L4,2 L12,4 L13,6 L19,9 L24,11 L24,13 L29,15 L40,22 L47,30 L52,39 L53,47 L52,60 L48,71 L46,71 L44,79 L42,79 L40,85 L37,88 L35,93 L31,99 L27,102 L18,98 L16,97 L16,95 L11,94 L3,89 L-4,85 L-4,83 L-8,83 L-9,79 L-12,79 L-12,77 L-14,77 L-14,75 L-16,75 L-17,72 L-20,70 L-24,60 L-24,46 L-20,34 L-17,30 L-14,23 L-6,9 L-4,9 L-4,6 L-2,6 Z " fill="#215B33" transform="translate(630,715)"/>
    <path id="c0_17" d="M0,0 L14,0 L26,4 L30,7 L37,10 L51,18 L51,20 L54,20 L54,22 L60,24 L58,28 L56,36 L54,37 L51,43 L49,48 L47,48 L45,53 L38,64 L30,71 L21,76 L13,77 L0,76 L-11,72 L-11,70 L-19,68 L-19,66 L-25,64 L-28,61 L-33,59 L-39,55 L-42,51 L-38,42 L-37,40 L-35,40 L-34,35 L-29,27 L-25,20 L-23,20 L-23,16 L-19,15 L-19,12 L-17,12 L-17,10 L-15,10 L-15,8 L-12,7 L-10,4 Z " fill="#215B33" transform="translate(425,606)"/>
    <path id="c0_18" d="M0,0 L16,1 L27,5 L27,7 L35,9 L35,11 L41,13 L44,16 L49,18 L55,22 L58,26 L54,35 L53,37 L51,37 L50,42 L45,50 L41,57 L39,57 L39,61 L35,62 L35,65 L33,65 L33,67 L31,67 L31,69 L28,70 L26,73 L16,77 L2,77 L-10,73 L-14,70 L-21,67 L-35,59 L-35,57 L-38,57 L-38,55 L-44,53 L-42,49 L-40,41 L-38,40 L-35,34 L-33,29 L-31,29 L-29,24 L-22,13 L-14,6 L-5,1 Z " fill="#215B33" transform="translate(759,517)"/>
    <path id="c0_19" d="M0,0 L12,5 L12,7 L17,8 L25,13 L32,17 L32,19 L36,19 L37,23 L40,23 L40,25 L42,25 L42,27 L44,27 L45,30 L48,32 L52,42 L52,56 L48,68 L45,72 L42,79 L34,93 L32,93 L32,96 L30,96 L28,102 L24,100 L16,98 L15,96 L9,93 L4,91 L4,89 L-1,87 L-12,80 L-19,72 L-24,63 L-25,55 L-24,42 L-20,31 L-18,31 L-16,23 L-14,23 L-12,17 L-9,14 L-7,9 L-3,3 Z " fill="#215B33" transform="translate(542,383)"/>
    <path id="c0_20" d="M0,0 L36,0 L40,2 L49,4 L54,7 L54,9 L59,11 L63,16 L67,25 L69,47 L69,69 L67,76 L54,77 L39,77 L17,75 L7,70 L2,65 L1,62 L-1,62 L-5,54 L-7,46 L-8,43 L-8,8 L-7,1 Z " fill="#215B33" transform="translate(691,683)"/>
    <path id="c0_21" d="M0,0 L36,0 L43,1 L44,12 L44,44 L42,48 L40,57 L37,62 L35,62 L33,67 L28,71 L19,75 L-3,77 L-25,77 L-32,75 L-33,62 L-33,47 L-31,25 L-26,15 L-21,10 L-18,9 L-18,7 L-10,3 L-2,1 Z " fill="#215B33" transform="translate(473,683)"/>
    <path id="c0_22" d="M0,0 L22,0 L29,2 L30,15 L30,30 L28,52 L23,62 L18,67 L15,68 L15,70 L7,74 L-1,76 L-4,77 L-39,77 L-46,76 L-47,65 L-47,33 L-45,29 L-43,20 L-40,15 L-38,15 L-36,10 L-31,6 L-22,2 Z " fill="#215B33" transform="translate(730,440)"/>
    <path id="c0_23" d="M0,0 L22,0 L44,2 L54,7 L59,12 L60,15 L62,15 L66,23 L68,31 L69,34 L69,69 L68,76 L57,77 L25,77 L21,75 L12,73 L7,70 L7,68 L2,66 L-2,61 L-6,52 L-8,30 L-8,8 L-6,1 Z " fill="#215B33" transform="translate(448,440)"/>
    <path id="c0_24" d="M0,0 L11,0 L23,4 L32,11 L39,20 L43,32 L43,43 L39,55 L33,63 L31,63 L29,67 L23,71 L11,75 L0,75 L-12,71 L-21,64 L-28,55 L-32,43 L-32,32 L-28,20 L-22,12 L-15,6 L-10,3 Z " fill="#215B33" transform="translate(595,563)"/>
    <path id="c0_25" d="M0,0 L7,0 L15,4 L21,12 L21,24 L17,31 L12,35 L9,36 L-3,36 L-11,30 L-15,22 L-15,15 L-11,7 L-3,1 Z " fill="#215B33" transform="translate(597,658)"/>
    <path id="c0_26" d="M0,0 L7,0 L15,4 L21,12 L21,24 L17,31 L12,35 L9,36 L-3,36 L-11,30 L-15,22 L-15,15 L-11,7 L-3,1 Z " fill="#215B33" transform="translate(673,582)"/>
    <path id="c0_27" d="M0,0 L7,0 L15,4 L21,12 L21,24 L17,31 L12,35 L9,36 L-3,36 L-11,30 L-15,22 L-15,15 L-11,7 L-3,1 Z " fill="#215B33" transform="translate(521,582)"/>
    <path id="c0_28" d="M0,0 L7,0 L15,4 L21,12 L21,24 L17,31 L12,35 L9,36 L-3,36 L-11,30 L-15,22 L-15,15 L-11,7 L-3,1 Z " fill="#215B33" transform="translate(597,506)"/>
    <path id="c0_29" d="M0,0 L8,0 L16,4 L16,6 L19,7 L22,14 L22,22 L18,30 L16,30 L15,33 L8,36 L0,36 L-8,32 L-8,30 L-11,29 L-14,22 L-14,14 L-10,6 L-8,6 L-7,3 Z " fill="#215B33" transform="translate(650,636)"/>
    <path id="c0_30" d="M0,0 L8,0 L16,4 L16,6 L19,7 L22,14 L22,22 L18,30 L16,30 L15,33 L8,36 L0,36 L-8,32 L-8,30 L-11,29 L-14,22 L-14,14 L-10,6 L-8,6 L-7,3 Z " fill="#215B33" transform="translate(542,636)"/>
    <path id="c0_31" d="M0,0 L8,0 L16,4 L16,6 L19,7 L22,14 L22,22 L18,30 L16,30 L15,33 L8,36 L0,36 L-8,32 L-8,30 L-11,29 L-14,22 L-14,14 L-10,6 L-8,6 L-7,3 Z " fill="#215B33" transform="translate(650,528)"/>
    <path id="c0_32" d="M0,0 L8,0 L16,4 L16,6 L19,7 L22,14 L22,22 L18,30 L16,30 L15,33 L8,36 L0,36 L-8,32 L-8,30 L-11,29 L-14,22 L-14,14 L-10,6 L-8,6 L-7,3 Z " fill="#215B33" transform="translate(542,528)"/>
    <path id="c0_33" d="M0,0 L7,1 L12,7 L11,14 L5,19 L-2,18 L-7,12 L-6,5 Z " fill="#215B33" transform="translate(598,1091)"/>
    <path id="c0_34" d="M0,0 L7,1 L12,7 L11,14 L5,19 L-2,18 L-7,12 L-6,5 Z " fill="#215B33" transform="translate(709,1078)"/>
    <path id="c0_35" d="M0,0 L7,1 L12,7 L11,14 L5,19 L-2,18 L-7,12 L-6,5 Z " fill="#215B33" transform="translate(486,1078)"/>
    <path id="c0_36" d="M0,0 L7,1 L12,7 L11,14 L5,19 L-2,18 L-7,12 L-6,5 Z " fill="#215B33" transform="translate(1085,702)"/>
    <path id="c0_37" d="M0,0 L7,1 L12,7 L11,14 L5,19 L-2,18 L-7,12 L-6,5 Z " fill="#215B33" transform="translate(110,702)"/>
    <path id="c0_38" d="M0,0 L7,1 L12,7 L11,14 L5,19 L-2,18 L-7,12 L-6,5 Z " fill="#215B33" transform="translate(1098,591)"/>
    <path id="c0_39" d="M0,0 L7,1 L12,7 L11,14 L5,19 L-2,18 L-7,12 L-6,5 Z " fill="#215B33" transform="translate(98,591)"/>
    <path id="c0_40" d="M0,0 L7,1 L12,7 L11,14 L5,19 L-2,18 L-7,12 L-6,5 Z " fill="#215B33" transform="translate(1085,479)"/>
    <path id="c0_41" d="M0,0 L7,1 L12,7 L11,14 L5,19 L-2,18 L-7,12 L-6,5 Z " fill="#215B33" transform="translate(110,479)"/>
    <path id="c0_42" d="M0,0 L7,1 L12,7 L11,14 L5,19 L-2,18 L-7,12 L-6,5 Z " fill="#215B33" transform="translate(709,103)"/>
    <path id="c0_43" d="M0,0 L7,1 L12,7 L11,14 L5,19 L-2,18 L-7,12 L-6,5 Z " fill="#215B33" transform="translate(486,103)"/>
    <path id="c0_44" d="M0,0 L7,1 L12,7 L11,14 L5,19 L-2,18 L-7,12 L-6,5 Z " fill="#215B33" transform="translate(597,91)"/>
    <path id="c0_45" d="M0,0 L9,0 L11,4 L13,4 L14,6 L14,12 L9,17 L2,18 L-2,16 L-5,12 L-5,6 L-4,4 L-2,4 Z " fill="#215B33" transform="translate(907,982)"/>
    <path id="c0_46" d="M0,0 L9,0 L11,4 L13,4 L14,6 L14,12 L9,17 L2,18 L-2,16 L-5,12 L-5,6 L-4,4 L-2,4 Z " fill="#215B33" transform="translate(284,982)"/>
    <path id="c0_47" d="M0,0 L6,0 L11,5 L12,12 L10,16 L6,19 L0,19 L-2,18 L-2,16 L-6,14 L-6,5 L-2,3 L-2,1 Z " fill="#215B33" transform="translate(988,902)"/>
    <path id="c0_48" d="M0,0 L6,0 L8,1 L8,3 L12,5 L12,14 L8,16 L8,18 L6,19 L0,19 L-5,14 L-6,7 L-4,3 Z " fill="#215B33" transform="translate(206,902)"/>
    <path id="c0_49" d="M0,0 L6,0 L11,5 L12,12 L10,16 L6,19 L0,19 L-2,18 L-2,16 L-6,14 L-6,5 L-2,3 L-2,1 Z " fill="#215B33" transform="translate(988,279)"/>
    <path id="c0_50" d="M0,0 L6,0 L8,1 L8,3 L12,5 L12,14 L8,16 L8,18 L6,19 L0,19 L-5,14 L-6,7 L-4,3 Z " fill="#215B33" transform="translate(206,279)"/>
    <path id="c0_51" d="M0,0 L7,1 L12,6 L12,12 L11,14 L9,14 L7,18 L-2,18 L-4,14 L-6,14 L-7,12 L-7,6 L-2,1 Z " fill="#215B33" transform="translate(909,200)"/>
    <path id="c0_52" d="M0,0 L7,1 L12,6 L12,12 L11,14 L9,14 L7,18 L-2,18 L-4,14 L-6,14 L-7,12 L-7,6 L-2,1 Z " fill="#215B33" transform="translate(286,200)"/>
    <path id="c0_53" d="M0,0 L9,0 L9,2 L11,2 L11,4 L13,4 L13,13 L9,17 L7,18 L1,18 L-3,16 L-5,12 L-5,6 L-3,2 Z " fill="#215B33" transform="translate(813,1042)"/>
    <path id="c0_54" d="M0,0 L9,0 L13,4 L14,6 L14,12 L12,16 L8,18 L2,18 L-2,16 L-4,13 L-4,4 L-2,4 L-2,2 L0,2 Z " fill="#215B33" transform="translate(378,1042)"/>
    <path id="c0_55" d="M0,0 L6,0 L10,2 L12,6 L12,12 L10,16 L7,18 L-2,18 L-2,16 L-4,16 L-4,14 L-6,14 L-6,5 L-2,1 Z " fill="#215B33" transform="translate(1048,808)"/>
    <path id="c0_56" d="M0,0 L6,0 L10,2 L12,5 L12,14 L10,14 L10,16 L8,16 L8,18 L-1,18 L-5,14 L-6,12 L-6,6 L-4,2 Z " fill="#215B33" transform="translate(146,808)"/>
    <path id="c0_57" d="M0,0 L9,0 L13,4 L14,6 L14,12 L12,16 L8,18 L2,18 L-2,16 L-4,13 L-4,4 L-2,4 L-2,2 L0,2 Z " fill="#215B33" transform="translate(1046,374)"/>
    <path id="c0_58" d="M0,0 L9,0 L9,2 L11,2 L11,4 L13,4 L13,13 L9,17 L7,18 L1,18 L-3,16 L-5,12 L-5,6 L-3,2 Z " fill="#215B33" transform="translate(145,374)"/>
    <path id="c0_59" d="M0,0 L6,0 L10,2 L12,5 L12,14 L10,14 L10,16 L8,16 L8,18 L-1,18 L-5,14 L-6,12 L-6,6 L-4,2 Z " fill="#215B33" transform="translate(814,140)"/>
    <path id="c0_60" d="M0,0 L6,0 L10,2 L12,6 L12,12 L10,16 L7,18 L-2,18 L-2,16 L-4,16 L-4,14 L-6,14 L-6,5 L-2,1 Z " fill="#215B33" transform="translate(380,140)"/>
  </g>
</svg>
