<?xml version='1.0' encoding='UTF-8'?>
<svg xmlns="http://www.w3.org/2000/svg" xmlns:inkscape="http://www.inkscape.org/namespaces/inkscape" version="1.1" width="90.0mm" height="95.0mm" viewBox="0 0 900 950">
  <g id="color1_1800" inkscape:label="1800 Black">
    <path id="c1_0" d="M0,0 L7,1 L13,6 L21,16 L35,33 L49,50 L63,67 L77,84 L91,101 L105,118 L119,135 L133,152 L141,162 L164,160 L238,152 L239,153 L240,160 L241,153 L243,152 L335,162 L340,161 L351,148 L360,137 L369,126 L383,109 L397,92 L411,75 L425,58 L439,41 L453,24 L467,7 L472,2 L476,0 L483,1 L488,6 L489,8 L489,15 L454,207 L454,212 L470,237 L484,259 L500,284 L504,292 L506,306 L513,376 L513,389 L483,479 L476,491 L464,508 L440,544 L419,575 L412,582 L404,589 L394,598 L386,605 L376,614 L368,621 L358,630 L350,637 L340,646 L332,653 L324,659 L278,678 L244,692 L237,692 L200,677 L156,659 L143,648 L131,637 L123,630 L113,621 L105,614 L95,605 L87,598 L77,589 L69,582 L61,575 L49,557 L20,514 L-2,481 L-33,388 L-33,378 L-25,298 L-22,288 L-11,270 L0,253 L14,231 L26,212 L25,202 L-9,15 L-8,6 L-3,1 Z " fill="#2F3032" transform="translate(210,85)"/>
    <path id="c1_1" d="M0,0 L65,0 L68,4 L67,8 L59,15 L46,28 L39,34 L38,37 L39,74 L43,80 L71,97 L77,102 L78,107 L75,110 L68,109 L40,92 L37,90 L31,89 L24,92 L2,105 L-6,110 L-12,109 L-14,104 L-9,98 L18,82 L24,77 L26,73 L27,39 L24,33 L15,24 L7,17 L-3,7 L-2,2 Z " fill="#2F3032" transform="translate(418,520)"/>
  </g>
  <g id="color0_1869" inkscape:label="1869 Golden Earth">
    <path id="c0_0" d="M0,0 L24,0 L79,6 L84,8 L86,10 L86,15 L76,27 L73,33 L73,39 L78,45 L81,46 L94,47 L198,51 L205,53 L212,59 L224,78 L238,100 L249,117 L252,129 L259,199 L258,210 L233,285 L226,298 L213,317 L210,320 L208,320 L206,326 L199,337 L194,342 L190,351 L174,375 L164,386 L156,393 L146,402 L138,409 L128,418 L120,425 L110,434 L102,441 L92,450 L81,458 L60,467 L55,469 L48,469 L49,464 L58,455 L65,449 L74,435 L89,408 L101,387 L108,375 L111,366 L116,339 L119,332 L120,318 L123,306 L124,304 L126,282 L123,272 L108,241 L97,218 L95,213 L96,208 L98,206 L114,205 L125,202 L135,197 L142,191 L149,180 L151,173 L151,161 L147,150 L141,142 L131,135 L122,131 L113,129 L100,129 L88,132 L78,137 L68,146 L62,158 L61,163 L61,171 L64,182 L66,185 L65,190 L64,191 L57,191 L22,182 L3,182 L-32,191 L-40,191 L-42,189 L-41,184 L-37,173 L-37,161 L-41,150 L-47,142 L-57,135 L-66,131 L-75,129 L-88,129 L-100,132 L-110,137 L-120,146 L-126,158 L-127,163 L-127,171 L-124,182 L-117,192 L-109,198 L-98,203 L-89,205 L-74,206 L-71,209 L-72,216 L-89,251 L-101,277 L-101,289 L-100,298 L-100,304 L-97,311 L-95,322 L-95,332 L-92,338 L-86,369 L-78,385 L-64,410 L-50,434 L-43,446 L-38,452 L-27,461 L-23,466 L-24,469 L-33,468 L-57,458 L-66,451 L-77,441 L-85,434 L-95,425 L-103,418 L-113,409 L-121,402 L-131,393 L-139,386 L-145,381 L-154,369 L-167,349 L-171,341 L-180,330 L-185,320 L-190,315 L-206,291 L-212,275 L-234,209 L-234,191 L-228,131 L-226,120 L-219,108 L-203,83 L-187,58 L-180,52 L-178,51 L-76,47 L-57,46 L-51,43 L-49,40 L-49,32 L-55,23 L-62,15 L-61,9 L-59,7 L-45,5 Z " fill="#DD883A" transform="translate(438,264)"/>
    <path id="c0_1" d="M0,0 L5,0 L9,9 L32,83 L34,90 L33,96 L27,101 L23,102 L18,99 L16,96 L0,7 Z " fill="#DD883A" transform="translate(239,179)"/>
    <path id="c0_2" d="M0,0 L5,0 L4,13 L-11,96 L-16,101 L-19,102 L-25,99 L-29,94 L-28,86 L-10,29 L-2,3 Z " fill="#DD883A" transform="translate(656,179)"/>
  </g>
  <g id="color2_1803" inkscape:label="1803 Lily White">
    <path id="c2_0" d="M0,0 L11,1 L61,14 L67,18 L72,26 L93,69 L99,83 L99,92 L86,163 L82,173 L68,197 L53,224 L45,237 L34,248 L23,257 L10,269 L7,271 L-1,271 L-11,262 L-22,253 L-38,238 L-46,225 L-60,200 L-72,179 L-79,165 L-84,140 L-93,91 L-93,84 L-88,72 L-70,35 L-62,19 L-55,14 L-5,1 Z " fill="#EDECDF" transform="translate(447,462)"/>
    <path id="c2_1" d="M0,0 L5,2 L17,16 L30,31 L43,46 L53,58 L54,62 L51,67 L27,77 L22,76 L18,72 L-2,8 L-2,2 Z " fill="#EDECDF" transform="translate(267,191)"/>
    <path id="c2_2" d="M0,0 L4,1 L5,5 L-1,26 L-15,71 L-21,76 L-26,75 L-47,66 L-50,62 L-49,56 L-39,45 L-30,34 L-19,22 L-10,11 Z " fill="#EDECDF" transform="translate(630,192)"/>
    <path id="c2_3" d="M0,0 L8,0 L14,5 L16,12 L14,17 L9,22 L3,23 L-3,20 L-7,15 L-7,7 L-2,1 Z " fill="#EDECDF" transform="translate(558,409)"/>
    <path id="c2_4" d="M0,0 L8,0 L14,5 L16,12 L14,17 L9,22 L3,23 L-3,20 L-7,15 L-7,7 L-2,1 Z " fill="#EDECDF" transform="translate(370,409)"/>
  </g>
  <g id="color3_1915" inkscape:label="1915 Emily Pink">
    <path id="c3_0" d="M0,0 L16,0 L29,3 L42,9 L45,10 L49,19 L51,30 L51,37 L50,40 L45,42 L45,44 L35,51 L23,55 L18,56 L-1,56 L-17,52 L-25,49 L-34,38 L-38,28 L-31,15 L-23,8 L-13,3 Z " fill="#FDAFB7" transform="translate(292,556)"/>
    <path id="c3_1" d="M0,0 L16,0 L29,3 L41,9 L49,17 L54,28 L52,34 L45,45 L40,50 L23,55 L18,56 L-1,56 L-13,53 L-25,47 L-32,41 L-34,40 L-34,26 L-31,14 L-26,9 L-10,2 Z " fill="#FDAFB7" transform="translate(592,556)"/>
  </g>
</svg>
