<?xml version='1.0' encoding='UTF-8'?>
<svg xmlns="http://www.w3.org/2000/svg" xmlns:inkscape="http://www.inkscape.org/namespaces/inkscape" version="1.1" width="85.0mm" height="92.63mm" viewBox="0 0 334 364">
  <g id="color0_1812" inkscape:label="1812 Vapor Blue">
    <path id="c0_0" d="M0,0 L7,1 L14,7 L27,11 L29,4 L34,2 L41,22 L43,27 L45,28 L61,30 L82,36 L83,40 L82,41 L66,40 L57,39 L58,43 L67,46 L67,50 L62,51 L59,51 L60,60 L72,74 L76,77 L77,82 L75,86 L74,97 L72,102 L72,114 L71,118 L71,125 L74,125 L77,120 L81,116 L84,110 L87,105 L87,99 L82,92 L82,86 L86,82 L85,76 L82,71 L83,67 L87,68 L94,75 L98,76 L100,74 L99,66 L98,63 L98,56 L101,51 L106,52 L111,62 L112,80 L109,87 L107,105 L102,122 L97,130 L94,133 L91,134 L59,135 L56,133 L54,123 L52,119 L44,119 L34,106 L32,103 L29,104 L28,126 L27,133 L24,135 L-37,135 L-52,134 L-57,132 L-60,122 L-59,109 L-62,103 L-61,100 L-58,101 L-54,96 L-50,97 L-49,112 L-52,117 L-52,125 L-48,129 L-47,129 L-46,110 L-45,102 L-43,92 L-38,88 L-34,84 L-31,77 L-32,72 L-35,68 L-33,63 L-29,54 L-24,41 L-29,42 L-31,44 L-31,54 L-35,60 L-42,66 L-46,67 L-52,66 L-56,66 L-55,70 L-50,73 L-49,77 L-53,84 L-60,84 L-65,80 L-69,73 L-77,75 L-78,71 L-76,61 L-73,58 L-66,58 L-57,53 L-53,45 L-50,36 L-47,34 L-47,31 L-53,29 L-53,26 L-51,24 L-48,24 L-48,21 L-54,19 L-54,10 L-51,7 L-46,9 L-41,14 L-31,16 L-30,19 L-32,25 L-27,25 L-25,21 L-25,16 L-24,15 L-23,8 L-19,7 L-15,13 L-12,15 L-9,10 L-6,3 Z " fill="#A9AAA4" transform="translate(137,227)"/>
    <path id="c0_1" d="M0,0 L2,0 L-1,9 L-3,12 L-3,16 L1,15 L4,11 L15,10 L22,20 L29,37 L31,37 L33,34 L34,41 L37,45 L39,55 L40,57 L41,69 L42,71 L43,80 L47,85 L38,86 L34,83 L36,73 L37,66 L32,50 L29,50 L24,58 L19,62 L11,61 L10,65 L17,78 L21,80 L30,81 L30,85 L23,87 L9,86 L3,84 L0,80 L-2,75 L-7,48 L-11,37 L-13,34 L-13,26 L-8,14 L-3,4 Z " fill="#A9AAA4" transform="translate(13,276)"/>
    <path id="c0_2" d="M0,0 L2,4 L10,25 L6,30 L3,34 L-5,34 L-6,35 L-6,42 L-3,52 L-3,57 L-7,59 L-11,54 L-14,42 L-17,36 L-25,31 L-25,27 L-23,25 L-23,23 L-26,21 L-25,16 L-13,16 L-14,13 L-18,10 L-18,6 L-11,7 L-6,9 L-4,2 Z " fill="#A9AAA4" transform="translate(170,229)"/>
    <path id="c0_3" d="M0,0 L5,1 L6,7 L3,16 L2,25 L3,26 L11,27 L11,31 L6,35 L1,31 L-2,28 L-6,30 L-7,39 L-1,41 L-1,44 L-6,47 L-5,49 L1,51 L0,55 L-3,57 L-7,70 L-11,74 L-10,64 L-12,63 L-11,57 L-10,53 L-12,47 L-16,46 L-19,46 L-17,44 L-15,28 L-12,21 L-11,16 L-18,17 L-20,14 L-20,11 L-12,11 L-8,13 L-3,13 L-1,1 Z " fill="#A9AAA4" transform="translate(90,207)"/>
    <path id="c0_4" d="M0,0 L334,0 L334,2 L332,3 L30,3 L0,2 Z " fill="#A9AAA4" transform="translate(0,0)"/>
    <path id="c0_5" d="M0,0 L10,0 L26,4 L36,7 L37,11 L36,12 L20,11 L11,10 L12,14 L21,17 L21,21 L16,22 L13,22 L13,30 L10,29 L9,16 L5,5 Z " fill="#A9AAA4" transform="translate(183,256)"/>
    <path id="c0_6" d="M0,0 L4,1 L11,9 L21,13 L27,20 L27,22 L30,23 L30,30 L29,34 L25,34 L21,26 L12,20 L1,7 L-1,5 Z " fill="#A9AAA4" transform="translate(173,62)"/>
    <path id="c0_7" d="M0,0 L4,4 L8,10 L16,12 L13,16 L11,16 L9,25 L7,28 L4,23 L1,23 L4,33 L6,39 L6,46 L4,49 L2,34 L-1,28 L-1,11 L-7,4 L-6,2 Z " fill="#A9AAA4" transform="translate(67,299)"/>
    <path id="c0_8" d="M0,0 L3,1 L2,6 L-5,11 L-6,16 L-5,21 L-10,28 L-13,29 L-17,25 L-17,18 L-13,10 L-8,5 Z " fill="#A9AAA4" transform="translate(62,60)"/>
    <path id="c0_9" d="M0,0 L4,2 L7,14 L8,16 L9,28 L10,30 L11,39 L15,44 L6,45 L2,42 L4,32 L5,25 L0,9 Z " fill="#A9AAA4" transform="translate(45,317)"/>
    <path id="c0_10" d="M0,0 L6,2 L6,5 L1,8 L2,10 L8,12 L7,16 L4,18 L0,31 L-4,35 L-3,25 L-5,24 L-4,18 L-3,14 L-3,7 Z " fill="#A9AAA4" transform="translate(83,246)"/>
    <path id="c0_11" d="M0,0 L2,4 L3,7 L6,9 L3,13 L1,23 L-5,25 L-11,33 L-12,33 L-12,28 L-7,23 L-7,18 L-8,14 L-2,6 Z " fill="#A9AAA4" transform="translate(58,277)"/>
    <path id="c0_12" d="M0,0 L4,0 L7,6 L10,10 L9,20 L4,21 L2,18 L0,9 L-2,5 L-1,1 Z " fill="#A9AAA4" transform="translate(53,160)"/>
    <path id="c0_13" d="M0,0 L4,1 L8,5 L7,9 L3,13 L4,19 L-1,20 L-4,16 L-2,3 Z " fill="#A9AAA4" transform="translate(20,297)"/>
    <path id="c0_14" d="M0,0 L4,4 L9,4 L13,3 L14,7 L9,14 L6,16 L3,16 L-2,5 L-2,1 Z " fill="#A9AAA4" transform="translate(160,211)"/>
    <path id="c0_15" d="M0,0 L7,0 L14,2 L20,9 L19,13 L15,12 L9,6 L-2,5 L-2,1 Z " fill="#A9AAA4" transform="translate(210,272)"/>
    <path id="c0_16" d="M0,0 L10,0 L8,4 L2,12 L0,12 L0,21 L-5,23 L-7,20 L-3,14 L0,5 L1,3 Z " fill="#A9AAA4" transform="translate(95,10)"/>
    <path id="c0_17" d="M0,0 L2,4 L4,16 L7,21 L3,23 L-1,13 L-3,11 L-7,12 L-12,13 L-14,9 L-10,10 L-2,4 Z " fill="#A9AAA4" transform="translate(38,159)"/>
    <path id="c0_18" d="M0,0 L4,1 L4,6 L2,6 L2,11 L-1,14 L-2,20 L-6,18 L-7,12 L-3,6 L-1,1 Z " fill="#A9AAA4" transform="translate(78,139)"/>
    <path id="c0_19" d="M0,0 L1,2 L6,4 L7,7 L2,12 L-2,11 L-5,11 L-9,18 L-10,15 L-7,9 L-3,4 Z " fill="#A9AAA4" transform="translate(42,56)"/>
    <path id="c0_20" d="M0,0 L4,0 L7,9 L4,14 L1,15 L-3,12 L-2,7 Z " fill="#A9AAA4" transform="translate(191,47)"/>
    <path id="c0_21" d="M0,0 L3,2 L1,6 L-5,11 L-10,10 L-11,5 L-2,1 Z " fill="#A9AAA4" transform="translate(141,37)"/>
    <path id="c0_22" d="M0,0 L6,0 L8,4 L6,6 L-3,6 L-5,3 Z " fill="#A9AAA4" transform="translate(79,39)"/>
    <path id="c0_23" d="M0,0 L4,2 L6,7 L6,13 L2,11 L-2,5 L-1,1 Z " fill="#A9AAA4" transform="translate(200,62)"/>
    <path id="c0_24" d="M0,0 L5,1 L6,7 L4,11 L3,9 L-1,8 L-1,1 Z " fill="#A9AAA4" transform="translate(90,207)"/>
    <path id="c0_25" d="M0,0 L3,0 L6,6 L5,11 L0,9 L-2,2 Z " fill="#A9AAA4" transform="translate(68,178)"/>
    <path id="c0_26" d="M0,0 L4,1 L4,5 L-4,11 L-5,9 L-2,1 Z " fill="#A9AAA4" transform="translate(82,51)"/>
    <path id="c0_27" d="M0,0 L5,1 L6,5 L3,8 L-2,7 L-1,1 Z " fill="#A9AAA4" transform="translate(33,134)"/>
    <path id="c0_28" d="M0,0 L6,0 L8,3 L7,8 L3,6 L0,3 Z " fill="#A9AAA4" transform="translate(31,111)"/>
    <path id="c0_29" d="M0,0 L2,1 L3,6 L5,7 L3,12 L0,11 L-1,6 L-3,4 L-2,1 Z " fill="#A9AAA4" transform="translate(216,159)"/>
    <path id="c0_30" d="M0,0 L5,5 L7,9 L2,10 L-1,4 L-2,1 Z " fill="#A9AAA4" transform="translate(151,236)"/>
    <path id="c0_31" d="M0,0 L3,2 L1,6 L-2,10 L-4,10 L-4,5 Z " fill="#A9AAA4" transform="translate(41,94)"/>
    <path id="c0_32" d="M0,0 L4,2 L3,7 L-2,8 L-1,1 Z " fill="#A9AAA4" transform="translate(165,65)"/>
    <path id="c0_33" d="M0,0 L4,1 L7,4 L5,7 L2,7 L-1,3 Z " fill="#A9AAA4" transform="translate(203,47)"/>
    <path id="c0_34" d="M0,0 L4,1 L2,8 L-2,7 L-1,2 Z " fill="#A9AAA4" transform="translate(103,243)"/>
    <path id="c0_35" d="M0,0 L4,0 L5,2 L8,4 L7,6 L2,5 L-1,2 Z " fill="#A9AAA4" transform="translate(5,290)"/>
    <path id="c0_36" d="M0,0 L3,0 L2,5 L-4,6 L-3,2 Z " fill="#A9AAA4" transform="translate(70,65)"/>
    <path id="c0_37" d="M0,0 L6,0 L6,6 L1,5 Z " fill="#A9AAA4" transform="translate(112,46)"/>
    <path id="c0_38" d="M0,0 L1,0 L1,7 L-4,10 L-8,9 L-1,4 Z " fill="#A9AAA4" transform="translate(71,352)"/>
    <path id="c0_39" d="M0,0 L3,1 L3,7 L1,9 L-2,4 Z " fill="#A9AAA4" transform="translate(116,58)"/>
    <path id="c0_40" d="M0,0 L3,0 L5,6 L1,4 L-4,3 Z " fill="#A9AAA4" transform="translate(150,148)"/>
    <path id="c0_41" d="M0,0 L3,0 L4,3 L3,6 L-1,5 L-2,2 Z " fill="#A9AAA4" transform="translate(58,95)"/>
    <path id="c0_42" d="M0,0 L4,0 L4,5 L0,5 L-1,1 Z " fill="#A9AAA4" transform="translate(171,270)"/>
    <path id="c0_43" d="M0,0 L3,1 L2,6 L-2,4 Z " fill="#A9AAA4" transform="translate(62,60)"/>
    <path id="c0_44" d="M0,0 L4,2 L4,5 L1,6 L-2,3 Z " fill="#A9AAA4" transform="translate(79,26)"/>
    <path id="c0_45" d="M0,0 L3,4 L2,7 L-1,7 L-2,2 Z " fill="#A9AAA4" transform="translate(65,99)"/>
    <path id="c0_46" d="M0,0 L4,0 L5,3 L1,4 L-1,1 Z " fill="#A9AAA4" transform="translate(148,252)"/>
  </g>
  <g id="color1_1961" inkscape:label="1961 Tempest">
    <path id="c1_0" d="M0,0 L9,0 L24,3 L34,6 L48,11 L57,15 L73,24 L82,35 L92,53 L101,81 L104,91 L104,123 L103,136 L96,156 L91,165 L88,164 L87,159 L85,159 L81,167 L79,179 L73,196 L66,206 L63,209 L55,210 L49,218 L44,223 L45,230 L52,248 L54,249 L70,251 L91,257 L92,261 L91,262 L75,261 L66,260 L67,264 L76,267 L76,271 L71,272 L68,272 L69,281 L81,295 L85,298 L86,303 L84,307 L83,318 L81,323 L81,335 L80,339 L80,346 L83,346 L86,341 L90,337 L93,331 L96,326 L96,320 L91,313 L91,307 L95,303 L94,297 L91,292 L92,288 L96,289 L103,296 L107,297 L109,295 L108,287 L107,284 L107,277 L110,272 L115,273 L120,283 L121,301 L118,308 L116,326 L111,343 L106,351 L103,354 L100,355 L68,356 L65,354 L63,344 L61,340 L53,340 L43,327 L41,324 L38,325 L37,347 L36,354 L33,356 L-28,356 L-43,355 L-48,353 L-51,343 L-50,330 L-56,317 L-60,316 L-57,326 L-55,332 L-55,339 L-56,344 L-56,353 L-61,356 L-77,356 L-81,353 L-79,343 L-78,336 L-83,320 L-86,320 L-91,328 L-96,332 L-104,331 L-105,335 L-98,348 L-94,350 L-85,351 L-85,355 L-92,357 L-106,356 L-112,354 L-115,350 L-117,345 L-122,318 L-126,307 L-128,304 L-128,296 L-123,284 L-118,274 L-115,270 L-113,270 L-116,279 L-118,282 L-118,286 L-114,285 L-111,281 L-100,280 L-93,290 L-86,307 L-84,307 L-81,298 L-77,294 L-77,289 L-78,285 L-72,277 L-71,274 L-71,265 L-73,264 L-76,266 L-80,265 L-78,261 L-73,261 L-70,254 L-63,250 L-57,247 L-55,245 L-53,229 L-50,222 L-49,217 L-56,218 L-58,215 L-62,202 L-66,196 L-69,194 L-76,192 L-86,178 L-91,166 L-93,164 L-97,165 L-102,166 L-104,164 L-103,142 L-106,143 L-108,147 L-111,147 L-111,139 L-107,123 L-104,113 L-103,91 L-100,82 L-95,62 L-89,54 L-83,46 L-75,30 L-66,19 L-56,8 L-43,5 L-39,4 L-14,3 L-8,1 Z " fill="#4F6D83" transform="translate(128,6)"/>
    <path id="c1_1" d="M0,0 L9,0 L24,3 L34,6 L48,11 L57,15 L73,24 L82,35 L80,41 L84,47 L86,54 L86,58 L82,58 L76,46 L68,37 L68,35 L64,35 L65,41 L67,41 L71,49 L75,57 L78,63 L78,69 L74,67 L67,63 L65,63 L68,71 L72,76 L72,78 L75,79 L75,86 L74,90 L70,90 L66,82 L57,76 L46,63 L44,61 L44,56 L39,53 L38,58 L41,61 L43,71 L42,77 L36,94 L32,101 L28,101 L29,96 L32,90 L34,78 L31,79 L27,87 L23,86 L22,84 L22,78 L24,72 L21,73 L19,85 L16,89 L13,89 L12,78 L9,77 L7,83 L3,83 L2,82 L1,65 L2,59 L-1,59 L-3,71 L-5,74 L-8,74 L-11,69 L-14,70 L-16,74 L-16,90 L-17,95 L-17,103 L-16,105 L-16,112 L-21,113 L-26,108 L-30,97 L-31,83 L-31,72 L-34,71 L-35,72 L-36,85 L-36,97 L-32,101 L-30,110 L-33,112 L-38,111 L-42,107 L-44,102 L-45,95 L-48,94 L-51,104 L-56,109 L-62,110 L-64,108 L-69,107 L-69,127 L-68,134 L-73,136 L-77,138 L-78,144 L-75,144 L-70,140 L-61,143 L-58,148 L-56,161 L-54,165 L-55,170 L-56,175 L-54,178 L-55,183 L-60,181 L-69,180 L-73,178 L-78,178 L-77,181 L-79,187 L-83,182 L-87,176 L-91,166 L-93,164 L-97,165 L-102,166 L-104,164 L-103,142 L-106,143 L-108,147 L-111,147 L-111,139 L-107,123 L-104,113 L-103,91 L-100,82 L-95,62 L-89,54 L-83,46 L-75,30 L-66,19 L-56,8 L-43,5 L-39,4 L-14,3 L-8,1 Z " fill="#4F6D83" transform="translate(128,6)"/>
    <path id="c1_2" d="M0,0 L5,2 L2,7 L-3,10 L-8,13 L-13,21 L-14,24 L-14,33 L-10,34 L-5,29 L-2,27 L-1,29 L4,27 L2,31 L-3,35 L-6,45 L-8,47 L-14,46 L-19,41 L-22,45 L-21,55 L-23,57 L-29,57 L-26,62 L-24,64 L-25,71 L-28,83 L-28,87 L-22,87 L-20,83 L-12,68 L-13,62 L-14,55 L-9,49 L-6,50 L-5,52 L-5,64 L-1,66 L-1,79 L0,86 L-5,88 L-9,90 L-10,96 L-7,96 L-2,92 L7,95 L10,100 L12,113 L14,117 L13,122 L12,127 L14,130 L13,135 L8,133 L-1,132 L-5,130 L-10,130 L-9,133 L-11,139 L-15,134 L-19,128 L-23,118 L-25,116 L-29,117 L-34,118 L-36,116 L-35,94 L-38,95 L-40,99 L-43,99 L-43,91 L-39,75 L-36,65 L-35,43 L-32,34 L-27,18 L-22,10 L-19,13 L-15,12 L-12,11 L-11,8 L-4,2 Z " fill="#4F6D83" transform="translate(60,54)"/>
    <path id="c1_3" d="M0,0 L5,2 L6,4 L7,9 L17,20 L22,25 L29,30 L30,32 L30,43 L32,48 L32,65 L30,71 L26,70 L26,64 L17,59 L17,51 L14,47 L9,48 L6,52 L2,59 L-3,61 L-5,57 L-2,48 L-4,48 L-6,53 L-13,64 L-17,66 L-19,62 L-17,56 L-20,56 L-28,63 L-33,80 L-36,84 L-40,85 L-40,88 L-36,87 L-33,83 L-30,83 L-31,88 L-38,94 L-38,97 L-36,99 L-41,100 L-46,95 L-50,87 L-50,83 L-45,81 L-41,74 L-39,64 L-39,55 L-40,49 L-42,49 L-45,69 L-49,69 L-52,63 L-52,39 L-56,36 L-56,21 L-53,16 L-50,15 L-47,18 L-47,21 L-44,20 L-41,8 L-40,6 L-37,6 L-36,29 L-32,29 L-30,24 L-26,25 L-26,36 L-22,34 L-20,27 L-19,20 L-15,19 L-16,31 L-15,33 L-12,33 L-8,25 L-4,25 L-7,40 L-11,48 L-7,48 L-5,43 L1,28 L3,22 L2,15 L1,8 L-2,5 Z " fill="#4F6D83" transform="translate(167,59)"/>
    <path id="c1_4" d="M0,0 L4,2 L8,11 L10,20 L14,20 L15,22 L15,29 L10,30 L5,25 L1,14 Z " fill="#4F6D83" transform="translate(97,89)"/>
    <path id="c1_5" d="M0,0 L5,1 L7,2 L16,3 L21,7 L20,11 L16,13 L10,9 L4,5 L-2,3 L-2,1 Z " fill="#4F6D83" transform="translate(52,183)"/>
    <path id="c1_6" d="M0,0 L4,2 L9,5 L9,11 L7,13 L2,13 L-1,8 L-1,6 L-3,6 L-2,2 Z " fill="#4F6D83" transform="translate(62,25)"/>
    <path id="c1_7" d="M0,0 L4,0 L3,7 L1,9 L-5,8 L-7,5 L-2,1 Z " fill="#4F6D83" transform="translate(51,92)"/>
    <path id="c1_8" d="M0,0 L5,1 L12,9 L12,12 L7,11 L0,4 Z " fill="#4F6D83" transform="translate(196,29)"/>
    <path id="c1_9" d="M0,0 L2,1 L2,7 L0,12 L-5,13 L-2,9 L-3,1 Z " fill="#4F6D83" transform="translate(87,208)"/>
    <path id="c1_10" d="M0,0 L2,1 L1,6 L-6,7 L-6,4 Z " fill="#4F6D83" transform="translate(74,16)"/>
    <path id="c1_11" d="M0,0 L5,0 L7,4 L6,6 L2,4 L-1,1 Z " fill="#4F6D83" transform="translate(50,42)"/>
    <path id="c1_12" d="M0,0 L4,1 L3,5 L-1,6 L-3,3 Z " fill="#4F6D83" transform="translate(108,10)"/>
    <path id="c1_13" d="M0,0 L5,1 L7,5 L1,3 L-4,2 Z " fill="#4F6D83" transform="translate(194,66)"/>
  </g>
  <g id="color2_1739" inkscape:label="1739 Dark Grey">
    <path id="c2_0" d="M0,0 L4,2 L4,20 L6,29 L10,40 L13,42 L17,42 L17,35 L16,33 L16,25 L17,20 L21,21 L22,22 L22,46 L25,52 L27,52 L30,32 L34,32 L35,44 L34,53 L31,61 L27,66 L11,66 L9,71 L5,79 L4,80 L-7,80 L-11,78 L-12,76 L-12,69 L-14,69 L-14,74 L-17,77 L-18,84 L-14,91 L-15,100 L-11,104 L-6,109 L-8,112 L-12,111 L-21,108 L-23,105 L-22,100 L-21,95 L-24,88 L-25,78 L-27,74 L-36,71 L-43,76 L-45,74 L-44,68 L-41,65 L-35,64 L-36,51 L-36,43 L-35,37 L-30,37 L-28,39 L-22,38 L-18,34 L-14,24 L-10,25 L-9,32 L-6,38 L-2,41 L4,40 L0,30 L-3,27 L-3,15 L-2,2 Z " fill="#4E4A4A" transform="translate(94,76)"/>
    <path id="c2_1" d="M0,0 L4,1 L7,5 L7,13 L15,17 L16,18 L16,23 L14,26 L14,37 L13,47 L13,62 L16,67 L11,73 L3,80 L-2,83 L-3,80 L-7,80 L-7,70 L0,62 L3,54 L1,37 L-3,39 L-7,52 L-10,54 L-19,54 L-23,50 L-25,43 L-32,46 L-41,47 L-44,48 L-46,52 L-50,51 L-49,47 L-42,41 L-41,37 L-45,39 L-48,43 L-52,42 L-51,38 L-46,36 L-43,28 L-40,17 L-30,8 L-27,11 L-29,18 L-27,19 L-22,14 L-15,2 L-13,2 L-14,7 L-15,13 L-12,14 L-7,9 L-4,3 Z " fill="#4E4A4A" transform="translate(178,105)"/>
    <path id="c2_2" d="M0,0 L7,6 L7,23 L10,29 L12,46 L12,55 L7,58 L1,58 L-4,54 L-5,52 L-5,30 L-8,20 L-6,7 L-2,1 Z " fill="#4E4A4A" transform="translate(60,304)"/>
    <path id="c2_3" d="M0,0 L6,0 L12,4 L18,8 L22,6 L23,4 L30,4 L40,10 L42,12 L40,21 L38,30 L37,33 L32,34 L28,32 L20,31 L14,17 L9,13 L2,11 L-1,7 Z " fill="#4E4A4A" transform="translate(50,187)"/>
    <path id="c2_4" d="M0,0 L5,1 L8,6 L14,6 L19,4 L18,10 L17,17 L18,24 L15,28 L10,28 L8,26 L7,16 L3,14 L3,25 L5,36 L5,47 L2,48 L-4,46 L-10,41 L-12,40 L-11,36 L-5,32 L-3,29 L-4,24 L-5,19 L-4,17 L-2,3 Z " fill="#4E4A4A" transform="translate(154,188)"/>
    <path id="c2_5" d="M0,0 L12,6 L16,12 L19,18 L20,19 L20,25 L19,26 L19,33 L16,36 L11,35 L12,27 L4,26 L4,23 L7,20 L7,18 L-1,17 L-3,15 L-1,1 Z " fill="#4E4A4A" transform="translate(94,217)"/>
    <path id="c2_6" d="M0,0 L3,1 L6,7 L6,17 L5,24 L1,35 L0,37 L-4,36 L-5,31 L-6,26 L-9,21 L-8,15 L-4,10 Z " fill="#4E4A4A" transform="translate(222,129)"/>
    <path id="c2_7" d="M0,0 L3,0 L4,6 L1,17 L1,25 L0,29 L-5,28 L-8,15 L-10,14 L-13,16 L-17,15 L-15,11 L-10,11 L-7,4 Z " fill="#4E4A4A" transform="translate(65,256)"/>
    <path id="c2_8" d="M0,0 L3,1 L3,9 L0,20 L-9,27 L-13,25 L-12,11 L-7,6 Z " fill="#4E4A4A" transform="translate(37,143)"/>
    <path id="c2_9" d="M0,0 L4,1 L5,4 L1,20 L-3,24 L-10,24 L-12,23 L-11,16 L-9,8 L-1,1 Z " fill="#4E4A4A" transform="translate(30,121)"/>
    <path id="c2_10" d="M0,0 L7,4 L17,13 L19,17 L18,21 L13,20 L5,16 L-1,8 L-2,1 Z " fill="#4E4A4A" transform="translate(195,68)"/>
    <path id="c2_11" d="M0,0 L8,1 L16,7 L18,11 L17,16 L14,17 L-1,9 L-2,4 Z " fill="#4E4A4A" transform="translate(145,304)"/>
    <path id="c2_12" d="M0,0 L4,1 L4,8 L-1,13 L-6,15 L-12,15 L-14,5 L-8,2 Z " fill="#4E4A4A" transform="translate(100,303)"/>
    <path id="c2_13" d="M0,0 L5,2 L7,11 L7,13 L13,13 L15,15 L14,19 L12,20 L5,20 L1,18 L-3,7 L-3,2 Z " fill="#4E4A4A" transform="translate(5,306)"/>
    <path id="c2_14" d="M0,0 L4,1 L6,6 L5,13 L4,19 L-6,23 L-9,22 L-7,18 L-3,12 L-3,3 Z " fill="#4E4A4A" transform="translate(204,160)"/>
    <path id="c2_15" d="M0,0 L5,1 L13,9 L13,13 L6,13 L2,10 L-4,7 L-3,2 Z " fill="#4E4A4A" transform="translate(139,232)"/>
    <path id="c2_16" d="M0,0 L4,1 L4,5 L-2,13 L-6,16 L-10,14 L-4,3 Z " fill="#4E4A4A" transform="translate(179,211)"/>
    <path id="c2_17" d="M0,0 L3,1 L4,8 L1,11 L2,16 L3,20 L2,21 L-3,21 L-5,17 L-4,15 L-2,2 Z " fill="#4E4A4A" transform="translate(193,190)"/>
    <path id="c2_18" d="M0,0 L3,1 L3,8 L-1,13 L-6,12 L-8,6 L-3,1 Z " fill="#4E4A4A" transform="translate(30,304)"/>
    <path id="c2_19" d="M0,0 L4,1 L3,5 L-1,10 L-6,9 L-9,5 L-9,2 Z " fill="#4E4A4A" transform="translate(128,272)"/>
    <path id="c2_20" d="M0,0 L4,1 L6,6 L4,9 L3,17 L-1,16 L-1,9 L-2,2 Z " fill="#4E4A4A" transform="translate(96,186)"/>
    <path id="c2_21" d="M0,0 L4,0 L9,7 L11,12 L10,16 L6,14 L3,9 L3,6 L1,6 Z " fill="#4E4A4A" transform="translate(192,41)"/>
    <path id="c2_22" d="M0,0 L3,1 L3,9 L1,14 L-2,15 L-4,13 L-3,7 L-2,1 Z " fill="#4E4A4A" transform="translate(51,119)"/>
    <path id="c2_23" d="M0,0 L5,3 L7,6 L7,11 L4,11 L0,6 Z " fill="#4E4A4A" transform="translate(190,88)"/>
    <path id="c2_24" d="M0,0 L5,1 L4,8 L-1,8 L-2,7 L-2,1 Z " fill="#4E4A4A" transform="translate(27,105)"/>
    <path id="c2_25" d="M0,0 L5,1 L6,5 L3,7 L-2,6 L-3,2 Z " fill="#4E4A4A" transform="translate(142,250)"/>
    <path id="c2_26" d="M0,0 L5,3 L3,8 L-2,9 L-3,6 Z " fill="#4E4A4A" transform="translate(49,44)"/>
    <path id="c2_27" d="M0,0 L4,1 L7,7 L6,11 L1,6 Z " fill="#4E4A4A" transform="translate(57,159)"/>
    <path id="c2_28" d="M0,0 L6,3 L6,6 L2,7 L-2,5 L-3,1 Z " fill="#4E4A4A" transform="translate(170,278)"/>
    <path id="c2_29" d="M0,0 L4,0 L5,5 L0,7 L-2,6 L-2,1 Z " fill="#4E4A4A" transform="translate(216,59)"/>
    <path id="c2_30" d="M0,0 L4,1 L5,7 L1,9 L0,8 Z " fill="#4E4A4A" transform="translate(13,297)"/>
    <path id="c2_31" d="M0,0 L5,1 L6,5 L3,7 L-2,3 L-2,1 Z " fill="#4E4A4A" transform="translate(200,104)"/>
    <path id="c2_32" d="M0,0 L4,1 L5,6 L2,8 L-1,1 Z " fill="#4E4A4A" transform="translate(204,62)"/>
    <path id="c2_33" d="M0,0 L3,1 L2,6 L-2,6 L-1,1 Z " fill="#4E4A4A" transform="translate(178,199)"/>
    <path id="c2_34" d="M0,0 L4,1 L3,6 L-1,4 Z " fill="#4E4A4A" transform="translate(109,267)"/>
    <path id="c2_35" d="M0,0 L4,1 L1,5 L-2,4 Z " fill="#4E4A4A" transform="translate(60,79)"/>
    <path id="c2_36" d="M0,0 L4,2 L3,5 L-1,4 Z " fill="#4E4A4A" transform="translate(176,20)"/>
  </g>
  <g id="color4_1682" inkscape:label="1682 Taupe">
    <path id="c4_0" d="M0,0 L8,0 L14,13 L14,15 L18,17 L23,16 L28,11 L29,10 L38,9 L42,7 L45,7 L49,15 L51,17 L60,17 L63,16 L65,7 L67,2 L71,1 L72,3 L73,13 L74,18 L70,27 L64,34 L62,41 L58,42 L52,41 L47,45 L43,57 L39,62 L24,71 L14,73 L0,66 L-5,61 L-7,49 L-12,42 L-22,38 L-27,34 L-28,27 L-33,18 L-31,10 L-28,9 L-28,4 L-26,4 L-25,13 L-21,14 L-10,14 L-3,1 Z " fill="#CDBFAC" transform="translate(108,141)"/>
    <path id="c4_1" d="M0,0 L3,1 L6,7 L9,15 L9,24 L6,29 L2,29 L1,26 L-2,27 L-4,31 L-7,32 L-10,28 L-8,22 L-7,20 L-7,10 L-2,5 Z " fill="#CDBFAC" transform="translate(112,324)"/>
    <path id="c4_2" d="M0,0 L5,1 L6,7 L1,18 L0,21 L-4,20 L-3,10 L-1,1 Z " fill="#CDBFAC" transform="translate(90,207)"/>
    <path id="c4_3" d="M0,0 L3,1 L2,6 L-9,14 L-12,16 L-15,15 L-13,10 L-8,5 Z " fill="#CDBFAC" transform="translate(62,60)"/>
    <path id="c4_4" d="M0,0 L2,0 L4,4 L13,7 L13,11 L8,12 L5,12 L5,20 L2,19 L1,6 Z " fill="#CDBFAC" transform="translate(191,266)"/>
    <path id="c4_5" d="M0,0 L13,0 L14,1 L13,8 L10,8 L8,6 L-3,5 L-5,2 Z " fill="#CDBFAC" transform="translate(152,251)"/>
    <path id="c4_6" d="M0,0 L3,1 L5,11 L8,16 L3,14 L-4,9 L-5,5 Z " fill="#CDBFAC" transform="translate(155,272)"/>
    <path id="c4_7" d="M0,0 L13,2 L13,6 L6,8 L-2,7 Z " fill="#CDBFAC" transform="translate(30,355)"/>
    <path id="c4_8" d="M0,0 L6,2 L6,5 L1,8 L2,10 L8,12 L7,16 L4,17 L2,12 L-3,11 L-2,4 Z " fill="#CDBFAC" transform="translate(83,246)"/>
    <path id="c4_9" d="M0,0 L1,0 L1,9 L-2,13 L-5,11 L-8,13 L-12,12 L-10,8 L-5,8 L-2,1 Z " fill="#CDBFAC" transform="translate(60,259)"/>
    <path id="c4_10" d="M0,0 L2,0 L-1,9 L-3,12 L-3,16 L0,18 L-1,20 L-6,19 L-9,16 L-6,11 L-3,4 Z " fill="#CDBFAC" transform="translate(13,276)"/>
    <path id="c4_11" d="M0,0 L8,1 L18,1 L18,4 L8,5 L-3,5 Z " fill="#CDBFAC" transform="translate(134,357)"/>
    <path id="c4_12" d="M0,0 L4,3 L7,2 L8,7 L9,10 L-2,10 L-1,8 L-1,1 Z " fill="#CDBFAC" transform="translate(102,352)"/>
    <path id="c4_13" d="M0,0 L4,0 L3,4 L-11,9 L-11,5 L-2,1 Z " fill="#CDBFAC" transform="translate(32,263)"/>
    <path id="c4_14" d="M0,0 L5,1 L10,6 L10,11 L8,8 L5,5 L-1,8 L-4,7 Z " fill="#CDBFAC" transform="translate(135,282)"/>
    <path id="c4_15" d="M0,0 L4,2 L9,5 L8,7 L2,8 L-5,8 L-1,3 Z " fill="#CDBFAC" transform="translate(224,306)"/>
    <path id="c4_16" d="M0,0 L1,0 L0,15 L-4,16 L-4,3 L-1,3 Z " fill="#CDBFAC" transform="translate(45,310)"/>
    <path id="c4_17" d="M0,0 L7,0 L10,2 L8,5 L-2,5 L-2,1 Z " fill="#CDBFAC" transform="translate(210,272)"/>
    <path id="c4_18" d="M0,0 L4,1 L11,8 L13,10 L9,9 L6,7 L1,7 L-1,4 Z " fill="#CDBFAC" transform="translate(220,294)"/>
    <path id="c4_19" d="M0,0 L8,0 L10,5 L2,6 L0,3 Z " fill="#CDBFAC" transform="translate(70,218)"/>
    <path id="c4_20" d="M0,0 L2,0 L0,10 L-4,16 L-5,14 L-3,5 Z " fill="#CDBFAC" transform="translate(84,265)"/>
    <path id="c4_21" d="M0,0 L1,3 L0,11 L-2,8 L-7,7 L-6,3 Z " fill="#CDBFAC" transform="translate(100,263)"/>
    <path id="c4_22" d="M0,0 L3,2 L2,10 L-1,10 L-4,8 L-1,1 Z " fill="#CDBFAC" transform="translate(190,336)"/>
    <path id="c4_23" d="M0,0 L1,4 L-1,8 L0,16 L-4,14 L-5,10 L-3,3 Z " fill="#CDBFAC" transform="translate(116,298)"/>
    <path id="c4_24" d="M0,0 L4,2 L3,7 L-1,8 L-2,7 L-2,2 Z " fill="#CDBFAC" transform="translate(113,62)"/>
    <path id="c4_25" d="M0,0 L4,1 L5,2 L5,7 L0,6 L-1,2 Z " fill="#CDBFAC" transform="translate(112,40)"/>
    <path id="c4_26" d="M0,0 L4,0 L5,5 L1,7 L-1,5 Z " fill="#CDBFAC" transform="translate(93,111)"/>
    <path id="c4_27" d="M0,0 L7,1 L12,4 L11,6 L0,2 Z " fill="#CDBFAC" transform="translate(167,15)"/>
    <path id="c4_28" d="M0,0 L2,0 L3,3 L-3,6 L-7,5 L-7,2 L-4,3 Z " fill="#CDBFAC" transform="translate(32,166)"/>
    <path id="c4_29" d="M0,0 L1,2 L-5,12 L-6,9 L-3,3 Z " fill="#CDBFAC" transform="translate(38,62)"/>
    <path id="c4_30" d="M0,0 L4,2 L5,7 L3,9 L0,3 Z " fill="#CDBFAC" transform="translate(209,302)"/>
    <path id="c4_31" d="M0,0 L5,1 L4,5 L-1,5 Z " fill="#CDBFAC" transform="translate(215,263)"/>
    <path id="c4_32" d="M0,0 L3,1 L-6,8 L-6,5 Z " fill="#CDBFAC" transform="translate(74,13)"/>
    <path id="c4_33" d="M0,0 L5,1 L1,5 L-2,4 Z " fill="#CDBFAC" transform="translate(41,270)"/>
    <path id="c4_34" d="M0,0 L2,1 L-3,6 L-6,3 L-5,1 Z " fill="#CDBFAC" transform="translate(196,56)"/>
    <path id="c4_35" d="M0,0 L4,2 L7,5 L7,7 L3,6 L0,2 Z " fill="#CDBFAC" transform="translate(177,339)"/>
    <path id="c4_36" d="M0,0 L4,1 L3,5 L-1,4 Z " fill="#CDBFAC" transform="translate(164,301)"/>
    <path id="c4_37" d="M0,0 L3,2 L2,6 L-2,5 Z " fill="#CDBFAC" transform="translate(227,279)"/>
    <path id="c4_38" d="M0,0 L5,1 L8,5 L7,7 L0,1 Z " fill="#CDBFAC" transform="translate(24,286)"/>
    <path id="c4_39" d="M0,0 L3,2 L2,5 L-2,4 Z " fill="#CDBFAC" transform="translate(134,43)"/>
    <path id="c4_40" d="M0,0 L4,1 L3,3 L-1,3 Z " fill="#CDBFAC" transform="translate(39,291)"/>
    <path id="c4_41" d="M0,0 L3,1 L1,4 L-2,3 Z " fill="#CDBFAC" transform="translate(32,274)"/>
  </g>
  <g id="color5_1741" inkscape:label="1741 Gull">
    <path id="c5_0" d="M0,0 L5,1 L6,7 L3,16 L2,25 L3,26 L11,27 L11,31 L6,35 L1,31 L-2,28 L-6,30 L-7,39 L-1,41 L-1,44 L-6,47 L-5,49 L1,51 L0,55 L-3,57 L-7,70 L-12,75 L-19,79 L-26,79 L-29,83 L-30,93 L-29,94 L-22,92 L-15,102 L-6,104 L-4,99 L-3,95 L-6,92 L-9,90 L-9,86 L-1,85 L2,86 L8,83 L14,76 L15,69 L15,64 L19,60 L23,61 L22,66 L16,82 L13,86 L15,91 L17,94 L16,98 L12,107 L5,112 L2,125 L2,136 L1,149 L-1,150 L-6,145 L-6,137 L-3,132 L-4,117 L-8,118 L-12,122 L-16,120 L-19,115 L-22,115 L-19,125 L-17,131 L-17,138 L-18,143 L-18,152 L-23,155 L-39,155 L-43,152 L-41,142 L-40,135 L-45,119 L-48,119 L-53,127 L-58,131 L-66,130 L-67,134 L-60,147 L-56,149 L-47,150 L-47,154 L-54,156 L-68,155 L-74,153 L-77,149 L-79,144 L-84,117 L-88,106 L-90,103 L-90,95 L-85,83 L-80,73 L-77,69 L-75,69 L-78,78 L-80,81 L-80,85 L-76,84 L-73,80 L-62,79 L-55,89 L-48,106 L-46,106 L-43,97 L-39,93 L-39,88 L-40,84 L-34,76 L-33,73 L-33,64 L-35,63 L-38,65 L-42,64 L-40,60 L-35,60 L-32,53 L-25,49 L-19,46 L-17,44 L-15,28 L-12,21 L-11,16 L-18,17 L-20,14 L-20,11 L-12,11 L-8,13 L-3,13 L-1,1 Z " fill="#747573" transform="translate(90,207)"/>
    <path id="c5_1" d="M0,0 L6,1 L9,3 L7,8 L-7,20 L-16,22 L-17,28 L-19,32 L-17,34 L-17,39 L-22,43 L-25,46 L-28,57 L-29,64 L-29,72 L-34,71 L-34,59 L-35,57 L-39,59 L-41,62 L-40,69 L-39,75 L-47,90 L-52,95 L-57,94 L-56,84 L-53,75 L-54,70 L-57,67 L-57,64 L-50,62 L-51,52 L-46,47 L-42,52 L-36,53 L-34,50 L-32,42 L-25,36 L-29,37 L-31,35 L-36,41 L-39,42 L-43,38 L-43,31 L-39,23 L-34,18 L-26,13 L-22,9 L-17,7 L-13,4 L-8,5 L-9,11 L-10,14 L-2,8 L-4,3 Z " fill="#747573" transform="translate(88,47)"/>
    <path id="c5_2" d="M0,0 L2,0 L-1,9 L-3,12 L-3,16 L1,15 L13,15 L17,19 L21,29 L23,31 L22,40 L19,46 L17,48 L9,50 L6,54 L1,53 L-7,48 L-11,37 L-13,34 L-13,26 L-8,14 L-3,4 Z " fill="#747573" transform="translate(13,276)"/>
    <path id="c5_3" d="M0,0 L4,1 L3,6 L-3,22 L-6,26 L-4,31 L-2,34 L-3,38 L-7,47 L-14,52 L-17,65 L-17,76 L-18,89 L-20,90 L-25,85 L-25,77 L-22,72 L-23,57 L-27,58 L-31,62 L-34,60 L-32,50 L-27,45 L-22,37 L-23,33 L-28,30 L-28,26 L-20,25 L-17,26 L-11,23 L-5,16 L-4,9 L-4,4 Z " fill="#747573" transform="translate(109,267)"/>
    <path id="c5_4" d="M0,0 L1,0 L2,7 L7,11 L16,14 L22,22 L24,34 L25,37 L29,39 L33,42 L18,43 L15,43 L14,40 L10,39 L11,31 L2,25 L-7,23 L-9,27 L-12,28 L-18,24 L-24,20 L-30,18 L-30,16 L-25,15 L-21,17 L-12,18 L-7,21 L-6,16 L1,17 L3,19 L6,19 L7,16 L0,11 L-2,8 L-1,2 Z " fill="#747573" transform="translate(80,168)"/>
    <path id="c5_5" d="M0,0 L5,1 L13,9 L13,13 L6,14 L6,18 L9,21 L8,24 L2,26 L1,30 L7,40 L9,47 L8,52 L5,51 L3,42 L-2,41 L-10,47 L-12,50 L-17,49 L-20,45 L-19,40 L-16,37 L-17,27 L-13,25 L-9,30 L-7,34 L-3,35 L-4,25 L-2,16 L-1,12 L-2,7 L-4,7 L-3,2 Z " fill="#747573" transform="translate(139,232)"/>
    <path id="c5_6" d="M0,0 L2,2 L3,10 L11,9 L9,13 L7,24 L7,35 L6,48 L4,49 L-1,44 L-1,36 L2,31 L1,16 L-3,17 L-7,21 L-10,19 L-8,9 L-3,4 Z " fill="#747573" transform="translate(85,308)"/>
    <path id="c5_7" d="M0,0 L4,1 L5,2 L6,12 L7,13 L12,13 L16,12 L17,16 L13,23 L15,27 L9,30 L7,36 L2,35 L1,33 L1,22 L-1,11 L-1,2 Z " fill="#747573" transform="translate(157,202)"/>
    <path id="c5_8" d="M0,0 L8,0 L8,4 L3,7 L-2,20 L-10,31 L-14,36 L-17,37 L-19,35 L-18,30 L-14,24 L-11,18 L-6,11 L-2,1 Z " fill="#747573" transform="translate(232,319)"/>
    <path id="c5_9" d="M0,0 L2,2 L2,11 L6,10 L9,6 L12,6 L11,11 L4,17 L4,20 L6,22 L1,23 L-4,18 L-8,10 L-8,6 L-3,4 Z " fill="#747573" transform="translate(125,136)"/>
    <path id="c5_10" d="M0,0 L8,1 L11,0 L11,4 L15,4 L16,7 L11,12 L8,14 L2,14 L-2,8 L-6,7 L-4,3 Z " fill="#747573" transform="translate(160,181)"/>
    <path id="c5_11" d="M0,0 L9,0 L11,13 L11,18 L2,17 L1,19 L-2,9 L-2,2 Z " fill="#747573" transform="translate(165,262)"/>
    <path id="c5_12" d="M0,0 L4,2 L7,0 L5,4 L0,8 L-3,18 L-5,20 L-11,19 L-15,14 L-14,10 L-13,4 L-11,4 L-11,6 L-7,7 L-2,2 Z " fill="#747573" transform="translate(57,81)"/>
    <path id="c5_13" d="M0,0 L6,0 L10,4 L15,21 L14,26 L11,27 L10,21 L9,15 L5,9 L5,7 L-4,6 L-6,5 L-5,1 Z " fill="#747573" transform="translate(187,293)"/>
    <path id="c5_14" d="M0,0 L5,2 L8,5 L13,7 L12,11 L7,13 L3,20 L-1,20 L-4,13 L-11,11 L-12,7 L-6,9 L-1,12 L2,11 L1,5 L-1,1 Z " fill="#747573" transform="translate(160,308)"/>
    <path id="c5_15" d="M0,0 L3,3 L2,9 L4,15 L4,21 L1,23 L-5,23 L-6,20 L-3,7 L-1,1 Z " fill="#747573" transform="translate(64,90)"/>
    <path id="c5_16" d="M0,0 L4,2 L6,4 L8,13 L5,15 L0,14 L-4,10 L-3,3 Z " fill="#747573" transform="translate(90,103)"/>
    <path id="c5_17" d="M0,0 L5,1 L10,18 L8,22 L5,22 L2,15 Z " fill="#747573" transform="translate(9,336)"/>
    <path id="c5_18" d="M0,0 L8,0 L6,4 L-2,11 L-4,11 L-5,7 L-8,8 L-10,12 L-13,12 L-13,4 L-10,3 L-3,3 Z " fill="#747573" transform="translate(30,141)"/>
    <path id="c5_19" d="M0,0 L7,1 L15,8 L17,13 L21,16 L20,19 L15,18 L13,13 L5,6 L0,6 L-1,1 Z " fill="#747573" transform="translate(137,227)"/>
    <path id="c5_20" d="M0,0 L7,2 L11,6 L10,11 L5,10 L0,14 L-3,17 Z " fill="#747573" transform="translate(25,112)"/>
    <path id="c5_21" d="M0,0 L4,2 L7,4 L18,5 L18,9 L13,11 L7,11 L1,7 L-1,4 Z " fill="#747573" transform="translate(151,291)"/>
    <path id="c5_22" d="M0,0 L1,4 L0,11 L1,12 L9,13 L9,17 L4,21 L-1,17 L-4,14 L-4,8 Z " fill="#747573" transform="translate(92,221)"/>
    <path id="c5_23" d="M0,0 L4,2 L9,13 L8,17 L5,18 L2,13 L-1,5 L-2,1 Z " fill="#747573" transform="translate(116,322)"/>
    <path id="c5_24" d="M0,0 L11,0 L16,4 L15,8 L11,7 L-1,4 L-1,1 Z " fill="#747573" transform="translate(87,124)"/>
    <path id="c5_25" d="M0,0 L3,1 L4,11 L3,13 L-4,13 L-6,10 L-5,2 L-4,4 L0,4 Z " fill="#747573" transform="translate(202,92)"/>
    <path id="c5_26" d="M0,0 L5,1 L7,5 L1,3 L-1,3 L0,9 L-4,8 L-11,5 L-13,2 L-5,1 Z " fill="#747573" transform="translate(194,66)"/>
    <path id="c5_27" d="M0,0 L4,1 L2,11 L-6,16 L-9,16 L-8,13 L-4,12 L-1,2 Z " fill="#747573" transform="translate(77,270)"/>
    <path id="c5_28" d="M0,0 L3,1 L3,17 L-1,17 L-1,1 Z " fill="#747573" transform="translate(158,340)"/>
    <path id="c5_29" d="M0,0 L11,1 L12,4 L11,7 L0,5 L-1,1 Z " fill="#747573" transform="translate(168,127)"/>
    <path id="c5_30" d="M0,0 L4,2 L7,7 L5,13 L1,8 L-2,4 L-2,1 Z " fill="#747573" transform="translate(44,180)"/>
    <path id="c5_31" d="M0,0 L2,3 L3,8 L1,10 L-4,10 L-5,6 L-2,1 Z " fill="#747573" transform="translate(36,101)"/>
    <path id="c5_32" d="M0,0 L1,0 L1,7 L-3,11 L-7,9 L-8,6 L-4,5 Z " fill="#747573" transform="translate(131,276)"/>
    <path id="c5_33" d="M0,0 L1,2 L10,3 L12,4 L12,7 L10,8 L4,8 L0,4 Z " fill="#747573" transform="translate(167,281)"/>
    <path id="c5_34" d="M0,0 L8,1 L7,4 L4,5 L2,9 L-1,9 L-1,1 Z " fill="#747573" transform="translate(18,144)"/>
    <path id="c5_35" d="M0,0 L2,0 L3,10 L1,13 L-3,12 L-1,6 L-1,1 Z " fill="#747573" transform="translate(113,242)"/>
    <path id="c5_36" d="M0,0 L2,1 L3,6 L2,12 L-2,10 L-3,4 Z " fill="#747573" transform="translate(74,147)"/>
    <path id="c5_37" d="M0,0 L5,2 L6,4 L5,8 L2,9 L-2,5 Z " fill="#747573" transform="translate(167,59)"/>
    <path id="c5_38" d="M0,0 L5,2 L7,5 L4,9 L2,9 L0,5 Z " fill="#747573" transform="translate(180,149)"/>
    <path id="c5_39" d="M0,0 L6,1 L2,4 L0,5 L-8,5 L-6,2 Z " fill="#747573" transform="translate(146,146)"/>
    <path id="c5_40" d="M0,0 L1,0 L3,10 L6,13 L1,13 L-2,9 L-2,4 Z " fill="#747573" transform="translate(54,348)"/>
    <path id="c5_41" d="M0,0 L7,2 L4,6 L-3,6 L-1,2 Z " fill="#747573" transform="translate(187,209)"/>
    <path id="c5_42" d="M0,0 L6,1 L7,5 L2,7 L0,5 Z " fill="#747573" transform="translate(111,229)"/>
    <path id="c5_43" d="M0,0 L7,4 L9,7 L8,10 L3,5 L0,2 Z " fill="#747573" transform="translate(188,84)"/>
    <path id="c5_44" d="M0,0 L6,1 L7,3 L-4,4 Z " fill="#747573" transform="translate(109,138)"/>
    <path id="c5_45" d="M0,0 L1,2 L-2,7 L-5,7 L-3,2 Z " fill="#747573" transform="translate(27,305)"/>
    <path id="c5_46" d="M0,0 L4,2 L1,6 L-2,6 L-1,2 Z " fill="#747573" transform="translate(45,52)"/>
    <path id="c5_47" d="M0,0 L3,1 L0,8 L-1,6 L-3,6 L-2,2 Z " fill="#747573" transform="translate(62,25)"/>
    <path id="c5_48" d="M0,0 L3,0 L4,5 L1,6 L-1,1 Z " fill="#747573" transform="translate(151,221)"/>
    <path id="c5_49" d="M0,0 L5,2 L6,5 L-1,3 Z " fill="#747573" transform="translate(74,252)"/>
  </g>
  <g id="color7_1658" inkscape:label="1658 Brown">
    <path id="c7_0" d="M0,0 L4,2 L4,20 L6,29 L10,40 L13,42 L17,42 L17,35 L16,33 L16,25 L17,20 L21,21 L22,22 L22,46 L25,52 L27,52 L30,32 L34,32 L35,44 L34,53 L31,61 L27,66 L11,66 L9,71 L5,79 L4,80 L-7,80 L-11,78 L-12,76 L-12,69 L-14,69 L-14,74 L-17,77 L-18,84 L-13,92 L-12,99 L-7,103 L2,106 L8,114 L10,126 L11,129 L15,131 L28,137 L38,135 L53,126 L57,120 L59,113 L64,112 L68,118 L74,118 L79,116 L78,122 L77,129 L78,136 L75,140 L70,140 L68,138 L67,128 L63,126 L63,137 L65,148 L65,159 L62,160 L56,158 L50,153 L43,152 L37,154 L34,164 L30,167 L25,162 L24,159 L21,159 L20,166 L19,167 L19,174 L16,177 L11,176 L12,168 L2,166 L-3,162 L-6,159 L-10,161 L-11,170 L-5,172 L-5,175 L-10,178 L-9,180 L-3,182 L-4,186 L-7,188 L-11,201 L-16,206 L-23,210 L-30,210 L-33,214 L-34,224 L-33,225 L-26,223 L-19,233 L-10,235 L-8,230 L-7,226 L-10,223 L-13,221 L-13,217 L-5,216 L-2,217 L4,214 L10,207 L11,200 L11,195 L15,191 L19,192 L18,197 L12,213 L9,217 L11,222 L13,225 L12,229 L8,238 L1,243 L-2,256 L-2,267 L-3,280 L-5,281 L-10,276 L-10,268 L-7,263 L-8,248 L-12,249 L-16,253 L-20,251 L-23,246 L-26,246 L-23,256 L-21,262 L-21,269 L-22,274 L-22,283 L-27,286 L-43,286 L-47,283 L-45,273 L-44,266 L-49,250 L-52,250 L-57,258 L-62,262 L-70,261 L-71,265 L-64,278 L-60,280 L-51,281 L-51,285 L-58,287 L-72,286 L-78,284 L-81,280 L-83,275 L-88,248 L-92,237 L-94,234 L-94,226 L-89,214 L-84,204 L-81,200 L-79,200 L-82,209 L-84,212 L-84,216 L-80,215 L-77,211 L-66,210 L-59,220 L-52,237 L-50,237 L-47,228 L-43,224 L-43,219 L-44,215 L-38,207 L-37,204 L-37,195 L-39,194 L-42,196 L-46,195 L-44,191 L-39,191 L-36,184 L-29,180 L-23,177 L-21,175 L-19,159 L-16,152 L-15,147 L-22,148 L-24,145 L-28,132 L-32,126 L-35,124 L-42,122 L-45,118 L-44,108 L-39,107 L-35,109 L-26,110 L-21,113 L-22,106 L-23,101 L-21,98 L-22,93 L-24,88 L-25,78 L-27,74 L-36,71 L-43,76 L-45,74 L-44,68 L-41,65 L-35,64 L-36,51 L-36,43 L-35,37 L-30,37 L-28,39 L-22,38 L-18,34 L-14,24 L-10,25 L-9,32 L-6,38 L-2,41 L4,40 L0,30 L-3,27 L-3,15 L-2,2 Z " fill="#794639" transform="translate(94,76)"/>
    <path id="c7_1" d="M0,0 L5,1 L11,6 L15,17 L15,30 L13,32 L3,33 L-7,34 L-11,30 L-15,16 L-15,9 L-13,7 L-5,7 Z " fill="#794639" transform="translate(178,255)"/>
    <path id="c7_2" d="M0,0 L5,2 L7,9 L4,18 L7,19 L5,29 L-3,34 L-13,33 L-16,25 L-18,18 L-22,20 L-26,19 L-24,15 L-19,15 L-16,8 L-9,4 Z " fill="#794639" transform="translate(74,252)"/>
    <path id="c7_3" d="M0,0 L11,0 L16,4 L15,11 L17,16 L22,14 L28,15 L29,17 L18,18 L16,23 L12,31 L11,32 L0,32 L-4,30 L-5,28 L-5,21 L-7,21 L-7,26 L-10,29 L-11,35 L-15,33 L-16,27 L-12,21 L-10,16 L-1,10 L9,9 L11,7 L-1,4 L-1,1 Z " fill="#794639" transform="translate(87,124)"/>
    <path id="c7_4" d="M0,0 L9,0 L14,3 L17,5 L14,7 L10,20 L7,22 L-2,22 L-6,18 L-8,11 L-15,14 L-24,15 L-27,16 L-29,20 L-33,19 L-32,15 L-25,9 L-23,4 L-17,4 L-14,7 L-14,9 L-9,9 L-2,1 Z " fill="#794639" transform="translate(161,137)"/>
    <path id="c7_5" d="M0,0 L4,1 L3,5 L-2,8 L-6,6 L-7,2 Z " fill="#794639" transform="translate(97,304)"/>
    <path id="c7_6" d="M0,0 L4,1 L5,5 L1,9 L-3,8 L-4,4 Z " fill="#794639" transform="translate(76,123)"/>
    <path id="c7_7" d="M0,0 L5,2 L7,5 L5,8 L1,7 L-1,5 Z " fill="#794639" transform="translate(81,180)"/>
    <path id="c7_8" d="M0,0 L4,2 L3,7 L-1,7 L-1,1 Z " fill="#794639" transform="translate(180,127)"/>
    <path id="c7_9" d="M0,0 L5,1 L7,4 L3,6 L0,4 Z " fill="#794639" transform="translate(150,305)"/>
  </g>
  <g id="color3_1960" inkscape:label="1960 Country Blue">
    <path id="c3_0" d="M0,0 L9,0 L24,3 L34,6 L36,8 L15,8 L13,9 L2,9 L-23,14 L-27,16 L-28,20 L-25,24 L-26,28 L-30,32 L-35,36 L-37,41 L-31,44 L-33,49 L-47,61 L-56,63 L-57,69 L-59,73 L-57,75 L-57,80 L-62,84 L-65,87 L-68,98 L-69,105 L-69,127 L-68,134 L-73,136 L-77,138 L-78,144 L-75,144 L-70,140 L-61,143 L-58,148 L-56,161 L-54,165 L-55,170 L-56,175 L-54,178 L-55,183 L-60,181 L-69,180 L-73,178 L-78,178 L-77,181 L-79,187 L-83,182 L-87,176 L-91,166 L-93,164 L-97,165 L-102,166 L-104,164 L-103,142 L-106,143 L-108,147 L-111,147 L-111,139 L-107,123 L-104,113 L-103,91 L-100,82 L-95,62 L-89,54 L-83,46 L-75,30 L-66,19 L-56,8 L-43,5 L-39,4 L-14,3 L-8,1 Z " fill="#738C9E" transform="translate(128,6)"/>
    <path id="c3_1" d="M0,0 L5,0 L9,6 L11,11 L13,19 L17,29 L19,36 L25,32 L29,33 L31,35 L33,45 L32,51 L26,68 L22,75 L18,75 L19,70 L22,64 L24,52 L21,53 L17,61 L13,60 L12,58 L12,52 L14,46 L11,47 L9,59 L6,63 L3,63 L2,52 L-1,51 L-3,57 L-7,57 L-8,56 L-9,39 L-8,33 L-11,33 L-13,45 L-15,48 L-18,48 L-21,43 L-24,44 L-26,48 L-26,64 L-27,69 L-27,77 L-26,79 L-26,86 L-31,87 L-36,82 L-40,71 L-41,57 L-40,38 L-37,20 L-32,16 L-31,8 L-28,4 L-21,3 L-16,8 L-11,7 L-7,4 L-2,2 Z " fill="#738C9E" transform="translate(138,32)"/>
    <path id="c3_2" d="M0,0 L7,1 L15,5 L31,13 L36,18 L43,26 L41,32 L45,38 L47,45 L47,49 L43,49 L37,37 L29,28 L29,26 L25,26 L26,32 L28,32 L32,40 L36,48 L39,54 L39,60 L35,58 L31,52 L22,52 L18,48 L15,39 L10,33 L10,28 L15,25 L14,10 L11,6 L0,2 Z " fill="#738C9E" transform="translate(167,15)"/>
    <path id="c3_3" d="M0,0 L3,2 L5,8 L14,11 L17,17 L23,25 L28,29 L31,35 L30,40 L25,38 L16,37 L12,35 L7,35 L8,38 L6,44 L2,39 L-2,33 L-6,23 L-8,21 L-12,22 L-17,23 L-19,19 L-15,20 L-7,14 L-4,3 Z " fill="#738C9E" transform="translate(43,149)"/>
    <path id="c3_4" d="M0,0 L4,2 L4,7 L-1,11 L-4,14 L-7,25 L-8,32 L-8,40 L-13,39 L-13,27 L-14,25 L-18,27 L-20,30 L-19,37 L-18,43 L-26,58 L-31,63 L-36,62 L-35,52 L-32,43 L-33,38 L-36,35 L-36,32 L-29,30 L-30,20 L-25,15 L-21,20 L-15,21 L-13,18 L-11,10 L-4,4 Z " fill="#738C9E" transform="translate(67,79)"/>
    <path id="c3_5" d="M0,0 L4,1 L3,12 L-1,27 L-4,33 L-11,41 L-15,41 L-13,37 L-5,21 L-4,19 L-2,3 Z " fill="#738C9E" transform="translate(206,115)"/>
    <path id="c3_6" d="M0,0 L5,0 L4,7 L0,16 L-4,27 L-5,32 L-9,33 L-10,30 L-8,20 L-6,12 L-2,1 Z " fill="#738C9E" transform="translate(84,65)"/>
    <path id="c3_7" d="M0,0 L1,0 L4,10 L4,42 L3,55 L-1,66 L-2,66 L-1,59 L1,44 L1,15 L-1,7 Z " fill="#738C9E" transform="translate(228,87)"/>
    <path id="c3_8" d="M0,0 L3,1 L3,18 L1,24 L-3,23 L-2,2 Z " fill="#738C9E" transform="translate(196,106)"/>
    <path id="c3_9" d="M0,0 L4,1 L9,6 L11,13 L11,17 L7,17 L1,5 L-1,1 Z " fill="#738C9E" transform="translate(203,47)"/>
    <path id="c3_10" d="M0,0 L4,1 L4,15 L1,16 L-1,14 L-1,2 Z " fill="#738C9E" transform="translate(119,92)"/>
    <path id="c3_11" d="M0,0 L1,0 L1,11 L-3,22 L-4,22 L-3,15 L-2,4 Z " fill="#738C9E" transform="translate(230,131)"/>
    <path id="c3_12" d="M0,0 L3,4 L3,9 L-2,15 L-3,15 L-3,8 Z " fill="#738C9E" transform="translate(28,89)"/>
    <path id="c3_13" d="M0,0 L3,4 L3,12 L-1,14 L-2,2 Z " fill="#738C9E" transform="translate(65,99)"/>
    <path id="c3_14" d="M0,0 L3,1 L2,7 L-3,6 L-1,1 Z " fill="#738C9E" transform="translate(131,121)"/>
    <path id="c3_15" d="M0,0 L3,0 L6,5 L2,6 L0,4 Z " fill="#738C9E" transform="translate(39,62)"/>
    <path id="c3_16" d="M0,0 L2,3 L1,8 L-2,9 Z " fill="#738C9E" transform="translate(32,75)"/>
  </g>
  <g id="color6_1804" inkscape:label="1804 Blanc de Blanc">
    <path id="c6_0" d="M0,0 L4,2 L6,8 L3,16 L3,22 L8,32 L15,53 L15,66 L13,71 L12,72 L-1,73 L-5,71 L-7,67 L-7,53 L-6,43 L-15,33 L-23,28 L-25,25 L-24,18 L-22,8 L-17,4 L-14,3 L-5,3 Z " fill="#ECECE6" transform="translate(139,286)"/>
    <path id="c6_1" d="M0,0 L5,2 L10,7 L17,9 L16,16 L19,19 L18,24 L14,30 L8,33 L7,36 L12,36 L13,40 L8,49 L5,52 L3,52 L3,54 L-4,55 L-11,56 L-11,62 L-3,66 L0,72 L-2,77 L-9,77 L-14,73 L-18,66 L-26,68 L-27,64 L-25,54 L-22,51 L-15,51 L-6,46 L-2,38 L1,29 L4,27 L4,24 L-2,22 L-2,19 L0,17 L3,17 L3,14 L-3,12 L-3,3 Z " fill="#ECECE6" transform="translate(86,234)"/>
    <path id="c6_2" d="M0,0 L13,1 L16,4 L17,9 L17,16 L20,26 L20,31 L16,33 L12,28 L9,16 L6,10 L-2,5 L-2,1 Z " fill="#ECECE6" transform="translate(147,255)"/>
    <path id="c6_3" d="M0,0 L7,1 L11,3 L13,12 L13,16 L8,17 L-5,17 L-8,15 L-7,10 L5,10 L4,7 L0,4 Z " fill="#ECECE6" transform="translate(152,235)"/>
    <path id="c6_4" d="M0,0 L3,1 L4,3 L3,13 L0,21 L-3,22 L-6,18 L-4,12 L-3,10 L-3,3 Z " fill="#ECECE6" transform="translate(108,334)"/>
    <path id="c6_5" d="M0,0 L3,3 L4,5 L4,14 L2,18 L-1,17 L-2,2 Z " fill="#ECECE6" transform="translate(117,334)"/>
    <path id="c6_6" d="M0,0 L4,1 L9,7 L8,11 L5,12 L1,7 L-1,2 Z " fill="#ECECE6" transform="translate(191,75)"/>
    <path id="c6_7" d="M0,0 L5,0 L7,4 L6,9 L3,10 L0,8 L-1,1 Z " fill="#ECECE6" transform="translate(191,314)"/>
    <path id="c6_8" d="M0,0 L4,1 L3,5 L2,7 L-2,6 L-2,2 Z " fill="#ECECE6" transform="translate(170,214)"/>
    <path id="c6_9" d="M0,0 L3,0 L4,6 L-1,6 L-2,2 Z " fill="#ECECE6" transform="translate(176,142)"/>
    <path id="c6_10" d="M0,0 L4,0 L5,3 L3,5 L-1,5 Z " fill="#ECECE6" transform="translate(193,52)"/>
    <path id="c6_11" d="M0,0 L4,1 L6,2 L5,5 L1,5 Z " fill="#ECECE6" transform="translate(20,297)"/>
  </g>
</svg>
