<svg xmlns="http://www.w3.org/2000/svg" xmlns:inkscape="http://www.inkscape.org/namespaces/inkscape" version="1.1" width="58.0mm" height="76.35mm" viewBox="0 0 294 387">
  <metadata><inkstitch:min_stitch_len_mm xmlns:inkstitch="http://inkstitch.org/namespace">0.1</inkstitch:min_stitch_len_mm><inkstitch:collapse_len_mm xmlns:inkstitch="http://inkstitch.org/namespace">3</inkstitch:collapse_len_mm><inkstitch:inkstitch_svg_version xmlns:inkstitch="http://inkstitch.org/namespace">3</inkstitch:inkstitch_svg_version></metadata><g id="color0_1837" inkscape:label="1837 Fluo Pink">
    <g id="centerline_group_6470" inkscape:label="c0_0 center line"><path xmlns:inkstitch="http://inkstitch.org/namespace" id="path6795" style="stroke:#FF3E26;stroke-width:1px;fill:none" d="M61.99287365916243,267.24876285750406 64.78294532529937,268.4988410979541 66.02049178739364,268.863140846597 67.36430522854701,268.98186019647886 71.41263621901453,268.9203354093897 76.3334496186545,267.5321544988906 79.22688381506623,265.5581143129082 79.4321854423918,265.352389793584 80.3014038993763,262.9657180318424 80.33974242273756,258.1909431125695 79.8900196266659,256.85300390657517 77.97657564002624,253.58102490067995 76.71880331437926,251.65807252091972 73.32964105416279,247.47134837262695  M52.99752634083757,287.3256371424959 57.14425467470063,289.18355890204595 61.90590821260638,290.585259153403 66.56129477145299,290.9965398035211 74.62016378098548,290.8740645906103 85.76435038134551,287.7302455011094 93.33631618493376,282.5642856870918 96.22725401612207,279.6673929373126 98.90623816539575,276.16932823030487 102.27019610062369,266.9326819681576 102.35369532779282,256.5334808328125 101.81911592908747,253.04374984359674 100.0227803733341,247.69959609342484 96.68942435997376,241.99957509932005 94.51979668562073,238.68252747908028 90.42915894583722,233.62925162737304  M52.722266137203526,289.61302778193397 63.51668291920736,265.52077863995  M64.75937863020316,293.0459114846153 67.08263403018874,266.7484137570848  M79.64245697512385,291.743114367447 72.47469004334181,266.3348672890929  M91.55101406983567,286.4455353673547 76.67256491541215,264.6375631291509  M102.44535652691069,272.88054805527963 77.63935185308914,263.8462780512684  M104.33822483938918,254.95940557984727 78.24270675713673,258.9568845856545  M99.67180409444777,242.74139640457022 76.88264070729954,256.0684341285694  M93.86074694039169,234.37182589597128 73.34132547038482,250.98234199027897  " inkstitch:satin_column="true" transform="scale(1.34116, 1.34116)"/><path xmlns:inkstitch="http://inkstitch.org/namespace" id="path1085" style="stroke:#FF3E26;stroke-width:1px;fill:none" d="M72.77632419557371,234.37508344452323 77.39759497910462,227.56272668305016 77.6735673235287,226.8623518567396 78.00437443858316,225.1468043147029 77.90853939468238,223.37536013999892 77.36739569578832,222.36608184394362 76.77567856057964,221.62810019245867 76.30527486462768,221.13185616525595 73.04966221516571,219.64300501067498 71.83306963686447,219.24376740076312 69.09483183208197,218.8113594705131 66.24526878519642,218.6856070426426 65.97763386649851,218.71793823531763 65.55717816351734,218.83433760947563 61.8012707859089,220.48990314696044  M90.9824758044263,246.72551655547676 96.97220502089537,237.89587331694983 98.88943267647129,233.03024814326042 100.11822556141685,226.6577956852971 99.77841608940967,220.37665378568462 98.86698099742694,215.9071245173491 95.79880430421169,210.18471815605636 93.36932143942037,207.15469980754133 91.15219320449829,204.81577974039345 87.94310729947611,202.26272221039386 81.07933778483428,199.123794989325 77.01193036313553,197.7890325992369 71.30256816791804,196.8874405294869 65.40533121480358,196.62719295735738 61.699566133501484,197.07486176468237 58.14662183648265,198.0584623905244 52.9277292140911,200.35889685303954  M96.45141437417762,242.58245462093237 74.60403244355639,227.7619348877854  M101.57161336863152,230.73982724310264 75.64922816347905,225.74124267757554  M98.82657073202965,211.17600763135334 75.55997286027649,223.65083531982924  M84.95526824658651,198.47719607596196 73.97575946830628,222.48565894576478  M73.6659519127835,195.03339821259556 69.54804482698216,221.11018374332656  M59.29767086230947,195.45706273685718 66.34131820475903,220.8999976009454  " inkstitch:satin_column="true" transform="scale(1.34116, 1.34116)"/><path xmlns:inkstitch="http://inkstitch.org/namespace" id="path4694" style="stroke:#FF3E26;stroke-width:1px;fill:none" d="M128.13582479418923,238.59273430832678 130.44398390738866,235.29730949774117 132.6786330756333,232.63256689369055 134.96934041343985,230.5373883570986 137.51971482776733,228.54237048136864 138.6310779770424,227.22741307449527 139.10073030411476,224.39135043589715 139.0732680629195,223.96889236625302 138.85417521535558,223.014448464305 138.72943879526375,222.73799363254116 137.69903757895028,221.03338524138846 137.44844765139754,220.79450279554044 137.1812585756415,220.616898344013 133.63671494650342,219.22686819987803 131.29525839216635,218.65741216086838 127.9355265125689,218.6549771314213 127.14945562516172,218.77586553023855 125.80477648505986,219.25431464336606 123.8550078057176,220.1974312061403 122.035687609967,221.2480718357896  M146.15537520581077,251.21386569167322 147.91521609261133,248.70129050225884 148.60056692436672,247.88403310630943 149.19185958656016,247.34321164290142 152.8594851722327,244.47422951863135 156.4112873399327,240.27176107147034 159.57365582427187,235.4216929905185 161.21846969588526,225.48924956410286 160.9119319370805,220.77370763374697 159.80702478464443,215.96035153569503 158.23976120473625,212.48680636745885 155.0061624210497,207.13741475861153 151.23275234860245,203.54029720445953 147.40194142435848,200.99390165598697 140.28248505349657,198.201931800122 133.93994160783367,196.65938783913163 126.26167348743111,196.65382286857871 121.74174437483826,197.34893446976145 117.30242351494014,198.92848535663393 113.55039219428238,200.74336879385973 111.033712390033,202.19672816421038  M149.66775164142257,250.03523458419474 129.43924716957292,233.07164094324142  M156.5881028587173,243.47073135675294 136.42499010982172,226.4294641897152  M163.1936261585555,221.9590975778456 136.84930745706288,223.67163211391235  M153.93186827558824,203.073860098152 135.71601554620608,222.18246056298187  M138.6575083353243,195.5426051943038 132.4187495143635,221.19477451303624  M123.9991953573119,194.7759079223785 128.01201507060387,220.86907140118365  " inkstitch:satin_column="true" transform="scale(1.34116, 1.34116)"/><path xmlns:inkstitch="http://inkstitch.org/namespace" id="path9856" style="stroke:#FF3E26;stroke-width:1px;fill:none" d="M38.46626228421938,126.28536870461727 37.608515434743175,123.40032536193677 37.491292127409665,123.12612054447865 35.75200583386714,120.66117633553338 34.10297522153751,119.07964585863441 33.74471864124516,118.80664656431907 30.914702334106757,117.28558653947137 27.12215174754318,117.61115343106125 25.66199662973795,118.32509143404533 24.951262521848225,118.74023708757633 24.522640489175604,119.08892326024242 24.204089578650205,119.59702894628458 21.397019432944223,126.66257814067286 21.096770933662906,127.58611273016336 19.74219141564306,136.15175929009212 19.572917445545812,138.22670774658468 19.577070319099143,150.64656825341157 19.834900001939438,153.04233501059858 20.150522418988945,154.55623364703703 21.57514328686835,159.14581692390158 21.708189627375834,159.44932888818425 23.31346804030722,161.7840379221145 24.01569869576361,163.27180628964166 24.222013094266785,163.45055818227954 24.743835474374855,163.7555363323815 27.205618507031893,164.69206279442867 27.846684276421627,164.87609315758348 32.886729918448545,164.6602776202332 33.011450113224655,164.626894407397 35.22793084014205,162.88613410806508 36.24160602340637,161.76574178547457 37.07790207610132,160.494016330824 42.29438180987725,150.23802202929377 51.91506904769291,144.51483330246734  M59.55393771578062,120.01583129538272 58.33528456525681,115.91687463806322 56.806707872590316,112.34127945552132 52.50739416613286,106.24822366446662 48.43002477846253,102.33775414136564 45.69388135875489,100.25275343568097 40.303090296587435,97.35534370475952 36.362211287306096,95.64163688254168 30.828369970890062,95.21215062872827 22.287635212007398,95.94531961458024 18.892690493964512,97.146029816264 15.268003370262058,98.91830856595467 12.386937478151774,100.60116291242366 9.631867407878678,102.84242622835818 7.296910492166684,105.14773077418668 4.499110421349794,109.61037105371543 0.6921805670557788,119.19262185932715 -0.3619709336629055,122.43508726983661 -2.117391415643059,133.5354407099079 -2.427317445545809,137.3344922534153 -2.422470319099141,151.83063174658844 -1.9229000019394409,156.4726649894014 -1.171922418988945,160.07476635296294 0.9302567131316493,166.84718307609842 2.397210372624167,170.19367111181572 4.177531959692788,172.78296207788551 4.7933158175263895,174.08758149004044 7.093783908958133,177.71922052773385 11.358786905733217,181.41444181772047 15.217164525625142,183.66946366761852 20.246981492968104,185.5829372055713 25.214315723578373,187.0089068424165 36.24147008155146,186.53672237976681 39.96995007443275,185.53873932352437 44.06440326928053,183.91996894984825 50.28706915985795,179.0328658919349 53.692193976593636,175.26925821452545 56.13209792389868,171.558983669176 59.01601819012275,165.88897797070624 63.162730952307086,163.42216669753267  M55.79216802647704,107.08756188228567 34.22150005107861,122.30801474933777  M44.19070829190335,96.9472114060062 31.692316943853083,120.20115980394533  M26.30216709720765,93.39261230769756 28.56013194474562,119.69579647103257  M4.177089830628095,105.98229604140275 26.544672195405834,120.00538990609314  M-0.12237823409299864,115.28439405136355 24.412196725309354,125.03172876114452  M-3.8314696300874154,130.2898881346083 22.244406168110363,134.41355200791287  M-4.625302070476831,143.34283383952388 21.774618847196272,143.3340064027481  M-4.380824455544502,154.1939971253173 21.867533660538626,151.36917879613458  M2.1030775599503873,173.64889934866198 23.85699851268268,158.69153241576538  M12.378982143870072,184.5588703880805 25.700092804500922,161.76624190538325  M31.678736318867724,188.93410887374122 30.549322493849534,162.55835624381817  M49.347400837558645,182.56822905025695 33.04136344888136,161.8060266848504  M58.91002288855702,170.95006873445826 35.37897770594341,158.98153436316485  " inkstitch:satin_column="true" transform="scale(1.34116, 1.34116)"/></g></g>
  <g id="color1_1800" inkscape:label="1800 Black">
    <g id="centerline_group_2489" inkscape:label="c1_0 center line"><path xmlns:inkstitch="http://inkstitch.org/namespace" id="path1249" style="stroke:#2F3032;stroke-width:1px;fill:none" d="M38.46626228421938,126.28536870461727 37.608515434743175,123.40032536193677 37.491292127409665,123.12612054447865 35.75200583386714,120.66117633553338 34.10297522153751,119.07964585863441 33.74471864124516,118.80664656431907 30.914702334106757,117.28558653947137 27.12215174754318,117.61115343106125 25.66199662973795,118.32509143404533 24.951262521848225,118.74023708757633 24.522640489175604,119.08892326024242 24.204089578650205,119.59702894628458 21.397019432944223,126.66257814067286 21.096770933662906,127.58611273016336 19.74219141564306,136.15175929009212 19.572917445545812,138.22670774658468 19.577070319099143,150.64656825341157 19.834900001939438,153.04233501059858 20.150522418988945,154.55623364703703 21.57514328686835,159.14581692390158 21.708189627375834,159.44932888818425 23.31346804030722,161.7840379221145 24.01569869576361,163.27180628964166 24.222013094266785,163.45055818227954 24.743835474374855,163.7555363323815 27.205618507031893,164.69206279442867 27.846684276421627,164.87609315758348 32.886729918448545,164.6602776202332 33.011450113224655,164.626894407397 35.22793084014205,162.88613410806508 36.24160602340637,161.76574178547457 37.07790207610132,160.494016330824 42.29438180987725,150.23802202929377 51.91506904769291,144.51483330246734  M59.55393771578062,120.01583129538272 58.33528456525681,115.91687463806322 56.806707872590316,112.34127945552132 52.50739416613286,106.24822366446662 48.43002477846253,102.33775414136564 45.69388135875489,100.25275343568097 40.303090296587435,97.35534370475952 36.362211287306096,95.64163688254168 30.828369970890062,95.21215062872827 22.287635212007398,95.94531961458024 18.892690493964512,97.146029816264 15.268003370262058,98.91830856595467 12.386937478151774,100.60116291242366 9.631867407878678,102.84242622835818 7.296910492166684,105.14773077418668 4.499110421349794,109.61037105371543 0.6921805670557788,119.19262185932715 -0.3619709336629055,122.43508726983661 -2.117391415643059,133.5354407099079 -2.427317445545809,137.3344922534153 -2.422470319099141,151.83063174658844 -1.9229000019394409,156.4726649894014 -1.171922418988945,160.07476635296294 0.9302567131316493,166.84718307609842 2.397210372624167,170.19367111181572 4.177531959692788,172.78296207788551 4.7933158175263895,174.08758149004044 7.093783908958133,177.71922052773385 11.358786905733217,181.41444181772047 15.217164525625142,183.66946366761852 20.246981492968104,185.5829372055713 25.214315723578373,187.0089068424165 36.24147008155146,186.53672237976681 39.96995007443275,185.53873932352437 44.06440326928053,183.91996894984825 50.28706915985795,179.0328658919349 53.692193976593636,175.26925821452545 56.13209792389868,171.558983669176 59.01601819012275,165.88897797070624 63.162730952307086,163.42216669753267  M55.79216802647704,107.08756188228567 34.22150005107861,122.30801474933777  M44.19070829190335,96.9472114060062 31.692316943853083,120.20115980394533  M26.30216709720765,93.39261230769756 28.56013194474562,119.69579647103257  M4.177089830628095,105.98229604140275 26.544672195405834,120.00538990609314  M-0.12237823409299864,115.28439405136355 24.412196725309354,125.03172876114452  M-3.8314696300874154,130.2898881346083 22.244406168110363,134.41355200791287  M-4.625302070476831,143.34283383952388 21.774618847196272,143.3340064027481  M-4.380824455544502,154.1939971253173 21.867533660538626,151.36917879613458  M2.1030775599503873,173.64889934866198 23.85699851268268,158.69153241576538  M12.378982143870072,184.5588703880805 25.700092804500922,161.76624190538325  M31.678736318867724,188.93410887374122 30.549322493849534,162.55835624381817  M49.347400837558645,182.56822905025695 33.04136344888136,161.8060266848504  M58.91002288855702,170.95006873445826 35.37897770594341,158.98153436316485  " inkstitch:satin_column="true" transform="scale(1.34116, 1.34116)"/></g><g id="centerline_group_2662" inkscape:label="c1_1 center line"><path xmlns:inkstitch="http://inkstitch.org/namespace" id="path1115" style="stroke:#2F3032;stroke-width:1px;fill:none" d="M61.99287365916243,267.24876285750406 64.96254808754277,268.5793112549505 65.6768818553537,268.8175773064231 66.2744110455171,268.92335583986204 67.22821485771607,268.98392843919663 71.4255310807931,268.9201394388459 76.2747386740702,267.5642221838394 79.05950099013408,265.687299090036 79.50191638994723,265.25876827320104 80.3208044191006,263.0922968722 80.33027494466263,258.0715653921019 80.26763080663363,257.7870431689774 80.01216832665875,257.09773640993484 76.61026038676165,251.5239756433146 73.0939466415857,247.18009472035283 67.994319253526,239.91018103575632 65.62585045034164,235.88027044723194 62.884474470232114,230.52364375366864  M52.99752634083757,287.3256371424959 56.96465191245722,289.10308874504955 60.2497181446463,290.19882269357686 63.6515889544829,290.8010441601379 66.69738514228393,290.99447156080333 74.6072689192069,290.8742605611541 85.6226613259298,287.7941778161606 92.96849900986591,282.843100909964 96.18257767343687,279.7298915694808 98.90197723793422,276.1560978542637 101.72996691669505,268.6742950396644 102.31670090825682,265.2542074387521 102.33472505533736,255.69883460789808 101.42556919336636,251.56955683102262 99.90063167334124,247.4548635900651 94.62833961323834,238.8166243566854 90.6698533584143,233.9265052796472 86.51288074647401,228.00041896424366 84.91774954965834,225.28632955276805 82.46872552976788,220.50095624633138  M57.264264968631764,291.5221722916024 65.61753751371978,266.47863539741525  M69.27045753943014,293.1556146971481 68.86928923884639,266.7587405189875  M80.23042390214081,291.5863137107149 73.12126259846096,266.16160667324255  M91.78474490101355,286.2939916266849 77.02978406583553,264.4022801098711  M102.51661514871365,272.8153814358608 77.82189528811544,263.4812123036021  M103.90916759050599,252.6183327497677 78.12676629749281,258.29492379977876  M98.93741763326219,241.65385568301662 76.40314924129706,255.40749703437933  M93.48193679081203,233.90381478857083 72.96235993349029,250.5141389268741  M87.69071353440901,225.6626031292262 64.93061745869244,239.03922187266002  " inkstitch:satin_column="true" transform="scale(1.34116, 1.34116)"/><path xmlns:inkstitch="http://inkstitch.org/namespace" id="path7094" style="stroke:#2F3032;stroke-width:1px;fill:none" d="M38.46626228421938,126.28536870461727 37.608515434743175,123.40032536193677 37.491292127409665,123.12612054447865 35.75200583386714,120.66117633553338 34.10297522153751,119.07964585863441 33.74471864124516,118.80664656431907 30.914702334106757,117.28558653947137 27.12215174754318,117.61115343106125 25.66199662973795,118.32509143404533 24.951262521848225,118.74023708757633 24.522640489175604,119.08892326024242 24.204089578650205,119.59702894628458 21.397019432944223,126.66257814067286 21.096770933662906,127.58611273016336 19.74219141564306,136.15175929009212 19.572917445545812,138.22670774658468 19.577070319099143,150.64656825341157 19.834900001939438,153.04233501059858 20.150522418988945,154.55623364703703 21.57514328686835,159.14581692390158 21.708189627375834,159.44932888818425 23.31346804030722,161.7840379221145 24.01569869576361,163.27180628964166 24.222013094266785,163.45055818227954 24.743835474374855,163.7555363323815 27.205618507031893,164.69206279442867 27.846684276421627,164.87609315758348 32.886729918448545,164.6602776202332 33.011450113224655,164.626894407397 35.22793084014205,162.88613410806508 36.24160602340637,161.76574178547457 37.07790207610132,160.494016330824 42.29438180987725,150.23802202929377 51.91506904769291,144.51483330246734  M59.55393771578062,120.01583129538272 58.33528456525681,115.91687463806322 56.806707872590316,112.34127945552132 52.50739416613286,106.24822366446662 48.43002477846253,102.33775414136564 45.69388135875489,100.25275343568097 40.303090296587435,97.35534370475952 36.362211287306096,95.64163688254168 30.828369970890062,95.21215062872827 22.287635212007398,95.94531961458024 18.892690493964512,97.146029816264 15.268003370262058,98.91830856595467 12.386937478151774,100.60116291242366 9.631867407878678,102.84242622835818 7.296910492166684,105.14773077418668 4.499110421349794,109.61037105371543 0.6921805670557788,119.19262185932715 -0.3619709336629055,122.43508726983661 -2.117391415643059,133.5354407099079 -2.427317445545809,137.3344922534153 -2.422470319099141,151.83063174658844 -1.9229000019394409,156.4726649894014 -1.171922418988945,160.07476635296294 0.9302567131316493,166.84718307609842 2.397210372624167,170.19367111181572 4.177531959692788,172.78296207788551 4.7933158175263895,174.08758149004044 7.093783908958133,177.71922052773385 11.358786905733217,181.41444181772047 15.217164525625142,183.66946366761852 20.246981492968104,185.5829372055713 25.214315723578373,187.0089068424165 36.24147008155146,186.53672237976681 39.96995007443275,185.53873932352437 44.06440326928053,183.91996894984825 50.28706915985795,179.0328658919349 53.692193976593636,175.26925821452545 56.13209792389868,171.558983669176 59.01601819012275,165.88897797070624 63.162730952307086,163.42216669753267  M55.79216802647704,107.08756188228567 34.22150005107861,122.30801474933777  M44.19070829190335,96.9472114060062 31.692316943853083,120.20115980394533  M26.30216709720765,93.39261230769756 28.56013194474562,119.69579647103257  M4.177089830628095,105.98229604140275 26.544672195405834,120.00538990609314  M-0.12237823409299864,115.28439405136355 24.412196725309354,125.03172876114452  M-3.8314696300874154,130.2898881346083 22.244406168110363,134.41355200791287  M-4.625302070476831,143.34283383952388 21.774618847196272,143.3340064027481  M-4.380824455544502,154.1939971253173 21.867533660538626,151.36917879613458  M2.1030775599503873,173.64889934866198 23.85699851268268,158.69153241576538  M12.378982143870072,184.5588703880805 25.700092804500922,161.76624190538325  M31.678736318867724,188.93410887374122 30.549322493849534,162.55835624381817  M49.347400837558645,182.56822905025695 33.04136344888136,161.8060266848504  M58.91002288855702,170.95006873445826 35.37897770594341,158.98153436316485  " inkstitch:satin_column="true" transform="scale(1.34116, 1.34116)"/></g><g id="centerline_group_9636" inkscape:label="c1_2 center line"><path xmlns:inkstitch="http://inkstitch.org/namespace" id="path4423" style="stroke:#2F3032;stroke-width:1px;fill:none" d="M61.99287365916243,267.24876285750406 64.96254808754277,268.5793112549505 65.6768818553537,268.8175773064231 66.2744110455171,268.92335583986204 67.22821485771607,268.98392843919663 71.4255310807931,268.9201394388459 76.2747386740702,267.5642221838394 79.05950099013408,265.687299090036 79.50191638994723,265.25876827320104 80.3208044191006,263.0922968722 80.33027494466263,258.0715653921019 80.26763080663363,257.7870431689774 80.01216832665875,257.09773640993484 76.61026038676165,251.5239756433146 73.0939466415857,247.18009472035283 67.994319253526,239.91018103575632 65.62585045034164,235.88027044723194 62.884474470232114,230.52364375366864  M52.99752634083757,287.3256371424959 56.96465191245722,289.10308874504955 60.2497181446463,290.19882269357686 63.6515889544829,290.8010441601379 66.69738514228393,290.99447156080333 74.6072689192069,290.8742605611541 85.6226613259298,287.7941778161606 92.96849900986591,282.843100909964 96.18257767343687,279.7298915694808 98.90197723793422,276.1560978542637 101.72996691669505,268.6742950396644 102.31670090825682,265.2542074387521 102.33472505533736,255.69883460789808 101.42556919336636,251.56955683102262 99.90063167334124,247.4548635900651 94.62833961323834,238.8166243566854 90.6698533584143,233.9265052796472 86.51288074647401,228.00041896424366 84.91774954965834,225.28632955276805 82.46872552976788,220.50095624633138  M57.264264968631764,291.5221722916024 65.61753751371978,266.47863539741525  M69.27045753943014,293.1556146971481 68.86928923884639,266.7587405189875  M80.23042390214081,291.5863137107149 73.12126259846096,266.16160667324255  M91.78474490101355,286.2939916266849 77.02978406583553,264.4022801098711  M102.51661514871365,272.8153814358608 77.82189528811544,263.4812123036021  M103.90916759050599,252.6183327497677 78.12676629749281,258.29492379977876  M98.93741763326219,241.65385568301662 76.40314924129706,255.40749703437933  M93.48193679081203,233.90381478857083 72.96235993349029,250.5141389268741  M87.69071353440901,225.6626031292262 64.93061745869244,239.03922187266002  " inkstitch:satin_column="true" transform="scale(1.34116, 1.34116)"/><path xmlns:inkstitch="http://inkstitch.org/namespace" id="path3270" style="stroke:#2F3032;stroke-width:1px;fill:none" d="M38.46626228421938,126.28536870461727 37.608515434743175,123.40032536193677 37.491292127409665,123.12612054447865 35.75200583386714,120.66117633553338 34.10297522153751,119.07964585863441 33.74471864124516,118.80664656431907 30.914702334106757,117.28558653947137 27.12215174754318,117.61115343106125 25.66199662973795,118.32509143404533 24.951262521848225,118.74023708757633 24.522640489175604,119.08892326024242 24.204089578650205,119.59702894628458 21.397019432944223,126.66257814067286 21.096770933662906,127.58611273016336 19.74219141564306,136.15175929009212 19.572917445545812,138.22670774658468 19.577070319099143,150.64656825341157 19.834900001939438,153.04233501059858 20.150522418988945,154.55623364703703 21.57514328686835,159.14581692390158 21.708189627375834,159.44932888818425 23.31346804030722,161.7840379221145 24.01569869576361,163.27180628964166 24.222013094266785,163.45055818227954 24.743835474374855,163.7555363323815 27.205618507031893,164.69206279442867 27.846684276421627,164.87609315758348 32.886729918448545,164.6602776202332 33.011450113224655,164.626894407397 35.22793084014205,162.88613410806508 36.24160602340637,161.76574178547457 37.07790207610132,160.494016330824 42.29438180987725,150.23802202929377 51.91506904769291,144.51483330246734  M59.55393771578062,120.01583129538272 58.33528456525681,115.91687463806322 56.806707872590316,112.34127945552132 52.50739416613286,106.24822366446662 48.43002477846253,102.33775414136564 45.69388135875489,100.25275343568097 40.303090296587435,97.35534370475952 36.362211287306096,95.64163688254168 30.828369970890062,95.21215062872827 22.287635212007398,95.94531961458024 18.892690493964512,97.146029816264 15.268003370262058,98.91830856595467 12.386937478151774,100.60116291242366 9.631867407878678,102.84242622835818 7.296910492166684,105.14773077418668 4.499110421349794,109.61037105371543 0.6921805670557788,119.19262185932715 -0.3619709336629055,122.43508726983661 -2.117391415643059,133.5354407099079 -2.427317445545809,137.3344922534153 -2.422470319099141,151.83063174658844 -1.9229000019394409,156.4726649894014 -1.171922418988945,160.07476635296294 0.9302567131316493,166.84718307609842 2.397210372624167,170.19367111181572 4.177531959692788,172.78296207788551 4.7933158175263895,174.08758149004044 7.093783908958133,177.71922052773385 11.358786905733217,181.41444181772047 15.217164525625142,183.66946366761852 20.246981492968104,185.5829372055713 25.214315723578373,187.0089068424165 36.24147008155146,186.53672237976681 39.96995007443275,185.53873932352437 44.06440326928053,183.91996894984825 50.28706915985795,179.0328658919349 53.692193976593636,175.26925821452545 56.13209792389868,171.558983669176 59.01601819012275,165.88897797070624 63.162730952307086,163.42216669753267  M55.79216802647704,107.08756188228567 34.22150005107861,122.30801474933777  M44.19070829190335,96.9472114060062 31.692316943853083,120.20115980394533  M26.30216709720765,93.39261230769756 28.56013194474562,119.69579647103257  M4.177089830628095,105.98229604140275 26.544672195405834,120.00538990609314  M-0.12237823409299864,115.28439405136355 24.412196725309354,125.03172876114452  M-3.8314696300874154,130.2898881346083 22.244406168110363,134.41355200791287  M-4.625302070476831,143.34283383952388 21.774618847196272,143.3340064027481  M-4.380824455544502,154.1939971253173 21.867533660538626,151.36917879613458  M2.1030775599503873,173.64889934866198 23.85699851268268,158.69153241576538  M12.378982143870072,184.5588703880805 25.700092804500922,161.76624190538325  M31.678736318867724,188.93410887374122 30.549322493849534,162.55835624381817  M49.347400837558645,182.56822905025695 33.04136344888136,161.8060266848504  M58.91002288855702,170.95006873445826 35.37897770594341,158.98153436316485  " inkstitch:satin_column="true" transform="scale(1.34116, 1.34116)"/></g><g id="centerline_group_5645" inkscape:label="c1_3 center line"><path xmlns:inkstitch="http://inkstitch.org/namespace" id="path2985" style="stroke:#2F3032;stroke-width:1px;fill:none" d="M61.99287365916243,267.24876285750406 64.96254808754277,268.5793112549505 65.6768818553537,268.8175773064231 66.2744110455171,268.92335583986204 67.22821485771607,268.98392843919663 71.4255310807931,268.9201394388459 76.2747386740702,267.5642221838394 79.05950099013408,265.687299090036 79.50191638994723,265.25876827320104 80.3208044191006,263.0922968722 80.33027494466263,258.0715653921019 80.26763080663363,257.7870431689774 80.01216832665875,257.09773640993484 76.61026038676165,251.5239756433146 73.0939466415857,247.18009472035283 67.994319253526,239.91018103575632 65.62585045034164,235.88027044723194 62.884474470232114,230.52364375366864  M52.99752634083757,287.3256371424959 56.96465191245722,289.10308874504955 60.2497181446463,290.19882269357686 63.6515889544829,290.8010441601379 66.69738514228393,290.99447156080333 74.6072689192069,290.8742605611541 85.6226613259298,287.7941778161606 92.96849900986591,282.843100909964 96.18257767343687,279.7298915694808 98.90197723793422,276.1560978542637 101.72996691669505,268.6742950396644 102.31670090825682,265.2542074387521 102.33472505533736,255.69883460789808 101.42556919336636,251.56955683102262 99.90063167334124,247.4548635900651 94.62833961323834,238.8166243566854 90.6698533584143,233.9265052796472 86.51288074647401,228.00041896424366 84.91774954965834,225.28632955276805 82.46872552976788,220.50095624633138  M57.264264968631764,291.5221722916024 65.61753751371978,266.47863539741525  M69.27045753943014,293.1556146971481 68.86928923884639,266.7587405189875  M80.23042390214081,291.5863137107149 73.12126259846096,266.16160667324255  M91.78474490101355,286.2939916266849 77.02978406583553,264.4022801098711  M102.51661514871365,272.8153814358608 77.82189528811544,263.4812123036021  M103.90916759050599,252.6183327497677 78.12676629749281,258.29492379977876  M98.93741763326219,241.65385568301662 76.40314924129706,255.40749703437933  M93.48193679081203,233.90381478857083 72.96235993349029,250.5141389268741  M87.69071353440901,225.6626031292262 64.93061745869244,239.03922187266002  " inkstitch:satin_column="true" transform="scale(1.34116, 1.34116)"/><path xmlns:inkstitch="http://inkstitch.org/namespace" id="path7229" style="stroke:#2F3032;stroke-width:1px;fill:none" d="M128.13582479418923,238.59273430832678 130.44398390738866,235.29730949774117 132.6786330756333,232.63256689369055 134.96934041343985,230.5373883570986 137.51971482776733,228.54237048136864 138.6310779770424,227.22741307449527 139.10073030411476,224.39135043589715 139.0732680629195,223.96889236625302 138.85417521535558,223.014448464305 138.72943879526375,222.73799363254116 137.69903757895028,221.03338524138846 137.44844765139754,220.79450279554044 137.1812585756415,220.616898344013 133.63671494650342,219.22686819987803 131.29525839216635,218.65741216086838 127.9355265125689,218.6549771314213 127.14945562516172,218.77586553023855 125.80477648505986,219.25431464336606 123.8550078057176,220.1974312061403 122.035687609967,221.2480718357896  M146.15537520581077,251.21386569167322 147.91521609261133,248.70129050225884 148.60056692436672,247.88403310630943 149.19185958656016,247.34321164290142 152.8594851722327,244.47422951863135 156.4112873399327,240.27176107147034 159.57365582427187,235.4216929905185 161.21846969588526,225.48924956410286 160.9119319370805,220.77370763374697 159.80702478464443,215.96035153569503 158.23976120473625,212.48680636745885 155.0061624210497,207.13741475861153 151.23275234860245,203.54029720445953 147.40194142435848,200.99390165598697 140.28248505349657,198.201931800122 133.93994160783367,196.65938783913163 126.26167348743111,196.65382286857871 121.74174437483826,197.34893446976145 117.30242351494014,198.92848535663393 113.55039219428238,200.74336879385973 111.033712390033,202.19672816421038  M149.66775164142257,250.03523458419474 129.43924716957292,233.07164094324142  M156.5881028587173,243.47073135675294 136.42499010982172,226.4294641897152  M163.1936261585555,221.9590975778456 136.84930745706288,223.67163211391235  M153.93186827558824,203.073860098152 135.71601554620608,222.18246056298187  M138.6575083353243,195.5426051943038 132.4187495143635,221.19477451303624  M123.9991953573119,194.7759079223785 128.01201507060387,220.86907140118365  " inkstitch:satin_column="true" transform="scale(1.34116, 1.34116)"/><path xmlns:inkstitch="http://inkstitch.org/namespace" id="path5515" style="stroke:#2F3032;stroke-width:1px;fill:none" d="M38.46626228421938,126.28536870461727 37.608515434743175,123.40032536193677 37.491292127409665,123.12612054447865 35.75200583386714,120.66117633553338 34.10297522153751,119.07964585863441 33.74471864124516,118.80664656431907 30.914702334106757,117.28558653947137 27.12215174754318,117.61115343106125 25.66199662973795,118.32509143404533 24.951262521848225,118.74023708757633 24.522640489175604,119.08892326024242 24.204089578650205,119.59702894628458 21.397019432944223,126.66257814067286 21.096770933662906,127.58611273016336 19.74219141564306,136.15175929009212 19.572917445545812,138.22670774658468 19.577070319099143,150.64656825341157 19.834900001939438,153.04233501059858 20.150522418988945,154.55623364703703 21.57514328686835,159.14581692390158 21.708189627375834,159.44932888818425 23.31346804030722,161.7840379221145 24.01569869576361,163.27180628964166 24.222013094266785,163.45055818227954 24.743835474374855,163.7555363323815 27.205618507031893,164.69206279442867 27.846684276421627,164.87609315758348 32.886729918448545,164.6602776202332 33.011450113224655,164.626894407397 35.22793084014205,162.88613410806508 36.24160602340637,161.76574178547457 37.07790207610132,160.494016330824 42.29438180987725,150.23802202929377 51.91506904769291,144.51483330246734  M59.55393771578062,120.01583129538272 58.33528456525681,115.91687463806322 56.806707872590316,112.34127945552132 52.50739416613286,106.24822366446662 48.43002477846253,102.33775414136564 45.69388135875489,100.25275343568097 40.303090296587435,97.35534370475952 36.362211287306096,95.64163688254168 30.828369970890062,95.21215062872827 22.287635212007398,95.94531961458024 18.892690493964512,97.146029816264 15.268003370262058,98.91830856595467 12.386937478151774,100.60116291242366 9.631867407878678,102.84242622835818 7.296910492166684,105.14773077418668 4.499110421349794,109.61037105371543 0.6921805670557788,119.19262185932715 -0.3619709336629055,122.43508726983661 -2.117391415643059,133.5354407099079 -2.427317445545809,137.3344922534153 -2.422470319099141,151.83063174658844 -1.9229000019394409,156.4726649894014 -1.171922418988945,160.07476635296294 0.9302567131316493,166.84718307609842 2.397210372624167,170.19367111181572 4.177531959692788,172.78296207788551 4.7933158175263895,174.08758149004044 7.093783908958133,177.71922052773385 11.358786905733217,181.41444181772047 15.217164525625142,183.66946366761852 20.246981492968104,185.5829372055713 25.214315723578373,187.0089068424165 36.24147008155146,186.53672237976681 39.96995007443275,185.53873932352437 44.06440326928053,183.91996894984825 50.28706915985795,179.0328658919349 53.692193976593636,175.26925821452545 56.13209792389868,171.558983669176 59.01601819012275,165.88897797070624 63.162730952307086,163.42216669753267  M55.79216802647704,107.08756188228567 34.22150005107861,122.30801474933777  M44.19070829190335,96.9472114060062 31.692316943853083,120.20115980394533  M26.30216709720765,93.39261230769756 28.56013194474562,119.69579647103257  M4.177089830628095,105.98229604140275 26.544672195405834,120.00538990609314  M-0.12237823409299864,115.28439405136355 24.412196725309354,125.03172876114452  M-3.8314696300874154,130.2898881346083 22.244406168110363,134.41355200791287  M-4.625302070476831,143.34283383952388 21.774618847196272,143.3340064027481  M-4.380824455544502,154.1939971253173 21.867533660538626,151.36917879613458  M2.1030775599503873,173.64889934866198 23.85699851268268,158.69153241576538  M12.378982143870072,184.5588703880805 25.700092804500922,161.76624190538325  M31.678736318867724,188.93410887374122 30.549322493849534,162.55835624381817  M49.347400837558645,182.56822905025695 33.04136344888136,161.8060266848504  M58.91002288855702,170.95006873445826 35.37897770594341,158.98153436316485  " inkstitch:satin_column="true" transform="scale(1.34116, 1.34116)"/></g><path id="c1_4" d="M0,0 L11,0 L12,5 L12,19 L11,20 L-22,21 L-22,44 L-2,44 L6,45 L7,62 L6,63 L-22,63 L-22,89 L13,89 L13,108 L-43,108 L-44,107 L-44,2 L-31,1 Z " fill="#2F3032" transform="translate(122, 11)"/>
    <g id="centerline_group_3111" inkscape:label="c1_4 center line"/><g id="centerline_group_3740" inkscape:label="c1_5 center line"><path xmlns:inkstitch="http://inkstitch.org/namespace" id="path2744" style="stroke:#2F3032;stroke-width:1px;fill:none" d="M187.85355335412154,68.42707803514804 186.6539061896088,70.31917469130013 187.72860580003945,71.29769238440466 189.8738400605775,72.52386038443889 189.90854170034143,72.53561133682105 192.91621051267074,73.1691965227276 193.6274429456389,73.18526889943512 193.82149452913953,73.14497256948816 196.54511993060925,71.87451259622674 196.71973071666028,71.68449497611238 197.36182486547128,70.51234867175793 197.63726233078054,68.31955788533219 197.46534839756265,66.5830154431648 195.6261477288418,63.727473609802175 195.15406042726582,63.26963376325789 193.6872955582753,62.177243165590674 189.1674192558974,59.66158264475918  M169.27344664587847,56.646721964851956 162.18179765665406,67.83174847601427 164.21408802574618,75.2596691666119 168.32479055828924,82.712253607989 170.44784942537663,85.31646693872949 174.70839419996057,89.19570761559535 180.80315993942253,92.67933961556112 184.09245829965855,93.79318866317895 190.37858948732926,95.11740347727239 195.6413570543611,95.2363311005649 200.80130547086046,94.16482743051183 208.0744147737439,90.77221909109679 211.067058327449,88.58543459353344 214.72906928333973,84.60030502388761 217.39590554551748,79.73198115764689 218.8425139284476,76.02243408321128 219.77353766921945,68.61044211466782 219.17025059614642,62.516499712254515 218.2418703737363,58.68948646973673 216.99178263776702,56.27089240587764 212.75465227115822,49.692326390197834 209.44273957273415,46.4803662367421 205.65950444172466,43.66275683440933 191.73405923215964,35.91217022426808  M177.0449913197106,93.0652620967246 190.14559686129795,70.1451827594543  M192.12448251654016,97.35741222809774 192.72091369616217,70.96422802779692  M210.66417711755966,91.60458164053716 195.08846902735772,70.28901878444884  M221.52642014319466,72.3075773700716 195.33233399970518,69.01732608932001  M216.92783845577836,52.10872741844609 194.73315761035153,66.40390298759101  M201.7301822696726,38.957990738023774 188.89124011248927,62.02566219978025  " inkstitch:satin_column="true" transform="scale(1.34116, 1.34116)"/><path xmlns:inkstitch="http://inkstitch.org/namespace" id="path711" style="stroke:#2F3032;stroke-width:1px;fill:none" d="M178.1435123461925,52.80967358614194 176.6736946554515,51.147198516813795 173.99901956709667,49.19279683695778 170.2376416722027,44.71939611942028 167.76029952924327,40.34223235854799 166.06412549105966,33.710114418380826 165.7243473485056,29.240784951528415 165.866568529063,25.784107937166073 167.27643513701264,18.62547789891169 169.90292135404488,14.276724473073129 173.64713796351884,9.939919250603625 180.1477242068877,5.9196616648521 184.6509303818936,4.3893325175100335 195.4950228748222,4.270520628525639 200.4814255228716,5.514136361416589 203.20223237901735,6.437644498465791 206.4140790052092,8.108246118357657 210.93688892269356,11.184468628433144 215.4049976036817,16.07213788272542 217.78416789448178,20.041041237725658 219.0489836091927,22.87949638340541  M194.6254876538075,38.237726413858056 191.57730534454848,34.79000148318621 189.12598043290333,32.99880316304221 188.38335832779728,32.11560388057971 188.3487004707567,32.05436764145202 187.85487450894033,30.123485581619175 187.7586526514944,28.857815048471583 187.778431470937,28.377092062833928 188.06934766399172,26.899958420208925 188.09186203648113,26.873880749396374 188.94947853504164,26.343491780629048 192.91177712517776,26.30007937147436 194.27337447712836,26.639663638583404 194.54056762098267,26.730355501534213 195.11272099479078,27.027953881642343 196.43591107730643,27.927931371566853 197.6738023963183,29.282062117274585 198.2306321055182,30.210958762274345 198.95381639080728,31.83390361659459  M190.94203765190807,31.601071657064537 175.36652127536328,52.916774600833946  M190.05411133311065,29.84365673509351 164.4774115693146,36.38493578247168  M189.50492762075118,28.60365440846583 169.52211014845187,11.351323891929702  M190.0055786497921,28.532046331768974 189.71634869309506,2.13370834591875  M193.98086128473787,28.919027988384236 206.16307114986031,5.497890842951973  M196.24715328252887,31.181032319729674 218.8903643233478,17.60749570822088  " inkstitch:satin_column="true" transform="scale(1.34116, 1.34116)"/></g><path id="c1_6" d="M0,0 L3,1 L4,20 L3,21 L-21,21 L-19,67 L-18,107 L-19,108 L-41,109 L-42,93 L-42,21 L-60,22 L-61,21 L-61,2 L-47,1 Z " fill="#2F3032" transform="translate(198, 10)"/>
    <g id="centerline_group_7553" inkscape:label="c1_6 center line"/><path id="c1_7" d="M0,0 L20,0 L21,27 L22,87 L54,88 L54,108 L50,109 L4,107 L0,106 Z " fill="#2F3032" transform="translate(18, 12)"/>
    <g id="centerline_group_2078" inkscape:label="c1_7 center line"/><g id="centerline_group_1382" inkscape:label="c1_8 center line"><path xmlns:inkstitch="http://inkstitch.org/namespace" id="path9758" style="stroke:#2F3032;stroke-width:1px;fill:none" d="M38.46626228421938,126.28536870461727 37.608515434743175,123.40032536193677 37.491292127409665,123.12612054447865 35.75200583386714,120.66117633553338 34.10297522153751,119.07964585863441 33.74471864124516,118.80664656431907 30.914702334106757,117.28558653947137 27.12215174754318,117.61115343106125 25.66199662973795,118.32509143404533 24.951262521848225,118.74023708757633 24.522640489175604,119.08892326024242 24.204089578650205,119.59702894628458 21.397019432944223,126.66257814067286 21.096770933662906,127.58611273016336 19.74219141564306,136.15175929009212 19.572917445545812,138.22670774658468 19.577070319099143,150.64656825341157 19.834900001939438,153.04233501059858 20.150522418988945,154.55623364703703 21.57514328686835,159.14581692390158 21.708189627375834,159.44932888818425 23.31346804030722,161.7840379221145 24.01569869576361,163.27180628964166 24.222013094266785,163.45055818227954 24.743835474374855,163.7555363323815 27.205618507031893,164.69206279442867 27.846684276421627,164.87609315758348 32.886729918448545,164.6602776202332 33.011450113224655,164.626894407397 35.22793084014205,162.88613410806508 36.24160602340637,161.76574178547457 37.07790207610132,160.494016330824 42.29438180987725,150.23802202929377 51.91506904769291,144.51483330246734  M59.55393771578062,120.01583129538272 58.33528456525681,115.91687463806322 56.806707872590316,112.34127945552132 52.50739416613286,106.24822366446662 48.43002477846253,102.33775414136564 45.69388135875489,100.25275343568097 40.303090296587435,97.35534370475952 36.362211287306096,95.64163688254168 30.828369970890062,95.21215062872827 22.287635212007398,95.94531961458024 18.892690493964512,97.146029816264 15.268003370262058,98.91830856595467 12.386937478151774,100.60116291242366 9.631867407878678,102.84242622835818 7.296910492166684,105.14773077418668 4.499110421349794,109.61037105371543 0.6921805670557788,119.19262185932715 -0.3619709336629055,122.43508726983661 -2.117391415643059,133.5354407099079 -2.427317445545809,137.3344922534153 -2.422470319099141,151.83063174658844 -1.9229000019394409,156.4726649894014 -1.171922418988945,160.07476635296294 0.9302567131316493,166.84718307609842 2.397210372624167,170.19367111181572 4.177531959692788,172.78296207788551 4.7933158175263895,174.08758149004044 7.093783908958133,177.71922052773385 11.358786905733217,181.41444181772047 15.217164525625142,183.66946366761852 20.246981492968104,185.5829372055713 25.214315723578373,187.0089068424165 36.24147008155146,186.53672237976681 39.96995007443275,185.53873932352437 44.06440326928053,183.91996894984825 50.28706915985795,179.0328658919349 53.692193976593636,175.26925821452545 56.13209792389868,171.558983669176 59.01601819012275,165.88897797070624 63.162730952307086,163.42216669753267  M55.79216802647704,107.08756188228567 34.22150005107861,122.30801474933777  M44.19070829190335,96.9472114060062 31.692316943853083,120.20115980394533  M26.30216709720765,93.39261230769756 28.56013194474562,119.69579647103257  M4.177089830628095,105.98229604140275 26.544672195405834,120.00538990609314  M-0.12237823409299864,115.28439405136355 24.412196725309354,125.03172876114452  M-3.8314696300874154,130.2898881346083 22.244406168110363,134.41355200791287  M-4.625302070476831,143.34283383952388 21.774618847196272,143.3340064027481  M-4.380824455544502,154.1939971253173 21.867533660538626,151.36917879613458  M2.1030775599503873,173.64889934866198 23.85699851268268,158.69153241576538  M12.378982143870072,184.5588703880805 25.700092804500922,161.76624190538325  M31.678736318867724,188.93410887374122 30.549322493849534,162.55835624381817  M49.347400837558645,182.56822905025695 33.04136344888136,161.8060266848504  M58.91002288855702,170.95006873445826 35.37897770594341,158.98153436316485  " inkstitch:satin_column="true" transform="scale(1.34116, 1.34116)"/></g><g id="centerline_group_7916" inkscape:label="c1_9 center line"><path xmlns:inkstitch="http://inkstitch.org/namespace" id="path2529" style="stroke:#2F3032;stroke-width:1px;fill:none" d="M61.99287365916243,267.24876285750406 64.96254808754277,268.5793112549505 65.6768818553537,268.8175773064231 66.2744110455171,268.92335583986204 67.22821485771607,268.98392843919663 71.4255310807931,268.9201394388459 76.2747386740702,267.5642221838394 79.05950099013408,265.687299090036 79.50191638994723,265.25876827320104 80.3208044191006,263.0922968722 80.33027494466263,258.0715653921019 80.26763080663363,257.7870431689774 80.01216832665875,257.09773640993484 76.61026038676165,251.5239756433146 73.0939466415857,247.18009472035283 67.994319253526,239.91018103575632 65.62585045034164,235.88027044723194 62.884474470232114,230.52364375366864  M52.99752634083757,287.3256371424959 56.96465191245722,289.10308874504955 60.2497181446463,290.19882269357686 63.6515889544829,290.8010441601379 66.69738514228393,290.99447156080333 74.6072689192069,290.8742605611541 85.6226613259298,287.7941778161606 92.96849900986591,282.843100909964 96.18257767343687,279.7298915694808 98.90197723793422,276.1560978542637 101.72996691669505,268.6742950396644 102.31670090825682,265.2542074387521 102.33472505533736,255.69883460789808 101.42556919336636,251.56955683102262 99.90063167334124,247.4548635900651 94.62833961323834,238.8166243566854 90.6698533584143,233.9265052796472 86.51288074647401,228.00041896424366 84.91774954965834,225.28632955276805 82.46872552976788,220.50095624633138  M57.264264968631764,291.5221722916024 65.61753751371978,266.47863539741525  M69.27045753943014,293.1556146971481 68.86928923884639,266.7587405189875  M80.23042390214081,291.5863137107149 73.12126259846096,266.16160667324255  M91.78474490101355,286.2939916266849 77.02978406583553,264.4022801098711  M102.51661514871365,272.8153814358608 77.82189528811544,263.4812123036021  M103.90916759050599,252.6183327497677 78.12676629749281,258.29492379977876  M98.93741763326219,241.65385568301662 76.40314924129706,255.40749703437933  M93.48193679081203,233.90381478857083 72.96235993349029,250.5141389268741  M87.69071353440901,225.6626031292262 64.93061745869244,239.03922187266002  " inkstitch:satin_column="true" transform="scale(1.34116, 1.34116)"/><path xmlns:inkstitch="http://inkstitch.org/namespace" id="path5158" style="stroke:#2F3032;stroke-width:1px;fill:none" d="M38.46626228421938,126.28536870461727 37.608515434743175,123.40032536193677 37.491292127409665,123.12612054447865 35.75200583386714,120.66117633553338 34.10297522153751,119.07964585863441 33.74471864124516,118.80664656431907 30.914702334106757,117.28558653947137 27.12215174754318,117.61115343106125 25.66199662973795,118.32509143404533 24.951262521848225,118.74023708757633 24.522640489175604,119.08892326024242 24.204089578650205,119.59702894628458 21.397019432944223,126.66257814067286 21.096770933662906,127.58611273016336 19.74219141564306,136.15175929009212 19.572917445545812,138.22670774658468 19.577070319099143,150.64656825341157 19.834900001939438,153.04233501059858 20.150522418988945,154.55623364703703 21.57514328686835,159.14581692390158 21.708189627375834,159.44932888818425 23.31346804030722,161.7840379221145 24.01569869576361,163.27180628964166 24.222013094266785,163.45055818227954 24.743835474374855,163.7555363323815 27.205618507031893,164.69206279442867 27.846684276421627,164.87609315758348 32.886729918448545,164.6602776202332 33.011450113224655,164.626894407397 35.22793084014205,162.88613410806508 36.24160602340637,161.76574178547457 37.07790207610132,160.494016330824 42.29438180987725,150.23802202929377 51.91506904769291,144.51483330246734  M59.55393771578062,120.01583129538272 58.33528456525681,115.91687463806322 56.806707872590316,112.34127945552132 52.50739416613286,106.24822366446662 48.43002477846253,102.33775414136564 45.69388135875489,100.25275343568097 40.303090296587435,97.35534370475952 36.362211287306096,95.64163688254168 30.828369970890062,95.21215062872827 22.287635212007398,95.94531961458024 18.892690493964512,97.146029816264 15.268003370262058,98.91830856595467 12.386937478151774,100.60116291242366 9.631867407878678,102.84242622835818 7.296910492166684,105.14773077418668 4.499110421349794,109.61037105371543 0.6921805670557788,119.19262185932715 -0.3619709336629055,122.43508726983661 -2.117391415643059,133.5354407099079 -2.427317445545809,137.3344922534153 -2.422470319099141,151.83063174658844 -1.9229000019394409,156.4726649894014 -1.171922418988945,160.07476635296294 0.9302567131316493,166.84718307609842 2.397210372624167,170.19367111181572 4.177531959692788,172.78296207788551 4.7933158175263895,174.08758149004044 7.093783908958133,177.71922052773385 11.358786905733217,181.41444181772047 15.217164525625142,183.66946366761852 20.246981492968104,185.5829372055713 25.214315723578373,187.0089068424165 36.24147008155146,186.53672237976681 39.96995007443275,185.53873932352437 44.06440326928053,183.91996894984825 50.28706915985795,179.0328658919349 53.692193976593636,175.26925821452545 56.13209792389868,171.558983669176 59.01601819012275,165.88897797070624 63.162730952307086,163.42216669753267  M55.79216802647704,107.08756188228567 34.22150005107861,122.30801474933777  M44.19070829190335,96.9472114060062 31.692316943853083,120.20115980394533  M26.30216709720765,93.39261230769756 28.56013194474562,119.69579647103257  M4.177089830628095,105.98229604140275 26.544672195405834,120.00538990609314  M-0.12237823409299864,115.28439405136355 24.412196725309354,125.03172876114452  M-3.8314696300874154,130.2898881346083 22.244406168110363,134.41355200791287  M-4.625302070476831,143.34283383952388 21.774618847196272,143.3340064027481  M-4.380824455544502,154.1939971253173 21.867533660538626,151.36917879613458  M2.1030775599503873,173.64889934866198 23.85699851268268,158.69153241576538  M12.378982143870072,184.5588703880805 25.700092804500922,161.76624190538325  M31.678736318867724,188.93410887374122 30.549322493849534,162.55835624381817  M49.347400837558645,182.56822905025695 33.04136344888136,161.8060266848504  M58.91002288855702,170.95006873445826 35.37897770594341,158.98153436316485  " inkstitch:satin_column="true" transform="scale(1.34116, 1.34116)"/></g><g id="centerline_group_6256" inkscape:label="c1_10 center line"><path xmlns:inkstitch="http://inkstitch.org/namespace" id="path5973" style="stroke:#2F3032;stroke-width:1px;fill:none" d="M61.99287365916243,267.24876285750406 64.96254808754277,268.5793112549505 65.6768818553537,268.8175773064231 66.2744110455171,268.92335583986204 67.22821485771607,268.98392843919663 71.4255310807931,268.9201394388459 76.2747386740702,267.5642221838394 79.05950099013408,265.687299090036 79.50191638994723,265.25876827320104 80.3208044191006,263.0922968722 80.33027494466263,258.0715653921019 80.26763080663363,257.7870431689774 80.01216832665875,257.09773640993484 76.61026038676165,251.5239756433146 73.0939466415857,247.18009472035283 67.994319253526,239.91018103575632 65.62585045034164,235.88027044723194 62.884474470232114,230.52364375366864  M52.99752634083757,287.3256371424959 56.96465191245722,289.10308874504955 60.2497181446463,290.19882269357686 63.6515889544829,290.8010441601379 66.69738514228393,290.99447156080333 74.6072689192069,290.8742605611541 85.6226613259298,287.7941778161606 92.96849900986591,282.843100909964 96.18257767343687,279.7298915694808 98.90197723793422,276.1560978542637 101.72996691669505,268.6742950396644 102.31670090825682,265.2542074387521 102.33472505533736,255.69883460789808 101.42556919336636,251.56955683102262 99.90063167334124,247.4548635900651 94.62833961323834,238.8166243566854 90.6698533584143,233.9265052796472 86.51288074647401,228.00041896424366 84.91774954965834,225.28632955276805 82.46872552976788,220.50095624633138  M57.264264968631764,291.5221722916024 65.61753751371978,266.47863539741525  M69.27045753943014,293.1556146971481 68.86928923884639,266.7587405189875  M80.23042390214081,291.5863137107149 73.12126259846096,266.16160667324255  M91.78474490101355,286.2939916266849 77.02978406583553,264.4022801098711  M102.51661514871365,272.8153814358608 77.82189528811544,263.4812123036021  M103.90916759050599,252.6183327497677 78.12676629749281,258.29492379977876  M98.93741763326219,241.65385568301662 76.40314924129706,255.40749703437933  M93.48193679081203,233.90381478857083 72.96235993349029,250.5141389268741  M87.69071353440901,225.6626031292262 64.93061745869244,239.03922187266002  " inkstitch:satin_column="true" transform="scale(1.34116, 1.34116)"/><path xmlns:inkstitch="http://inkstitch.org/namespace" id="path637" style="stroke:#2F3032;stroke-width:1px;fill:none" d="M128.13582479418923,238.59273430832678 130.44398390738866,235.29730949774117 132.6786330756333,232.63256689369055 134.96934041343985,230.5373883570986 137.51971482776733,228.54237048136864 138.6310779770424,227.22741307449527 139.10073030411476,224.39135043589715 139.0732680629195,223.96889236625302 138.85417521535558,223.014448464305 138.72943879526375,222.73799363254116 137.69903757895028,221.03338524138846 137.44844765139754,220.79450279554044 137.1812585756415,220.616898344013 133.63671494650342,219.22686819987803 131.29525839216635,218.65741216086838 127.9355265125689,218.6549771314213 127.14945562516172,218.77586553023855 125.80477648505986,219.25431464336606 123.8550078057176,220.1974312061403 122.035687609967,221.2480718357896  M146.15537520581077,251.21386569167322 147.91521609261133,248.70129050225884 148.60056692436672,247.88403310630943 149.19185958656016,247.34321164290142 152.8594851722327,244.47422951863135 156.4112873399327,240.27176107147034 159.57365582427187,235.4216929905185 161.21846969588526,225.48924956410286 160.9119319370805,220.77370763374697 159.80702478464443,215.96035153569503 158.23976120473625,212.48680636745885 155.0061624210497,207.13741475861153 151.23275234860245,203.54029720445953 147.40194142435848,200.99390165598697 140.28248505349657,198.201931800122 133.93994160783367,196.65938783913163 126.26167348743111,196.65382286857871 121.74174437483826,197.34893446976145 117.30242351494014,198.92848535663393 113.55039219428238,200.74336879385973 111.033712390033,202.19672816421038  M149.66775164142257,250.03523458419474 129.43924716957292,233.07164094324142  M156.5881028587173,243.47073135675294 136.42499010982172,226.4294641897152  M163.1936261585555,221.9590975778456 136.84930745706288,223.67163211391235  M153.93186827558824,203.073860098152 135.71601554620608,222.18246056298187  M138.6575083353243,195.5426051943038 132.4187495143635,221.19477451303624  M123.9991953573119,194.7759079223785 128.01201507060387,220.86907140118365  " inkstitch:satin_column="true" transform="scale(1.34116, 1.34116)"/><path xmlns:inkstitch="http://inkstitch.org/namespace" id="path7630" style="stroke:#2F3032;stroke-width:1px;fill:none" d="M38.46626228421938,126.28536870461727 37.608515434743175,123.40032536193677 37.491292127409665,123.12612054447865 35.75200583386714,120.66117633553338 34.10297522153751,119.07964585863441 33.74471864124516,118.80664656431907 30.914702334106757,117.28558653947137 27.12215174754318,117.61115343106125 25.66199662973795,118.32509143404533 24.951262521848225,118.74023708757633 24.522640489175604,119.08892326024242 24.204089578650205,119.59702894628458 21.397019432944223,126.66257814067286 21.096770933662906,127.58611273016336 19.74219141564306,136.15175929009212 19.572917445545812,138.22670774658468 19.577070319099143,150.64656825341157 19.834900001939438,153.04233501059858 20.150522418988945,154.55623364703703 21.57514328686835,159.14581692390158 21.708189627375834,159.44932888818425 23.31346804030722,161.7840379221145 24.01569869576361,163.27180628964166 24.222013094266785,163.45055818227954 24.743835474374855,163.7555363323815 27.205618507031893,164.69206279442867 27.846684276421627,164.87609315758348 32.886729918448545,164.6602776202332 33.011450113224655,164.626894407397 35.22793084014205,162.88613410806508 36.24160602340637,161.76574178547457 37.07790207610132,160.494016330824 42.29438180987725,150.23802202929377 51.91506904769291,144.51483330246734  M59.55393771578062,120.01583129538272 58.33528456525681,115.91687463806322 56.806707872590316,112.34127945552132 52.50739416613286,106.24822366446662 48.43002477846253,102.33775414136564 45.69388135875489,100.25275343568097 40.303090296587435,97.35534370475952 36.362211287306096,95.64163688254168 30.828369970890062,95.21215062872827 22.287635212007398,95.94531961458024 18.892690493964512,97.146029816264 15.268003370262058,98.91830856595467 12.386937478151774,100.60116291242366 9.631867407878678,102.84242622835818 7.296910492166684,105.14773077418668 4.499110421349794,109.61037105371543 0.6921805670557788,119.19262185932715 -0.3619709336629055,122.43508726983661 -2.117391415643059,133.5354407099079 -2.427317445545809,137.3344922534153 -2.422470319099141,151.83063174658844 -1.9229000019394409,156.4726649894014 -1.171922418988945,160.07476635296294 0.9302567131316493,166.84718307609842 2.397210372624167,170.19367111181572 4.177531959692788,172.78296207788551 4.7933158175263895,174.08758149004044 7.093783908958133,177.71922052773385 11.358786905733217,181.41444181772047 15.217164525625142,183.66946366761852 20.246981492968104,185.5829372055713 25.214315723578373,187.0089068424165 36.24147008155146,186.53672237976681 39.96995007443275,185.53873932352437 44.06440326928053,183.91996894984825 50.28706915985795,179.0328658919349 53.692193976593636,175.26925821452545 56.13209792389868,171.558983669176 59.01601819012275,165.88897797070624 63.162730952307086,163.42216669753267  M55.79216802647704,107.08756188228567 34.22150005107861,122.30801474933777  M44.19070829190335,96.9472114060062 31.692316943853083,120.20115980394533  M26.30216709720765,93.39261230769756 28.56013194474562,119.69579647103257  M4.177089830628095,105.98229604140275 26.544672195405834,120.00538990609314  M-0.12237823409299864,115.28439405136355 24.412196725309354,125.03172876114452  M-3.8314696300874154,130.2898881346083 22.244406168110363,134.41355200791287  M-4.625302070476831,143.34283383952388 21.774618847196272,143.3340064027481  M-4.380824455544502,154.1939971253173 21.867533660538626,151.36917879613458  M2.1030775599503873,173.64889934866198 23.85699851268268,158.69153241576538  M12.378982143870072,184.5588703880805 25.700092804500922,161.76624190538325  M31.678736318867724,188.93410887374122 30.549322493849534,162.55835624381817  M49.347400837558645,182.56822905025695 33.04136344888136,161.8060266848504  M58.91002288855702,170.95006873445826 35.37897770594341,158.98153436316485  " inkstitch:satin_column="true" transform="scale(1.34116, 1.34116)"/></g><path id="c1_11" d="M0,0 L6,2 L10,8 L10,17 L6,27 L0,35 L-6,40 L-11,41 L-10,33 L-7,24 L-7,17 L-8,8 L-3,2 Z " fill="#2F3032" transform="translate(215, 9)"/>
    <g id="centerline_group_9415" inkscape:label="c1_12 center line"><path xmlns:inkstitch="http://inkstitch.org/namespace" id="path6075" style="stroke:#2F3032;stroke-width:1px;fill:none" d="M61.99287365916243,267.24876285750406 64.96254808754277,268.5793112549505 65.6768818553537,268.8175773064231 66.2744110455171,268.92335583986204 67.22821485771607,268.98392843919663 71.4255310807931,268.9201394388459 76.2747386740702,267.5642221838394 79.05950099013408,265.687299090036 79.50191638994723,265.25876827320104 80.3208044191006,263.0922968722 80.33027494466263,258.0715653921019 80.26763080663363,257.7870431689774 80.01216832665875,257.09773640993484 76.61026038676165,251.5239756433146 73.0939466415857,247.18009472035283 67.994319253526,239.91018103575632 65.62585045034164,235.88027044723194 62.884474470232114,230.52364375366864  M52.99752634083757,287.3256371424959 56.96465191245722,289.10308874504955 60.2497181446463,290.19882269357686 63.6515889544829,290.8010441601379 66.69738514228393,290.99447156080333 74.6072689192069,290.8742605611541 85.6226613259298,287.7941778161606 92.96849900986591,282.843100909964 96.18257767343687,279.7298915694808 98.90197723793422,276.1560978542637 101.72996691669505,268.6742950396644 102.31670090825682,265.2542074387521 102.33472505533736,255.69883460789808 101.42556919336636,251.56955683102262 99.90063167334124,247.4548635900651 94.62833961323834,238.8166243566854 90.6698533584143,233.9265052796472 86.51288074647401,228.00041896424366 84.91774954965834,225.28632955276805 82.46872552976788,220.50095624633138  M57.264264968631764,291.5221722916024 65.61753751371978,266.47863539741525  M69.27045753943014,293.1556146971481 68.86928923884639,266.7587405189875  M80.23042390214081,291.5863137107149 73.12126259846096,266.16160667324255  M91.78474490101355,286.2939916266849 77.02978406583553,264.4022801098711  M102.51661514871365,272.8153814358608 77.82189528811544,263.4812123036021  M103.90916759050599,252.6183327497677 78.12676629749281,258.29492379977876  M98.93741763326219,241.65385568301662 76.40314924129706,255.40749703437933  M93.48193679081203,233.90381478857083 72.96235993349029,250.5141389268741  M87.69071353440901,225.6626031292262 64.93061745869244,239.03922187266002  " inkstitch:satin_column="true" transform="scale(1.34116, 1.34116)"/><path xmlns:inkstitch="http://inkstitch.org/namespace" id="path9588" style="stroke:#2F3032;stroke-width:1px;fill:none" d="M38.46626228421938,126.28536870461727 37.608515434743175,123.40032536193677 37.491292127409665,123.12612054447865 35.75200583386714,120.66117633553338 34.10297522153751,119.07964585863441 33.74471864124516,118.80664656431907 30.914702334106757,117.28558653947137 27.12215174754318,117.61115343106125 25.66199662973795,118.32509143404533 24.951262521848225,118.74023708757633 24.522640489175604,119.08892326024242 24.204089578650205,119.59702894628458 21.397019432944223,126.66257814067286 21.096770933662906,127.58611273016336 19.74219141564306,136.15175929009212 19.572917445545812,138.22670774658468 19.577070319099143,150.64656825341157 19.834900001939438,153.04233501059858 20.150522418988945,154.55623364703703 21.57514328686835,159.14581692390158 21.708189627375834,159.44932888818425 23.31346804030722,161.7840379221145 24.01569869576361,163.27180628964166 24.222013094266785,163.45055818227954 24.743835474374855,163.7555363323815 27.205618507031893,164.69206279442867 27.846684276421627,164.87609315758348 32.886729918448545,164.6602776202332 33.011450113224655,164.626894407397 35.22793084014205,162.88613410806508 36.24160602340637,161.76574178547457 37.07790207610132,160.494016330824 42.29438180987725,150.23802202929377 51.91506904769291,144.51483330246734  M59.55393771578062,120.01583129538272 58.33528456525681,115.91687463806322 56.806707872590316,112.34127945552132 52.50739416613286,106.24822366446662 48.43002477846253,102.33775414136564 45.69388135875489,100.25275343568097 40.303090296587435,97.35534370475952 36.362211287306096,95.64163688254168 30.828369970890062,95.21215062872827 22.287635212007398,95.94531961458024 18.892690493964512,97.146029816264 15.268003370262058,98.91830856595467 12.386937478151774,100.60116291242366 9.631867407878678,102.84242622835818 7.296910492166684,105.14773077418668 4.499110421349794,109.61037105371543 0.6921805670557788,119.19262185932715 -0.3619709336629055,122.43508726983661 -2.117391415643059,133.5354407099079 -2.427317445545809,137.3344922534153 -2.422470319099141,151.83063174658844 -1.9229000019394409,156.4726649894014 -1.171922418988945,160.07476635296294 0.9302567131316493,166.84718307609842 2.397210372624167,170.19367111181572 4.177531959692788,172.78296207788551 4.7933158175263895,174.08758149004044 7.093783908958133,177.71922052773385 11.358786905733217,181.41444181772047 15.217164525625142,183.66946366761852 20.246981492968104,185.5829372055713 25.214315723578373,187.0089068424165 36.24147008155146,186.53672237976681 39.96995007443275,185.53873932352437 44.06440326928053,183.91996894984825 50.28706915985795,179.0328658919349 53.692193976593636,175.26925821452545 56.13209792389868,171.558983669176 59.01601819012275,165.88897797070624 63.162730952307086,163.42216669753267  M55.79216802647704,107.08756188228567 34.22150005107861,122.30801474933777  M44.19070829190335,96.9472114060062 31.692316943853083,120.20115980394533  M26.30216709720765,93.39261230769756 28.56013194474562,119.69579647103257  M4.177089830628095,105.98229604140275 26.544672195405834,120.00538990609314  M-0.12237823409299864,115.28439405136355 24.412196725309354,125.03172876114452  M-3.8314696300874154,130.2898881346083 22.244406168110363,134.41355200791287  M-4.625302070476831,143.34283383952388 21.774618847196272,143.3340064027481  M-4.380824455544502,154.1939971253173 21.867533660538626,151.36917879613458  M2.1030775599503873,173.64889934866198 23.85699851268268,158.69153241576538  M12.378982143870072,184.5588703880805 25.700092804500922,161.76624190538325  M31.678736318867724,188.93410887374122 30.549322493849534,162.55835624381817  M49.347400837558645,182.56822905025695 33.04136344888136,161.8060266848504  M58.91002288855702,170.95006873445826 35.37897770594341,158.98153436316485  " inkstitch:satin_column="true" transform="scale(1.34116, 1.34116)"/></g><path id="c1_13" d="M0,0 L30,0 L26,2 L21,3 L8,3 L0,1 Z " fill="#2F3032" transform="translate(54, 0)"/>
    <path id="c1_14" d="M0,0 L26,0 L26,1 L20,2 L6,2 L0,1 Z " fill="#2F3032" transform="translate(260, 0)"/>
    <path id="c1_15" d="M0,0 L2,2 L3,11 L1,16 L0,16 Z " fill="#2F3032" transform="translate(0, 56)"/>
  </g>
</svg>