<svg xmlns="http://www.w3.org/2000/svg" width="600" height="380" viewBox="0 0 600 380">
  <rect width="600" height="380" fill="#ffffff"/>
  <polygon points="150,40 178,120 262,120 194,170 220,250 150,200 80,250 106,170 38,120 122,120"
           fill="#ffcc00"/>
  <path d="M330 250 C 250 175, 285 90, 360 130 C 375 138, 385 138, 400 130
           C 475 90, 510 175, 430 250 C 405 275, 380 300, 380 300
           C 380 300, 355 275, 330 250 Z" fill="#e11d2a"/>
  <polygon points="500,60 520,120 585,120 533,158 552,220 500,182 448,220 467,158 415,120 480,120"
           fill="#1466d6"/>
</svg>
